<svg width="389" height="335" viewBox="0 0 389 335" fill="none" xmlns="http://www.w3.org/2000/svg">
<rect width="389" height="335" rx="20" fill="#E1E5E1"/>
<path d="M26.116 37V28.6H28.672C29.464 28.6 30.16 28.78 30.76 29.14C31.368 29.492 31.844 29.984 32.188 30.616C32.532 31.248 32.704 31.976 32.704 32.8C32.704 33.616 32.532 34.34 32.188 34.972C31.844 35.604 31.368 36.1 30.76 36.46C30.16 36.82 29.464 37 28.672 37H26.116ZM27.136 36.064H28.672C29.096 36.064 29.488 35.984 29.848 35.824C30.208 35.656 30.524 35.42 30.796 35.116C31.076 34.812 31.292 34.464 31.444 34.072C31.604 33.672 31.684 33.248 31.684 32.8C31.684 32.352 31.604 31.932 31.444 31.54C31.292 31.14 31.076 30.788 30.796 30.484C30.524 30.18 30.208 29.948 29.848 29.788C29.488 29.62 29.096 29.536 28.672 29.536H27.136V36.064ZM37.7977 37L37.7497 36.016V33.832C37.7497 33.36 37.6977 32.972 37.5937 32.668C37.4897 32.356 37.3257 32.12 37.1017 31.96C36.8777 31.8 36.5857 31.72 36.2257 31.72C35.8977 31.72 35.6137 31.788 35.3737 31.924C35.1417 32.052 34.9497 32.26 34.7977 32.548L33.9337 32.212C34.0857 31.932 34.2697 31.692 34.4857 31.492C34.7017 31.284 34.9537 31.128 35.2417 31.024C35.5297 30.912 35.8577 30.856 36.2257 30.856C36.7857 30.856 37.2457 30.968 37.6057 31.192C37.9737 31.408 38.2497 31.732 38.4337 32.164C38.6177 32.588 38.7057 33.116 38.6977 33.748L38.6857 37H37.7977ZM35.9977 37.144C35.2937 37.144 34.7417 36.984 34.3417 36.664C33.9497 36.336 33.7537 35.884 33.7537 35.308C33.7537 34.7 33.9537 34.236 34.3537 33.916C34.7617 33.588 35.3297 33.424 36.0577 33.424H37.7737V34.228H36.2737C35.7137 34.228 35.3137 34.32 35.0737 34.504C34.8417 34.688 34.7257 34.952 34.7257 35.296C34.7257 35.608 34.8417 35.856 35.0737 36.04C35.3057 36.216 35.6297 36.304 36.0457 36.304C36.3897 36.304 36.6897 36.232 36.9457 36.088C37.2017 35.936 37.3977 35.724 37.5337 35.452C37.6777 35.172 37.7497 34.844 37.7497 34.468H38.1577C38.1577 35.284 37.9737 35.936 37.6057 36.424C37.2377 36.904 36.7017 37.144 35.9977 37.144ZM40.2789 37V31H41.2389V37H40.2789ZM40.7709 29.608C40.6109 29.608 40.4709 29.548 40.3509 29.428C40.2309 29.308 40.1709 29.168 40.1709 29.008C40.1709 28.84 40.2309 28.7 40.3509 28.588C40.4709 28.468 40.6109 28.408 40.7709 28.408C40.9389 28.408 41.0789 28.468 41.1909 28.588C41.3109 28.7 41.3709 28.84 41.3709 29.008C41.3709 29.168 41.3109 29.308 41.1909 29.428C41.0789 29.548 40.9389 29.608 40.7709 29.608ZM43.008 37V28.6H43.968V37H43.008ZM46.1847 39.544C46.0327 39.544 45.8567 39.512 45.6567 39.448C45.4567 39.392 45.2447 39.316 45.0207 39.22L45.3807 38.416C45.5647 38.496 45.7247 38.556 45.8607 38.596C46.0047 38.636 46.1167 38.656 46.1967 38.656C46.4127 38.656 46.5887 38.596 46.7247 38.476C46.8687 38.364 46.9887 38.2 47.0847 37.984L47.7687 36.352L49.9887 31H51.0207L48.1407 37.84C47.9887 38.192 47.8287 38.496 47.6607 38.752C47.5007 39.008 47.3047 39.204 47.0727 39.34C46.8407 39.476 46.5447 39.544 46.1847 39.544ZM47.5047 37L44.9127 31H45.9327L48.1647 36.34L48.4527 37H47.5047ZM54.9859 39.4V31H55.8859L55.9459 32.104V39.4H54.9859ZM57.9739 37.144C57.4699 37.144 57.0259 37.012 56.6419 36.748C56.2659 36.484 55.9739 36.116 55.7659 35.644C55.5579 35.164 55.4539 34.616 55.4539 34C55.4539 33.376 55.5579 32.828 55.7659 32.356C55.9739 31.884 56.2659 31.516 56.6419 31.252C57.0259 30.988 57.4699 30.856 57.9739 30.856C58.5099 30.856 58.9819 30.988 59.3899 31.252C59.7979 31.516 60.1139 31.884 60.3379 32.356C60.5699 32.828 60.6859 33.376 60.6859 34C60.6859 34.616 60.5699 35.164 60.3379 35.644C60.1139 36.116 59.7979 36.484 59.3899 36.748C58.9819 37.012 58.5099 37.144 57.9739 37.144ZM57.7579 36.268C58.1339 36.268 58.4659 36.172 58.7539 35.98C59.0499 35.788 59.2819 35.52 59.4499 35.176C59.6259 34.832 59.7139 34.44 59.7139 34C59.7139 33.56 59.6299 33.168 59.4619 32.824C59.3019 32.48 59.0739 32.212 58.7779 32.02C58.4819 31.828 58.1459 31.732 57.7699 31.732C57.4179 31.732 57.1019 31.828 56.8219 32.02C56.5499 32.212 56.3339 32.48 56.1739 32.824C56.0219 33.168 55.9459 33.56 55.9459 34C55.9459 34.44 56.0219 34.832 56.1739 35.176C56.3339 35.52 56.5499 35.788 56.8219 35.98C57.0939 36.172 57.4059 36.268 57.7579 36.268ZM65.7118 37L65.6638 36.016V33.832C65.6638 33.36 65.6118 32.972 65.5078 32.668C65.4038 32.356 65.2398 32.12 65.0158 31.96C64.7918 31.8 64.4998 31.72 64.1398 31.72C63.8118 31.72 63.5278 31.788 63.2878 31.924C63.0558 32.052 62.8638 32.26 62.7118 32.548L61.8478 32.212C61.9998 31.932 62.1838 31.692 62.3998 31.492C62.6158 31.284 62.8678 31.128 63.1558 31.024C63.4438 30.912 63.7718 30.856 64.1398 30.856C64.6998 30.856 65.1598 30.968 65.5198 31.192C65.8878 31.408 66.1638 31.732 66.3478 32.164C66.5318 32.588 66.6198 33.116 66.6118 33.748L66.5998 37H65.7118ZM63.9118 37.144C63.2078 37.144 62.6558 36.984 62.2558 36.664C61.8638 36.336 61.6678 35.884 61.6678 35.308C61.6678 34.7 61.8678 34.236 62.2678 33.916C62.6758 33.588 63.2438 33.424 63.9718 33.424H65.6878V34.228H64.1878C63.6278 34.228 63.2278 34.32 62.9878 34.504C62.7558 34.688 62.6398 34.952 62.6398 35.296C62.6398 35.608 62.7558 35.856 62.9878 36.04C63.2198 36.216 63.5438 36.304 63.9598 36.304C64.3038 36.304 64.6038 36.232 64.8598 36.088C65.1158 35.936 65.3118 35.724 65.4478 35.452C65.5918 35.172 65.6638 34.844 65.6638 34.468H66.0718C66.0718 35.284 65.8878 35.936 65.5198 36.424C65.1518 36.904 64.6158 37.144 63.9118 37.144ZM70.233 37.144C69.793 37.144 69.409 37.08 69.081 36.952C68.753 36.816 68.477 36.64 68.253 36.424C68.037 36.208 67.881 35.972 67.785 35.716L68.625 35.368C68.761 35.64 68.965 35.86 69.237 36.028C69.509 36.196 69.809 36.28 70.137 36.28C70.513 36.28 70.829 36.208 71.085 36.064C71.341 35.912 71.469 35.7 71.469 35.428C71.469 35.18 71.373 34.98 71.181 34.828C70.997 34.676 70.721 34.552 70.353 34.456L69.777 34.3C69.233 34.156 68.809 33.94 68.505 33.652C68.201 33.356 68.049 33.024 68.049 32.656C68.049 32.088 68.233 31.648 68.601 31.336C68.977 31.016 69.533 30.856 70.269 30.856C70.621 30.856 70.941 30.908 71.229 31.012C71.517 31.116 71.765 31.264 71.973 31.456C72.181 31.64 72.333 31.86 72.429 32.116L71.589 32.488C71.485 32.216 71.313 32.02 71.073 31.9C70.833 31.78 70.541 31.72 70.197 31.72C69.829 31.72 69.541 31.8 69.333 31.96C69.125 32.112 69.021 32.328 69.021 32.608C69.021 32.768 69.105 32.92 69.273 33.064C69.449 33.2 69.705 33.312 70.041 33.4L70.641 33.556C71.033 33.652 71.361 33.796 71.625 33.988C71.889 34.172 72.089 34.384 72.225 34.624C72.361 34.864 72.429 35.12 72.429 35.392C72.429 35.752 72.333 36.064 72.141 36.328C71.949 36.592 71.689 36.796 71.361 36.94C71.033 37.076 70.657 37.144 70.233 37.144ZM75.8228 37.144C75.3828 37.144 74.9988 37.08 74.6708 36.952C74.3428 36.816 74.0668 36.64 73.8428 36.424C73.6268 36.208 73.4708 35.972 73.3748 35.716L74.2148 35.368C74.3508 35.64 74.5548 35.86 74.8268 36.028C75.0988 36.196 75.3988 36.28 75.7268 36.28C76.1028 36.28 76.4188 36.208 76.6748 36.064C76.9308 35.912 77.0588 35.7 77.0588 35.428C77.0588 35.18 76.9628 34.98 76.7708 34.828C76.5868 34.676 76.3108 34.552 75.9428 34.456L75.3668 34.3C74.8228 34.156 74.3988 33.94 74.0948 33.652C73.7908 33.356 73.6388 33.024 73.6388 32.656C73.6388 32.088 73.8228 31.648 74.1908 31.336C74.5668 31.016 75.1228 30.856 75.8588 30.856C76.2108 30.856 76.5308 30.908 76.8188 31.012C77.1068 31.116 77.3548 31.264 77.5628 31.456C77.7708 31.64 77.9228 31.86 78.0188 32.116L77.1788 32.488C77.0748 32.216 76.9028 32.02 76.6628 31.9C76.4228 31.78 76.1308 31.72 75.7868 31.72C75.4188 31.72 75.1308 31.8 74.9228 31.96C74.7148 32.112 74.6108 32.328 74.6108 32.608C74.6108 32.768 74.6948 32.92 74.8628 33.064C75.0388 33.2 75.2948 33.312 75.6308 33.4L76.2308 33.556C76.6228 33.652 76.9508 33.796 77.2148 33.988C77.4788 34.172 77.6788 34.384 77.8148 34.624C77.9508 34.864 78.0188 35.12 78.0188 35.392C78.0188 35.752 77.9228 36.064 77.7308 36.328C77.5388 36.592 77.2788 36.796 76.9508 36.94C76.6228 37.076 76.2468 37.144 75.8228 37.144ZM81.9407 37.144C81.3567 37.144 80.8407 37.012 80.3927 36.748C79.9447 36.476 79.5927 36.104 79.3367 35.632C79.0887 35.16 78.9647 34.616 78.9647 34C78.9647 33.384 79.0887 32.84 79.3367 32.368C79.5927 31.896 79.9407 31.528 80.3807 31.264C80.8287 30.992 81.3407 30.856 81.9167 30.856C82.4767 30.856 82.9607 30.996 83.3687 31.276C83.7767 31.548 84.0927 31.932 84.3167 32.428C84.5407 32.924 84.6527 33.508 84.6527 34.18H79.6967L79.9367 33.976C79.9367 34.456 80.0207 34.868 80.1887 35.212C80.3647 35.556 80.6087 35.82 80.9207 36.004C81.2327 36.18 81.5887 36.268 81.9887 36.268C82.4127 36.268 82.7687 36.168 83.0567 35.968C83.3527 35.768 83.5807 35.504 83.7407 35.176L84.5687 35.596C84.4167 35.908 84.2127 36.18 83.9567 36.412C83.7087 36.644 83.4127 36.824 83.0687 36.952C82.7327 37.08 82.3567 37.144 81.9407 37.144ZM79.9967 33.568L79.7447 33.376H83.8847L83.6327 33.58C83.6327 33.196 83.5567 32.864 83.4047 32.584C83.2527 32.304 83.0487 32.088 82.7927 31.936C82.5367 31.784 82.2407 31.708 81.9047 31.708C81.5767 31.708 81.2647 31.784 80.9687 31.936C80.6807 32.088 80.4447 32.304 80.2607 32.584C80.0847 32.856 79.9967 33.184 79.9967 33.568ZM87.9634 37.144C87.5234 37.144 87.1394 37.08 86.8114 36.952C86.4834 36.816 86.2074 36.64 85.9834 36.424C85.7674 36.208 85.6114 35.972 85.5154 35.716L86.3554 35.368C86.4914 35.64 86.6954 35.86 86.9674 36.028C87.2394 36.196 87.5394 36.28 87.8674 36.28C88.2434 36.28 88.5594 36.208 88.8154 36.064C89.0714 35.912 89.1994 35.7 89.1994 35.428C89.1994 35.18 89.1034 34.98 88.9114 34.828C88.7274 34.676 88.4514 34.552 88.0834 34.456L87.5074 34.3C86.9634 34.156 86.5394 33.94 86.2354 33.652C85.9314 33.356 85.7794 33.024 85.7794 32.656C85.7794 32.088 85.9634 31.648 86.3314 31.336C86.7074 31.016 87.2634 30.856 87.9994 30.856C88.3514 30.856 88.6714 30.908 88.9594 31.012C89.2474 31.116 89.4954 31.264 89.7034 31.456C89.9114 31.64 90.0634 31.86 90.1594 32.116L89.3194 32.488C89.2154 32.216 89.0434 32.02 88.8034 31.9C88.5634 31.78 88.2714 31.72 87.9274 31.72C87.5594 31.72 87.2714 31.8 87.0634 31.96C86.8554 32.112 86.7514 32.328 86.7514 32.608C86.7514 32.768 86.8354 32.92 87.0034 33.064C87.1794 33.2 87.4354 33.312 87.7714 33.4L88.3714 33.556C88.7634 33.652 89.0914 33.796 89.3554 33.988C89.6194 34.172 89.8194 34.384 89.9554 34.624C90.0914 34.864 90.1594 35.12 90.1594 35.392C90.1594 35.752 90.0634 36.064 89.8714 36.328C89.6794 36.592 89.4194 36.796 89.0914 36.94C88.7634 37.076 88.3874 37.144 87.9634 37.144Z" fill="#2B2B2B"/>
<path d="M177.787 136.331C176.296 136.331 175.016 136.11 173.948 135.669C172.881 135.208 172.061 134.582 171.491 133.791C170.92 132.981 170.635 132.042 170.635 130.974C170.635 129.833 170.92 128.839 171.491 127.992C172.061 127.126 172.881 126.454 173.948 125.976C175.016 125.479 176.296 125.239 177.787 125.258C179.278 125.239 180.557 125.479 181.625 125.976C182.693 126.454 183.512 127.126 184.083 127.992C184.672 128.839 184.967 129.833 184.967 130.974C184.967 132.042 184.672 132.981 184.083 133.791C183.512 134.582 182.693 135.208 181.625 135.669C180.557 136.11 179.278 136.331 177.787 136.331ZM177.787 133.625C178.928 133.625 179.867 133.34 180.604 132.769C181.34 132.198 181.708 131.471 181.708 130.587C181.708 129.649 181.34 128.885 180.604 128.295C179.867 127.706 178.928 127.412 177.787 127.412C177.032 127.412 176.36 127.541 175.771 127.798C175.2 128.056 174.74 128.434 174.39 128.931C174.059 129.409 173.893 129.962 173.893 130.587C173.893 131.177 174.059 131.701 174.39 132.162C174.74 132.622 175.2 132.981 175.771 133.239C176.36 133.496 177.032 133.625 177.787 133.625ZM177.787 126.694C176.461 126.694 175.311 126.482 174.335 126.059C173.359 125.617 172.604 125.018 172.07 124.264C171.555 123.49 171.297 122.598 171.297 121.585C171.297 120.554 171.555 119.643 172.07 118.851C172.604 118.059 173.359 117.443 174.335 117.001C175.311 116.559 176.461 116.338 177.787 116.338C179.112 116.338 180.263 116.559 181.239 117.001C182.214 117.443 182.969 118.059 183.503 118.851C184.037 119.643 184.304 120.554 184.304 121.585C184.304 122.598 184.037 123.49 183.503 124.264C182.969 125.018 182.214 125.617 181.239 126.059C180.263 126.482 179.112 126.694 177.787 126.694ZM177.787 124.733C178.763 124.733 179.563 124.475 180.189 123.96C180.834 123.426 181.156 122.754 181.156 121.944C181.156 121.06 180.834 120.342 180.189 119.79C179.563 119.238 178.763 118.962 177.787 118.962C176.811 118.962 176.01 119.238 175.384 119.79C174.758 120.342 174.445 121.06 174.445 121.944C174.445 122.754 174.758 123.426 175.384 123.96C176.01 124.475 176.811 124.733 177.787 124.733ZM194.336 136.331C193.489 136.331 192.624 136.203 191.74 135.945C190.875 135.669 190.074 135.264 189.338 134.73C188.601 134.177 188.04 133.487 187.653 132.659L190.497 131.609C190.976 132.29 191.538 132.787 192.182 133.1C192.826 133.395 193.489 133.542 194.17 133.542C195.256 133.542 196.14 133.22 196.821 132.576C197.502 131.913 197.843 131.039 197.843 129.952C197.843 128.903 197.512 128.038 196.849 127.357C196.186 126.675 195.321 126.335 194.253 126.335C193.627 126.335 193.038 126.473 192.486 126.749C191.952 127.025 191.538 127.357 191.243 127.743L188.343 127.108L189.42 116.67H200.107V119.569H192.182L191.63 124.816C192.127 124.521 192.679 124.291 193.287 124.126C193.912 123.941 194.566 123.849 195.247 123.849C196.352 123.849 197.346 124.107 198.23 124.623C199.113 125.138 199.813 125.847 200.328 126.749C200.844 127.633 201.102 128.654 201.102 129.814C201.102 131.103 200.807 132.235 200.218 133.211C199.647 134.187 198.856 134.951 197.843 135.503C196.83 136.055 195.661 136.331 194.336 136.331ZM210.466 136.331C209.159 136.331 208.046 136.092 207.125 135.613C206.223 135.116 205.496 134.454 204.943 133.625C204.391 132.778 203.986 131.803 203.728 130.698C203.471 129.575 203.342 128.378 203.342 127.108C203.342 125.562 203.498 124.135 203.811 122.828C204.143 121.521 204.631 120.379 205.275 119.403C205.919 118.428 206.72 117.673 207.677 117.139C208.653 116.605 209.785 116.338 211.074 116.338C212.068 116.338 213.044 116.495 214.001 116.808C214.977 117.102 215.842 117.516 216.597 118.05L214.94 120.37C214.369 119.965 213.743 119.661 213.062 119.459C212.4 119.256 211.783 119.155 211.212 119.155C209.61 119.155 208.368 119.845 207.484 121.226C206.619 122.607 206.223 124.752 206.297 127.66L205.634 127.163C206.057 126.114 206.729 125.276 207.65 124.65C208.57 124.006 209.666 123.684 210.936 123.684C212.169 123.684 213.265 123.969 214.222 124.54C215.179 125.092 215.925 125.856 216.459 126.832C216.993 127.789 217.26 128.885 217.26 130.118C217.26 131.315 216.974 132.382 216.404 133.321C215.851 134.26 215.06 134.997 214.029 135.531C213.016 136.064 211.829 136.331 210.466 136.331ZM210.494 133.597C211.175 133.597 211.783 133.441 212.317 133.128C212.869 132.815 213.302 132.392 213.615 131.858C213.928 131.305 214.084 130.68 214.084 129.98C214.084 129.28 213.928 128.654 213.615 128.102C213.302 127.55 212.869 127.126 212.317 126.832C211.783 126.519 211.175 126.362 210.494 126.362C209.795 126.362 209.169 126.519 208.616 126.832C208.082 127.126 207.659 127.55 207.346 128.102C207.033 128.654 206.877 129.28 206.877 129.98C206.877 130.68 207.033 131.305 207.346 131.858C207.659 132.392 208.082 132.815 208.616 133.128C209.169 133.441 209.795 133.597 210.494 133.597ZM223.728 136V118.382L224.031 116.67H226.821V136H223.728ZM219.53 122.331V119.431C219.954 119.449 220.432 119.33 220.966 119.072C221.518 118.796 222.062 118.437 222.595 117.995C223.129 117.553 223.608 117.102 224.031 116.642L226.02 118.713C225.375 119.394 224.703 120.02 224.004 120.591C223.304 121.162 222.577 121.603 221.822 121.916C221.086 122.229 220.322 122.367 219.53 122.331Z" fill="#2B2B2B"/>
<g clip-path="url(#clip0_2821_551)">
<path d="M163.208 127.569V122.344H157.983" stroke="#2B2B2B" stroke-width="2" stroke-linecap="round" stroke-linejoin="round"/>
<path d="M163.208 122.344L157.063 128.49C156.955 128.598 156.827 128.683 156.686 128.742C156.545 128.8 156.394 128.83 156.242 128.83C156.089 128.83 155.938 128.8 155.797 128.742C155.656 128.683 155.528 128.598 155.42 128.49L152.999 126.068C152.891 125.96 152.763 125.875 152.622 125.816C152.481 125.758 152.33 125.728 152.178 125.728C152.025 125.728 151.874 125.758 151.733 125.816C151.592 125.875 151.464 125.96 151.357 126.068L145.792 131.633" stroke="#2B2B2B" stroke-width="2" stroke-linecap="round" stroke-linejoin="round"/>
</g>
<path d="M158.167 157.981C157.569 157.981 157.107 157.826 156.78 157.515C156.452 157.204 156.289 156.766 156.289 156.202L156.289 149.783H157.271V156.103C157.271 156.414 157.352 156.656 157.516 156.828C157.688 156.991 157.925 157.073 158.228 157.073C158.326 157.073 158.42 157.061 158.51 157.036C158.608 157.003 158.735 156.93 158.891 156.815L159.271 157.613C159.058 157.752 158.866 157.846 158.694 157.895C158.522 157.953 158.347 157.981 158.167 157.981ZM155.221 152.569V151.697H159.112V152.569H155.221ZM163.174 157.981C162.577 157.981 162.045 157.846 161.578 157.576C161.12 157.298 160.76 156.918 160.498 156.435C160.237 155.952 160.106 155.396 160.106 154.766C160.106 154.136 160.233 153.579 160.486 153.096C160.748 152.614 161.108 152.237 161.566 151.967C162.033 151.689 162.56 151.55 163.149 151.55C163.755 151.55 164.287 151.689 164.745 151.967C165.211 152.237 165.571 152.614 165.825 153.096C166.087 153.579 166.218 154.136 166.218 154.766C166.218 155.396 166.087 155.952 165.825 156.435C165.571 156.918 165.215 157.298 164.757 157.576C164.299 157.846 163.771 157.981 163.174 157.981ZM163.174 157.073C163.583 157.073 163.939 156.975 164.242 156.778C164.545 156.582 164.782 156.312 164.954 155.968C165.134 155.625 165.224 155.224 165.224 154.766C165.224 154.307 165.134 153.907 164.954 153.563C164.782 153.219 164.54 152.949 164.23 152.753C163.919 152.556 163.559 152.458 163.149 152.458C162.749 152.458 162.393 152.556 162.082 152.753C161.779 152.949 161.538 153.219 161.358 153.563C161.186 153.907 161.1 154.307 161.1 154.766C161.1 155.216 161.186 155.617 161.358 155.968C161.538 156.312 161.783 156.582 162.094 156.778C162.413 156.975 162.773 157.073 163.174 157.073ZM169.888 157.981C169.291 157.981 168.829 157.826 168.502 157.515C168.174 157.204 168.011 156.766 168.011 156.202V149.783H168.993V156.103C168.993 156.414 169.074 156.656 169.238 156.828C169.41 156.991 169.647 157.073 169.95 157.073C170.048 157.073 170.142 157.061 170.232 157.036C170.33 157.003 170.457 156.93 170.613 156.815L170.993 157.613C170.78 157.752 170.588 157.846 170.416 157.895C170.244 157.953 170.068 157.981 169.888 157.981ZM166.943 152.569V151.697H170.834V152.569H166.943ZM175.964 157.834L175.915 156.828V154.594C175.915 154.111 175.861 153.714 175.755 153.403C175.649 153.084 175.481 152.843 175.252 152.679C175.023 152.516 174.724 152.434 174.356 152.434C174.02 152.434 173.73 152.503 173.485 152.642C173.247 152.773 173.051 152.986 172.895 153.281L172.012 152.937C172.167 152.651 172.355 152.405 172.576 152.201C172.797 151.988 173.055 151.828 173.35 151.722C173.644 151.607 173.98 151.55 174.356 151.55C174.929 151.55 175.399 151.665 175.767 151.894C176.144 152.115 176.426 152.446 176.614 152.888C176.802 153.321 176.892 153.862 176.884 154.508L176.872 157.834H175.964ZM174.123 157.981C173.403 157.981 172.838 157.818 172.429 157.49C172.028 157.155 171.828 156.693 171.828 156.103C171.828 155.482 172.032 155.007 172.441 154.68C172.859 154.344 173.44 154.177 174.184 154.177H175.939V154.999H174.405C173.832 154.999 173.423 155.093 173.178 155.281C172.94 155.469 172.822 155.739 172.822 156.091C172.822 156.41 172.94 156.664 173.178 156.852C173.415 157.032 173.746 157.122 174.172 157.122C174.524 157.122 174.831 157.048 175.092 156.901C175.354 156.746 175.555 156.529 175.694 156.251C175.841 155.964 175.915 155.629 175.915 155.244H176.332C176.332 156.079 176.144 156.746 175.767 157.245C175.391 157.736 174.843 157.981 174.123 157.981ZM178.44 157.834V149.243H179.422V157.834H178.44ZM184.231 160.289V151.697H185.151L185.212 152.826V160.289H184.231ZM187.287 157.981C186.771 157.981 186.317 157.846 185.924 157.576C185.54 157.306 185.241 156.93 185.028 156.447C184.816 155.956 184.709 155.396 184.709 154.766C184.709 154.127 184.816 153.567 185.028 153.084C185.241 152.601 185.54 152.225 185.924 151.955C186.317 151.685 186.771 151.55 187.287 151.55C187.835 151.55 188.318 151.685 188.735 151.955C189.152 152.225 189.475 152.601 189.705 153.084C189.942 153.567 190.06 154.127 190.06 154.766C190.06 155.396 189.942 155.956 189.705 156.447C189.475 156.93 189.152 157.306 188.735 157.576C188.318 157.846 187.835 157.981 187.287 157.981ZM187.066 157.085C187.45 157.085 187.79 156.987 188.084 156.791C188.387 156.594 188.624 156.32 188.796 155.968C188.976 155.617 189.066 155.216 189.066 154.766C189.066 154.316 188.98 153.915 188.809 153.563C188.645 153.211 188.412 152.937 188.109 152.741C187.806 152.544 187.463 152.446 187.078 152.446C186.718 152.446 186.395 152.544 186.108 152.741C185.83 152.937 185.609 153.211 185.446 153.563C185.29 153.915 185.212 154.316 185.212 154.766C185.212 155.216 185.29 155.617 185.446 155.968C185.609 156.32 185.83 156.594 186.108 156.791C186.387 156.987 186.706 157.085 187.066 157.085ZM195.201 157.834L195.152 156.828V154.594C195.152 154.111 195.098 153.714 194.992 153.403C194.886 153.084 194.718 152.843 194.489 152.679C194.26 152.516 193.961 152.434 193.593 152.434C193.257 152.434 192.967 152.503 192.722 152.642C192.484 152.773 192.288 152.986 192.132 153.281L191.249 152.937C191.404 152.651 191.592 152.405 191.813 152.201C192.034 151.988 192.292 151.828 192.587 151.722C192.881 151.607 193.217 151.55 193.593 151.55C194.166 151.55 194.636 151.665 195.004 151.894C195.381 152.115 195.663 152.446 195.851 152.888C196.039 153.321 196.129 153.862 196.121 154.508L196.109 157.834H195.201ZM193.36 157.981C192.64 157.981 192.075 157.818 191.666 157.49C191.265 157.155 191.065 156.693 191.065 156.103C191.065 155.482 191.269 155.007 191.678 154.68C192.096 154.344 192.677 154.177 193.421 154.177H195.176V154.999H193.642C193.069 154.999 192.66 155.093 192.415 155.281C192.177 155.469 192.059 155.739 192.059 156.091C192.059 156.41 192.177 156.664 192.415 156.852C192.652 157.032 192.983 157.122 193.409 157.122C193.761 157.122 194.068 157.048 194.329 156.901C194.591 156.746 194.792 156.529 194.931 156.251C195.078 155.964 195.152 155.629 195.152 155.244H195.569C195.569 156.079 195.381 156.746 195.004 157.245C194.628 157.736 194.08 157.981 193.36 157.981ZM199.825 157.981C199.375 157.981 198.982 157.916 198.647 157.785C198.311 157.646 198.029 157.466 197.8 157.245C197.579 157.024 197.419 156.783 197.321 156.521L198.18 156.165C198.319 156.443 198.528 156.668 198.806 156.84C199.084 157.012 199.391 157.098 199.727 157.098C200.111 157.098 200.434 157.024 200.696 156.877C200.958 156.721 201.089 156.504 201.089 156.226C201.089 155.973 200.991 155.768 200.794 155.613C200.606 155.457 200.324 155.33 199.948 155.232L199.359 155.072C198.802 154.925 198.368 154.704 198.058 154.41C197.747 154.107 197.591 153.767 197.591 153.391C197.591 152.81 197.779 152.36 198.156 152.041C198.54 151.714 199.109 151.55 199.862 151.55C200.222 151.55 200.549 151.603 200.844 151.71C201.138 151.816 201.392 151.967 201.605 152.164C201.817 152.352 201.973 152.577 202.071 152.839L201.212 153.219C201.105 152.941 200.93 152.741 200.684 152.618C200.439 152.495 200.14 152.434 199.788 152.434C199.412 152.434 199.117 152.516 198.904 152.679C198.692 152.835 198.585 153.056 198.585 153.342C198.585 153.506 198.671 153.661 198.843 153.808C199.023 153.947 199.285 154.062 199.629 154.152L200.242 154.312C200.643 154.41 200.979 154.557 201.249 154.753C201.519 154.942 201.723 155.158 201.862 155.404C202.001 155.649 202.071 155.911 202.071 156.189C202.071 156.558 201.973 156.877 201.776 157.147C201.58 157.417 201.314 157.625 200.979 157.773C200.643 157.912 200.259 157.981 199.825 157.981ZM205.542 157.981C205.092 157.981 204.699 157.916 204.364 157.785C204.028 157.646 203.746 157.466 203.517 157.245C203.296 157.024 203.136 156.783 203.038 156.521L203.897 156.165C204.037 156.443 204.245 156.668 204.523 156.84C204.802 157.012 205.108 157.098 205.444 157.098C205.828 157.098 206.152 157.024 206.413 156.877C206.675 156.721 206.806 156.504 206.806 156.226C206.806 155.973 206.708 155.768 206.512 155.613C206.323 155.457 206.041 155.33 205.665 155.232L205.076 155.072C204.519 154.925 204.086 154.704 203.775 154.41C203.464 154.107 203.308 153.767 203.308 153.391C203.308 152.81 203.497 152.36 203.873 152.041C204.257 151.714 204.826 151.55 205.579 151.55C205.939 151.55 206.266 151.603 206.561 151.71C206.855 151.816 207.109 151.967 207.322 152.164C207.534 152.352 207.69 152.577 207.788 152.839L206.929 153.219C206.823 152.941 206.647 152.741 206.401 152.618C206.156 152.495 205.857 152.434 205.505 152.434C205.129 152.434 204.834 152.516 204.622 152.679C204.409 152.835 204.302 153.056 204.302 153.342C204.302 153.506 204.388 153.661 204.56 153.808C204.74 153.947 205.002 154.062 205.346 154.152L205.959 154.312C206.36 154.41 206.696 154.557 206.966 154.753C207.236 154.942 207.44 155.158 207.579 155.404C207.719 155.649 207.788 155.911 207.788 156.189C207.788 156.558 207.69 156.877 207.494 157.147C207.297 157.417 207.031 157.625 206.696 157.773C206.36 157.912 205.976 157.981 205.542 157.981ZM211.799 157.981C211.202 157.981 210.674 157.846 210.216 157.576C209.758 157.298 209.398 156.918 209.136 156.435C208.882 155.952 208.755 155.396 208.755 154.766C208.755 154.136 208.882 153.579 209.136 153.096C209.398 152.614 209.754 152.237 210.204 151.967C210.662 151.689 211.186 151.55 211.775 151.55C212.347 151.55 212.842 151.693 213.26 151.98C213.677 152.258 214 152.651 214.229 153.158C214.458 153.665 214.573 154.262 214.573 154.95H209.504L209.75 154.741C209.75 155.232 209.836 155.653 210.007 156.005C210.187 156.357 210.437 156.627 210.756 156.815C211.075 156.995 211.439 157.085 211.848 157.085C212.282 157.085 212.646 156.983 212.941 156.778C213.243 156.574 213.477 156.304 213.64 155.968L214.487 156.398C214.332 156.717 214.123 156.995 213.861 157.233C213.608 157.47 213.305 157.654 212.953 157.785C212.609 157.916 212.225 157.981 211.799 157.981ZM209.811 154.324L209.553 154.127H213.788L213.53 154.336C213.53 153.943 213.452 153.604 213.297 153.317C213.141 153.031 212.932 152.81 212.671 152.655C212.409 152.499 212.106 152.421 211.762 152.421C211.427 152.421 211.108 152.499 210.805 152.655C210.511 152.81 210.269 153.031 210.081 153.317C209.901 153.596 209.811 153.931 209.811 154.324ZM217.959 157.981C217.509 157.981 217.116 157.916 216.781 157.785C216.445 157.646 216.163 157.466 215.934 157.245C215.713 157.024 215.554 156.783 215.455 156.521L216.315 156.165C216.454 156.443 216.662 156.668 216.941 156.84C217.219 157.012 217.526 157.098 217.861 157.098C218.246 157.098 218.569 157.024 218.831 156.877C219.092 156.721 219.223 156.504 219.223 156.226C219.223 155.973 219.125 155.768 218.929 155.613C218.741 155.457 218.458 155.33 218.082 155.232L217.493 155.072C216.936 154.925 216.503 154.704 216.192 154.41C215.881 154.107 215.725 153.767 215.725 153.391C215.725 152.81 215.914 152.36 216.29 152.041C216.675 151.714 217.243 151.55 217.996 151.55C218.356 151.55 218.683 151.603 218.978 151.71C219.272 151.816 219.526 151.967 219.739 152.164C219.952 152.352 220.107 152.577 220.205 152.839L219.346 153.219C219.24 152.941 219.064 152.741 218.818 152.618C218.573 152.495 218.274 152.434 217.922 152.434C217.546 152.434 217.251 152.516 217.039 152.679C216.826 152.835 216.72 153.056 216.72 153.342C216.72 153.506 216.806 153.661 216.977 153.808C217.157 153.947 217.419 154.062 217.763 154.152L218.376 154.312C218.777 154.41 219.113 154.557 219.383 154.753C219.653 154.942 219.857 155.158 219.997 155.404C220.136 155.649 220.205 155.911 220.205 156.189C220.205 156.558 220.107 156.877 219.911 157.147C219.714 157.417 219.448 157.625 219.113 157.773C218.777 157.912 218.393 157.981 217.959 157.981Z" fill="#2B2B2B"/>
<path d="M302.484 36.144C302.156 36.144 301.86 36.096 301.596 36C301.34 35.904 301.112 35.78 300.912 35.628C300.712 35.468 300.544 35.292 300.408 35.1C300.272 34.9 300.164 34.7 300.084 34.5L301.032 34.02C301.184 34.332 301.376 34.584 301.608 34.776C301.848 34.968 302.14 35.064 302.484 35.064C302.764 35.064 303.032 35 303.288 34.872C303.544 34.744 303.756 34.532 303.924 34.236C304.092 33.932 304.176 33.536 304.176 33.048V27.6H305.352V33.468C305.352 33.908 305.272 34.296 305.112 34.632C304.96 34.96 304.748 35.24 304.476 35.472C304.212 35.696 303.908 35.864 303.564 35.976C303.22 36.088 302.86 36.144 302.484 36.144ZM310.781 36L310.733 34.956V32.868C310.733 32.428 310.681 32.06 310.577 31.764C310.481 31.468 310.329 31.244 310.121 31.092C309.921 30.94 309.653 30.864 309.317 30.864C309.005 30.864 308.733 30.928 308.501 31.056C308.277 31.184 308.089 31.384 307.937 31.656L306.929 31.272C307.073 31 307.253 30.76 307.469 30.552C307.685 30.336 307.945 30.168 308.249 30.048C308.553 29.92 308.909 29.856 309.317 29.856C309.885 29.856 310.357 29.968 310.733 30.192C311.109 30.416 311.389 30.74 311.573 31.164C311.765 31.588 311.857 32.112 311.849 32.736L311.837 36H310.781ZM309.017 36.144C308.305 36.144 307.749 35.984 307.349 35.664C306.957 35.336 306.761 34.884 306.761 34.308C306.761 33.692 306.965 33.224 307.373 32.904C307.789 32.576 308.365 32.412 309.101 32.412H310.769V33.312H309.413C308.861 33.312 308.473 33.4 308.249 33.576C308.025 33.744 307.913 33.98 307.913 34.284C307.913 34.564 308.017 34.784 308.225 34.944C308.441 35.096 308.737 35.172 309.113 35.172C309.441 35.172 309.725 35.104 309.965 34.968C310.205 34.824 310.393 34.624 310.529 34.368C310.665 34.112 310.733 33.82 310.733 33.492H311.129C311.129 34.308 310.953 34.956 310.601 35.436C310.257 35.908 309.729 36.144 309.017 36.144ZM313.284 36V30H314.352L314.424 31.104V36H313.284ZM317.436 36V32.928H318.576V36H317.436ZM317.436 32.928C317.436 32.384 317.372 31.972 317.244 31.692C317.124 31.404 316.952 31.204 316.728 31.092C316.512 30.98 316.26 30.92 315.972 30.912C315.484 30.912 315.104 31.084 314.832 31.428C314.56 31.772 314.424 32.256 314.424 32.88H313.932C313.932 32.248 314.024 31.708 314.208 31.26C314.4 30.804 314.668 30.456 315.012 30.216C315.364 29.976 315.78 29.856 316.26 29.856C316.732 29.856 317.14 29.952 317.484 30.144C317.836 30.336 318.104 30.636 318.288 31.044C318.48 31.444 318.576 31.972 318.576 32.628V32.928H317.436ZM322.82 36V35.052C322.82 34.804 322.876 34.548 322.988 34.284C323.108 34.012 323.276 33.744 323.492 33.48C323.716 33.216 323.98 32.972 324.284 32.748L325.904 31.548C326.096 31.412 326.268 31.256 326.42 31.08C326.58 30.896 326.704 30.708 326.792 30.516C326.888 30.316 326.936 30.12 326.936 29.928C326.936 29.672 326.872 29.44 326.744 29.232C326.616 29.016 326.436 28.848 326.204 28.728C325.972 28.6 325.696 28.536 325.376 28.536C325.072 28.536 324.804 28.596 324.572 28.716C324.348 28.828 324.16 28.98 324.008 29.172C323.856 29.364 323.748 29.568 323.684 29.784L322.472 29.556C322.56 29.188 322.732 28.844 322.988 28.524C323.244 28.204 323.572 27.948 323.972 27.756C324.372 27.556 324.824 27.456 325.328 27.456C325.904 27.456 326.4 27.564 326.816 27.78C327.24 27.988 327.568 28.28 327.8 28.656C328.032 29.024 328.148 29.448 328.148 29.928C328.148 30.392 328.02 30.82 327.764 31.212C327.516 31.604 327.156 31.984 326.684 32.352L325.184 33.48C324.888 33.704 324.652 33.936 324.476 34.176C324.308 34.416 324.204 34.672 324.164 34.944H328.256V36H322.82ZM332.774 36.144C332.126 36.144 331.55 35.96 331.046 35.592C330.542 35.216 330.146 34.704 329.858 34.056C329.578 33.4 329.438 32.648 329.438 31.8C329.438 30.952 329.578 30.204 329.858 29.556C330.146 28.9 330.538 28.388 331.034 28.02C331.538 27.644 332.118 27.456 332.774 27.456C333.43 27.456 334.006 27.644 334.502 28.02C335.006 28.388 335.402 28.9 335.69 29.556C335.978 30.204 336.122 30.952 336.122 31.8C336.122 32.648 335.978 33.4 335.69 34.056C335.41 34.704 335.018 35.216 334.514 35.592C334.01 35.96 333.43 36.144 332.774 36.144ZM332.774 35.064C333.198 35.064 333.574 34.924 333.902 34.644C334.238 34.364 334.498 33.98 334.682 33.492C334.866 33.004 334.958 32.44 334.958 31.8C334.958 31.16 334.866 30.596 334.682 30.108C334.498 29.612 334.238 29.224 333.902 28.944C333.574 28.664 333.198 28.524 332.774 28.524C332.35 28.524 331.974 28.664 331.646 28.944C331.318 29.224 331.062 29.612 330.878 30.108C330.694 30.596 330.602 31.16 330.602 31.8C330.602 32.44 330.694 33.008 330.878 33.504C331.062 33.992 331.318 34.376 331.646 34.656C331.974 34.928 332.35 35.064 332.774 35.064ZM337.305 36V35.052C337.305 34.804 337.361 34.548 337.473 34.284C337.593 34.012 337.761 33.744 337.977 33.48C338.201 33.216 338.465 32.972 338.769 32.748L340.389 31.548C340.581 31.412 340.753 31.256 340.905 31.08C341.065 30.896 341.189 30.708 341.277 30.516C341.373 30.316 341.421 30.12 341.421 29.928C341.421 29.672 341.357 29.44 341.229 29.232C341.101 29.016 340.921 28.848 340.689 28.728C340.457 28.6 340.181 28.536 339.861 28.536C339.557 28.536 339.289 28.596 339.057 28.716C338.833 28.828 338.645 28.98 338.493 29.172C338.341 29.364 338.233 29.568 338.169 29.784L336.957 29.556C337.045 29.188 337.217 28.844 337.473 28.524C337.729 28.204 338.057 27.948 338.457 27.756C338.857 27.556 339.309 27.456 339.813 27.456C340.389 27.456 340.885 27.564 341.301 27.78C341.725 27.988 342.053 28.28 342.285 28.656C342.517 29.024 342.633 29.448 342.633 29.928C342.633 30.392 342.505 30.82 342.249 31.212C342.001 31.604 341.641 31.984 341.169 32.352L339.669 33.48C339.373 33.704 339.137 33.936 338.961 34.176C338.793 34.416 338.689 34.672 338.649 34.944H342.741V36H337.305ZM347.75 36V34.068H343.874V33.144L347.666 27.6H348.89V33.024H350.534V34.068H348.89V36H347.75ZM345.17 33.024H347.75V29.244L345.17 33.024Z" fill="#2B2B2B"/>
<path d="M355 30.52L356.96 32.4799L358.92 30.52" stroke="#2B2B2B" stroke-width="0.8" stroke-linecap="round" stroke-linejoin="round"/>
<path opacity="0.8" d="M183.441 300V293H187.581V293.77H184.291V296.03H187.291V296.79H184.291V299.23H187.601V300H183.441ZM191.599 300.12C191.213 300.12 190.869 300.08 190.569 300C190.269 299.913 190.009 299.797 189.789 299.65C189.569 299.497 189.389 299.33 189.249 299.15C189.109 298.963 189.006 298.767 188.939 298.56L189.749 298.28C189.849 298.573 190.049 298.83 190.349 299.05C190.656 299.263 191.029 299.37 191.469 299.37C192.009 299.37 192.433 299.263 192.739 299.05C193.046 298.837 193.199 298.553 193.199 298.2C193.199 297.873 193.063 297.61 192.789 297.41C192.516 297.203 192.156 297.043 191.709 296.93L190.939 296.73C190.626 296.65 190.336 296.533 190.069 296.38C189.809 296.22 189.599 296.02 189.439 295.78C189.286 295.533 189.209 295.24 189.209 294.9C189.209 294.267 189.413 293.773 189.819 293.42C190.233 293.06 190.826 292.88 191.599 292.88C192.059 292.88 192.456 292.957 192.789 293.11C193.123 293.257 193.393 293.447 193.599 293.68C193.813 293.907 193.963 294.153 194.049 294.42L193.249 294.7C193.123 294.367 192.909 294.107 192.609 293.92C192.309 293.727 191.946 293.63 191.519 293.63C191.073 293.63 190.716 293.74 190.449 293.96C190.189 294.173 190.059 294.467 190.059 294.84C190.059 295.16 190.163 295.407 190.369 295.58C190.576 295.747 190.846 295.87 191.179 295.95L191.949 296.14C192.629 296.3 193.149 296.567 193.509 296.94C193.876 297.307 194.059 297.703 194.059 298.13C194.059 298.497 193.966 298.833 193.779 299.14C193.593 299.44 193.316 299.68 192.949 299.86C192.589 300.033 192.139 300.12 191.599 300.12ZM195.502 300V293H197.632C198.292 293 198.872 293.15 199.372 293.45C199.879 293.743 200.275 294.153 200.562 294.68C200.849 295.207 200.992 295.813 200.992 296.5C200.992 297.18 200.849 297.783 200.562 298.31C200.275 298.837 199.879 299.25 199.372 299.55C198.872 299.85 198.292 300 197.632 300H195.502ZM196.352 299.22H197.632C197.985 299.22 198.312 299.153 198.612 299.02C198.912 298.88 199.175 298.683 199.402 298.43C199.635 298.177 199.815 297.887 199.942 297.56C200.075 297.227 200.142 296.873 200.142 296.5C200.142 296.127 200.075 295.777 199.942 295.45C199.815 295.117 199.635 294.823 199.402 294.57C199.175 294.317 198.912 294.123 198.612 293.99C198.312 293.85 197.985 293.78 197.632 293.78H196.352V299.22Z" fill="#3C3C3C"/>
<path d="M174.672 280.192C174.181 280.192 173.68 280.117 173.168 279.968C172.667 279.808 172.203 279.573 171.776 279.264C171.349 278.944 171.024 278.544 170.8 278.064L172.448 277.456C172.725 277.851 173.051 278.139 173.424 278.32C173.797 278.491 174.181 278.576 174.576 278.576C175.205 278.576 175.717 278.389 176.112 278.016C176.507 277.632 176.704 277.125 176.704 276.496C176.704 275.888 176.512 275.387 176.128 274.992C175.744 274.597 175.243 274.4 174.624 274.4C174.261 274.4 173.92 274.48 173.6 274.64C173.291 274.8 173.051 274.992 172.88 275.216L171.2 274.848L171.824 268.8H178.016V270.48H173.424L173.104 273.52C173.392 273.349 173.712 273.216 174.064 273.12C174.427 273.013 174.805 272.96 175.2 272.96C175.84 272.96 176.416 273.109 176.928 273.408C177.44 273.707 177.845 274.117 178.144 274.64C178.443 275.152 178.592 275.744 178.592 276.416C178.592 277.163 178.421 277.819 178.08 278.384C177.749 278.949 177.291 279.392 176.704 279.712C176.117 280.032 175.44 280.192 174.672 280.192ZM180.114 280V278.576C180.114 278.245 180.199 277.904 180.37 277.552C180.541 277.189 180.781 276.827 181.09 276.464C181.41 276.101 181.783 275.76 182.21 275.44L184.162 274.032C184.407 273.861 184.631 273.664 184.834 273.44C185.047 273.216 185.218 272.981 185.346 272.736C185.474 272.48 185.538 272.229 185.538 271.984C185.538 271.675 185.458 271.392 185.298 271.136C185.149 270.88 184.93 270.677 184.642 270.528C184.365 270.379 184.023 270.304 183.618 270.304C183.255 270.304 182.93 270.379 182.642 270.528C182.365 270.667 182.135 270.853 181.954 271.088C181.773 271.323 181.645 271.579 181.57 271.856L179.666 271.504C179.773 270.992 179.997 270.517 180.338 270.08C180.69 269.632 181.138 269.275 181.682 269.008C182.237 268.741 182.866 268.608 183.57 268.608C184.359 268.608 185.042 268.752 185.618 269.04C186.205 269.328 186.653 269.728 186.962 270.24C187.282 270.741 187.442 271.317 187.442 271.968C187.442 272.629 187.261 273.227 186.898 273.76C186.546 274.283 186.05 274.784 185.41 275.264L183.618 276.592C183.266 276.848 182.978 277.125 182.754 277.424C182.53 277.712 182.375 278.021 182.29 278.352H187.586V280H180.114ZM189.815 280L194.775 270.224H196.679L191.863 280H189.815ZM188.967 270.496V268.8H196.679V270.224L194.935 270.496H188.967ZM201.572 280.192C200.964 280.192 200.41 280.101 199.908 279.92C199.407 279.739 198.986 279.483 198.644 279.152C198.303 278.821 198.058 278.448 197.908 278.032L199.572 277.408C199.658 277.557 199.775 277.723 199.924 277.904C200.074 278.085 200.271 278.245 200.516 278.384C200.762 278.512 201.076 278.576 201.46 278.576C202.068 278.576 202.548 278.405 202.9 278.064C203.263 277.712 203.444 277.269 203.444 276.736C203.444 276.352 203.343 276.021 203.14 275.744C202.948 275.467 202.644 275.253 202.228 275.104C201.823 274.955 201.311 274.88 200.692 274.88H200.18V273.568H200.644C201.295 273.568 201.898 273.643 202.452 273.792C203.018 273.941 203.514 274.165 203.94 274.464C204.378 274.752 204.714 275.104 204.948 275.52C205.194 275.936 205.316 276.405 205.316 276.928C205.316 277.6 205.14 278.181 204.788 278.672C204.447 279.163 203.994 279.541 203.428 279.808C202.863 280.064 202.244 280.192 201.572 280.192ZM200.18 274.592V273.344H200.692C201.514 273.344 202.138 273.205 202.564 272.928C202.991 272.651 203.204 272.261 203.204 271.76C203.204 271.472 203.13 271.216 202.98 270.992C202.842 270.757 202.639 270.571 202.372 270.432C202.106 270.293 201.791 270.224 201.428 270.224C201.194 270.224 200.964 270.261 200.74 270.336C200.516 270.411 200.308 270.528 200.116 270.688C199.924 270.848 199.764 271.056 199.636 271.312L198.02 270.72C198.18 270.272 198.436 269.893 198.788 269.584C199.14 269.264 199.551 269.024 200.02 268.864C200.49 268.693 200.98 268.608 201.492 268.608C202.175 268.608 202.783 268.736 203.316 268.992C203.86 269.248 204.287 269.605 204.596 270.064C204.916 270.512 205.076 271.029 205.076 271.616C205.076 272.107 204.954 272.539 204.708 272.912C204.474 273.285 204.148 273.6 203.732 273.856C203.316 274.101 202.842 274.288 202.308 274.416C201.786 274.533 201.226 274.592 200.628 274.592H200.18Z" fill="#3C3C3C"/>
<circle cx="173.256" cy="296.564" r="3.25569" fill="#829477"/>
<g clip-path="url(#clip1_2821_551)">
<path d="M220.125 275.075V277.325H217.875" stroke="#3C3C3C" stroke-linecap="round" stroke-linejoin="round"/>
<path d="M220.125 277.325L217.479 274.679C217.432 274.632 217.377 274.596 217.317 274.57C217.256 274.545 217.191 274.532 217.125 274.532C217.06 274.532 216.995 274.545 216.934 274.57C216.873 274.596 216.818 274.632 216.772 274.679L215.729 275.722C215.682 275.768 215.627 275.805 215.567 275.83C215.506 275.855 215.441 275.868 215.375 275.868C215.31 275.868 215.245 275.855 215.184 275.83C215.123 275.805 215.068 275.768 215.022 275.722L212.625 273.325" stroke="#3C3C3C" stroke-linecap="round" stroke-linejoin="round"/>
</g>
<path opacity="0.8" d="M70.4415 300V293H74.5815V293.77H71.2915V296.03H74.2915V296.79H71.2915V299.23H74.6015V300H70.4415ZM79.3094 300.12C78.6428 300.12 78.0528 299.967 77.5394 299.66C77.0261 299.347 76.6228 298.92 76.3294 298.38C76.0361 297.833 75.8894 297.207 75.8894 296.5C75.8894 295.793 76.0328 295.17 76.3194 294.63C76.6128 294.083 77.0128 293.657 77.5194 293.35C78.0328 293.037 78.6194 292.88 79.2794 292.88C79.6994 292.88 80.1028 292.957 80.4894 293.11C80.8761 293.257 81.2228 293.467 81.5294 293.74C81.8361 294.007 82.0728 294.317 82.2394 294.67L81.5094 295.04C81.3761 294.76 81.1928 294.517 80.9594 294.31C80.7261 294.103 80.4661 293.943 80.1794 293.83C79.8928 293.71 79.5928 293.65 79.2794 293.65C78.7928 293.65 78.3561 293.773 77.9694 294.02C77.5828 294.26 77.2794 294.593 77.0594 295.02C76.8461 295.447 76.7394 295.94 76.7394 296.5C76.7394 297.06 76.8494 297.557 77.0694 297.99C77.2894 298.423 77.5928 298.763 77.9794 299.01C78.3728 299.25 78.8161 299.37 79.3094 299.37C79.6294 299.37 79.9328 299.307 80.2194 299.18C80.5061 299.047 80.7628 298.867 80.9894 298.64C81.2228 298.413 81.4061 298.153 81.5394 297.86L82.2794 298.23C82.1061 298.597 81.8661 298.923 81.5594 299.21C81.2594 299.497 80.9128 299.72 80.5194 299.88C80.1328 300.04 79.7294 300.12 79.3094 300.12ZM85.8065 300.12C85.4198 300.12 85.0765 300.08 84.7765 300C84.4765 299.913 84.2165 299.797 83.9965 299.65C83.7765 299.497 83.5965 299.33 83.4565 299.15C83.3165 298.963 83.2131 298.767 83.1465 298.56L83.9565 298.28C84.0565 298.573 84.2565 298.83 84.5565 299.05C84.8631 299.263 85.2365 299.37 85.6765 299.37C86.2165 299.37 86.6398 299.263 86.9465 299.05C87.2531 298.837 87.4065 298.553 87.4065 298.2C87.4065 297.873 87.2698 297.61 86.9965 297.41C86.7231 297.203 86.3631 297.043 85.9165 296.93L85.1465 296.73C84.8331 296.65 84.5431 296.533 84.2765 296.38C84.0165 296.22 83.8065 296.02 83.6465 295.78C83.4931 295.533 83.4165 295.24 83.4165 294.9C83.4165 294.267 83.6198 293.773 84.0265 293.42C84.4398 293.06 85.0331 292.88 85.8065 292.88C86.2665 292.88 86.6631 292.957 86.9965 293.11C87.3298 293.257 87.5998 293.447 87.8065 293.68C88.0198 293.907 88.1698 294.153 88.2565 294.42L87.4565 294.7C87.3298 294.367 87.1165 294.107 86.8165 293.92C86.5165 293.727 86.1531 293.63 85.7265 293.63C85.2798 293.63 84.9231 293.74 84.6565 293.96C84.3965 294.173 84.2665 294.467 84.2665 294.84C84.2665 295.16 84.3698 295.407 84.5765 295.58C84.7831 295.747 85.0531 295.87 85.3865 295.95L86.1565 296.14C86.8365 296.3 87.3565 296.567 87.7165 296.94C88.0831 297.307 88.2665 297.703 88.2665 298.13C88.2665 298.497 88.1731 298.833 87.9865 299.14C87.7998 299.44 87.5231 299.68 87.1565 299.86C86.7965 300.033 86.3465 300.12 85.8065 300.12Z" fill="#3C3C3C"/>
<path d="M61.416 280.192C60.808 280.192 60.2533 280.101 59.752 279.92C59.2507 279.739 58.8293 279.483 58.488 279.152C58.1467 278.821 57.9013 278.448 57.752 278.032L59.416 277.408C59.5013 277.557 59.6187 277.723 59.768 277.904C59.9173 278.085 60.1147 278.245 60.36 278.384C60.6053 278.512 60.92 278.576 61.304 278.576C61.912 278.576 62.392 278.405 62.744 278.064C63.1067 277.712 63.288 277.269 63.288 276.736C63.288 276.352 63.1867 276.021 62.984 275.744C62.792 275.467 62.488 275.253 62.072 275.104C61.6667 274.955 61.1547 274.88 60.536 274.88H60.024V273.568H60.488C61.1387 273.568 61.7413 273.643 62.296 273.792C62.8613 273.941 63.3573 274.165 63.784 274.464C64.2213 274.752 64.5573 275.104 64.792 275.52C65.0373 275.936 65.16 276.405 65.16 276.928C65.16 277.6 64.984 278.181 64.632 278.672C64.2907 279.163 63.8373 279.541 63.272 279.808C62.7067 280.064 62.088 280.192 61.416 280.192ZM60.024 274.592V273.344H60.536C61.3573 273.344 61.9813 273.205 62.408 272.928C62.8347 272.651 63.048 272.261 63.048 271.76C63.048 271.472 62.9733 271.216 62.824 270.992C62.6853 270.757 62.4827 270.571 62.216 270.432C61.9493 270.293 61.6347 270.224 61.272 270.224C61.0373 270.224 60.808 270.261 60.584 270.336C60.36 270.411 60.152 270.528 59.96 270.688C59.768 270.848 59.608 271.056 59.48 271.312L57.864 270.72C58.024 270.272 58.28 269.893 58.632 269.584C58.984 269.264 59.3947 269.024 59.864 268.864C60.3333 268.693 60.824 268.608 61.336 268.608C62.0187 268.608 62.6267 268.736 63.16 268.992C63.704 269.248 64.1307 269.605 64.44 270.064C64.76 270.512 64.92 271.029 64.92 271.616C64.92 272.107 64.7973 272.539 64.552 272.912C64.3173 273.285 63.992 273.6 63.576 273.856C63.16 274.101 62.6853 274.288 62.152 274.416C61.6293 274.533 61.0693 274.592 60.472 274.592H60.024ZM66.6765 280V278.576C66.6765 278.245 66.7618 277.904 66.9325 277.552C67.1032 277.189 67.3432 276.827 67.6525 276.464C67.9725 276.101 68.3458 275.76 68.7725 275.44L70.7245 274.032C70.9698 273.861 71.1938 273.664 71.3965 273.44C71.6098 273.216 71.7805 272.981 71.9085 272.736C72.0365 272.48 72.1005 272.229 72.1005 271.984C72.1005 271.675 72.0205 271.392 71.8605 271.136C71.7112 270.88 71.4925 270.677 71.2045 270.528C70.9272 270.379 70.5858 270.304 70.1805 270.304C69.8178 270.304 69.4925 270.379 69.2045 270.528C68.9272 270.667 68.6978 270.853 68.5165 271.088C68.3352 271.323 68.2072 271.579 68.1325 271.856L66.2285 271.504C66.3352 270.992 66.5592 270.517 66.9005 270.08C67.2525 269.632 67.7005 269.275 68.2445 269.008C68.7992 268.741 69.4285 268.608 70.1325 268.608C70.9218 268.608 71.6045 268.752 72.1805 269.04C72.7672 269.328 73.2152 269.728 73.5245 270.24C73.8445 270.741 74.0045 271.317 74.0045 271.968C74.0045 272.629 73.8232 273.227 73.4605 273.76C73.1085 274.283 72.6125 274.784 71.9725 275.264L70.1805 276.592C69.8285 276.848 69.5405 277.125 69.3165 277.424C69.0925 277.712 68.9378 278.021 68.8525 278.352H74.1485V280H66.6765ZM79.8491 280.192C78.9851 280.192 78.2438 280.064 77.6251 279.808C77.0065 279.541 76.5318 279.179 76.2011 278.72C75.8705 278.251 75.7051 277.707 75.7051 277.088C75.7051 276.427 75.8705 275.851 76.2011 275.36C76.5318 274.859 77.0065 274.469 77.6251 274.192C78.2438 273.904 78.9851 273.765 79.8491 273.776C80.7131 273.765 81.4545 273.904 82.0731 274.192C82.6918 274.469 83.1665 274.859 83.4971 275.36C83.8385 275.851 84.0091 276.427 84.0091 277.088C84.0091 277.707 83.8385 278.251 83.4971 278.72C83.1665 279.179 82.6918 279.541 82.0731 279.808C81.4545 280.064 80.7131 280.192 79.8491 280.192ZM79.8491 278.624C80.5105 278.624 81.0545 278.459 81.4811 278.128C81.9078 277.797 82.1211 277.376 82.1211 276.864C82.1211 276.32 81.9078 275.877 81.4811 275.536C81.0545 275.195 80.5105 275.024 79.8491 275.024C79.4118 275.024 79.0225 275.099 78.6811 275.248C78.3505 275.397 78.0838 275.616 77.8811 275.904C77.6891 276.181 77.5931 276.501 77.5931 276.864C77.5931 277.205 77.6891 277.509 77.8811 277.776C78.0838 278.043 78.3505 278.251 78.6811 278.4C79.0225 278.549 79.4118 278.624 79.8491 278.624ZM79.8491 274.608C79.0811 274.608 78.4145 274.485 77.8491 274.24C77.2838 273.984 76.8465 273.637 76.5371 273.2C76.2385 272.752 76.0891 272.235 76.0891 271.648C76.0891 271.051 76.2385 270.523 76.5371 270.064C76.8465 269.605 77.2838 269.248 77.8491 268.992C78.4145 268.736 79.0811 268.608 79.8491 268.608C80.6171 268.608 81.2838 268.736 81.8491 268.992C82.4145 269.248 82.8518 269.605 83.1611 270.064C83.4705 270.523 83.6251 271.051 83.6251 271.648C83.6251 272.235 83.4705 272.752 83.1611 273.2C82.8518 273.637 82.4145 273.984 81.8491 274.24C81.2838 274.485 80.6171 274.608 79.8491 274.608ZM79.8491 273.472C80.4145 273.472 80.8785 273.323 81.2411 273.024C81.6145 272.715 81.8011 272.325 81.8011 271.856C81.8011 271.344 81.6145 270.928 81.2411 270.608C80.8785 270.288 80.4145 270.128 79.8491 270.128C79.2838 270.128 78.8198 270.288 78.4571 270.608C78.0945 270.928 77.9131 271.344 77.9131 271.856C77.9131 272.325 78.0945 272.715 78.4571 273.024C78.8198 273.323 79.2838 273.472 79.8491 273.472ZM89.6616 280.192C88.7976 280.192 88.0563 280.064 87.4376 279.808C86.819 279.541 86.3443 279.179 86.0136 278.72C85.683 278.251 85.5176 277.707 85.5176 277.088C85.5176 276.427 85.683 275.851 86.0136 275.36C86.3443 274.859 86.819 274.469 87.4376 274.192C88.0563 273.904 88.7976 273.765 89.6616 273.776C90.5256 273.765 91.267 273.904 91.8856 274.192C92.5043 274.469 92.979 274.859 93.3096 275.36C93.651 275.851 93.8216 276.427 93.8216 277.088C93.8216 277.707 93.651 278.251 93.3096 278.72C92.979 279.179 92.5043 279.541 91.8856 279.808C91.267 280.064 90.5256 280.192 89.6616 280.192ZM89.6616 278.624C90.323 278.624 90.867 278.459 91.2936 278.128C91.7203 277.797 91.9336 277.376 91.9336 276.864C91.9336 276.32 91.7203 275.877 91.2936 275.536C90.867 275.195 90.323 275.024 89.6616 275.024C89.2243 275.024 88.835 275.099 88.4936 275.248C88.163 275.397 87.8963 275.616 87.6936 275.904C87.5016 276.181 87.4056 276.501 87.4056 276.864C87.4056 277.205 87.5016 277.509 87.6936 277.776C87.8963 278.043 88.163 278.251 88.4936 278.4C88.835 278.549 89.2243 278.624 89.6616 278.624ZM89.6616 274.608C88.8936 274.608 88.227 274.485 87.6616 274.24C87.0963 273.984 86.659 273.637 86.3496 273.2C86.051 272.752 85.9016 272.235 85.9016 271.648C85.9016 271.051 86.051 270.523 86.3496 270.064C86.659 269.605 87.0963 269.248 87.6616 268.992C88.227 268.736 88.8936 268.608 89.6616 268.608C90.4296 268.608 91.0963 268.736 91.6616 268.992C92.227 269.248 92.6643 269.605 92.9736 270.064C93.283 270.523 93.4376 271.051 93.4376 271.648C93.4376 272.235 93.283 272.752 92.9736 273.2C92.6643 273.637 92.227 273.984 91.6616 274.24C91.0963 274.485 90.4296 274.608 89.6616 274.608ZM89.6616 273.472C90.227 273.472 90.691 273.323 91.0536 273.024C91.427 272.715 91.6136 272.325 91.6136 271.856C91.6136 271.344 91.427 270.928 91.0536 270.608C90.691 270.288 90.227 270.128 89.6616 270.128C89.0963 270.128 88.6323 270.288 88.2696 270.608C87.907 270.928 87.7256 271.344 87.7256 271.856C87.7256 272.325 87.907 272.715 88.2696 273.024C88.6323 273.323 89.0963 273.472 89.6616 273.472Z" fill="#3C3C3C"/>
<circle cx="60.2557" cy="296.744" r="3.25569" fill="#B63737"/>
<g clip-path="url(#clip2_2821_551)">
<path d="M109.625 275.6V273.125H107.15" stroke="#3C3C3C" stroke-linecap="round" stroke-linejoin="round"/>
<path d="M109.625 273.125L106.714 276.036C106.663 276.087 106.602 276.128 106.536 276.156C106.469 276.183 106.397 276.197 106.325 276.197C106.253 276.197 106.181 276.183 106.114 276.156C106.048 276.128 105.987 276.087 105.936 276.036L104.789 274.889C104.738 274.838 104.677 274.798 104.611 274.77C104.544 274.742 104.472 274.728 104.4 274.728C104.328 274.728 104.256 274.742 104.189 274.77C104.123 274.798 104.062 274.838 104.011 274.889L101.375 277.525" stroke="#3C3C3C" stroke-linecap="round" stroke-linejoin="round"/>
</g>
<path opacity="0.8" d="M293.441 300V293H297.581V293.77H294.291V296.03H297.291V296.79H294.291V299.23H297.601V300H293.441ZM301.599 300.12C301.213 300.12 300.869 300.08 300.569 300C300.269 299.913 300.009 299.797 299.789 299.65C299.569 299.497 299.389 299.33 299.249 299.15C299.109 298.963 299.006 298.767 298.939 298.56L299.749 298.28C299.849 298.573 300.049 298.83 300.349 299.05C300.656 299.263 301.029 299.37 301.469 299.37C302.009 299.37 302.433 299.263 302.739 299.05C303.046 298.837 303.199 298.553 303.199 298.2C303.199 297.873 303.063 297.61 302.789 297.41C302.516 297.203 302.156 297.043 301.709 296.93L300.939 296.73C300.626 296.65 300.336 296.533 300.069 296.38C299.809 296.22 299.599 296.02 299.439 295.78C299.286 295.533 299.209 295.24 299.209 294.9C299.209 294.267 299.413 293.773 299.819 293.42C300.233 293.06 300.826 292.88 301.599 292.88C302.059 292.88 302.456 292.957 302.789 293.11C303.123 293.257 303.393 293.447 303.599 293.68C303.813 293.907 303.963 294.153 304.049 294.42L303.249 294.7C303.123 294.367 302.909 294.107 302.609 293.92C302.309 293.727 301.946 293.63 301.519 293.63C301.073 293.63 300.716 293.74 300.449 293.96C300.189 294.173 300.059 294.467 300.059 294.84C300.059 295.16 300.163 295.407 300.369 295.58C300.576 295.747 300.846 295.87 301.179 295.95L301.949 296.14C302.629 296.3 303.149 296.567 303.509 296.94C303.876 297.307 304.059 297.703 304.059 298.13C304.059 298.497 303.966 298.833 303.779 299.14C303.593 299.44 303.316 299.68 302.949 299.86C302.589 300.033 302.139 300.12 301.599 300.12ZM305.502 300V293H307.782C308.235 293 308.635 293.093 308.982 293.28C309.335 293.467 309.609 293.727 309.802 294.06C310.002 294.393 310.102 294.78 310.102 295.22C310.102 295.647 310.012 296.027 309.832 296.36C309.652 296.693 309.405 296.957 309.092 297.15C308.779 297.337 308.415 297.43 308.002 297.43H306.352V300H305.502ZM306.352 296.66H308.002C308.369 296.66 308.669 296.527 308.902 296.26C309.142 295.987 309.262 295.64 309.262 295.22C309.262 294.787 309.122 294.437 308.842 294.17C308.562 293.903 308.205 293.77 307.772 293.77H306.352V296.66Z" fill="#3C3C3C"/>
<path d="M284.416 280.192C283.808 280.192 283.253 280.101 282.752 279.92C282.251 279.739 281.829 279.483 281.488 279.152C281.147 278.821 280.901 278.448 280.752 278.032L282.416 277.408C282.501 277.557 282.619 277.723 282.768 277.904C282.917 278.085 283.115 278.245 283.36 278.384C283.605 278.512 283.92 278.576 284.304 278.576C284.912 278.576 285.392 278.405 285.744 278.064C286.107 277.712 286.288 277.269 286.288 276.736C286.288 276.352 286.187 276.021 285.984 275.744C285.792 275.467 285.488 275.253 285.072 275.104C284.667 274.955 284.155 274.88 283.536 274.88H283.024V273.568H283.488C284.139 273.568 284.741 273.643 285.296 273.792C285.861 273.941 286.357 274.165 286.784 274.464C287.221 274.752 287.557 275.104 287.792 275.52C288.037 275.936 288.16 276.405 288.16 276.928C288.16 277.6 287.984 278.181 287.632 278.672C287.291 279.163 286.837 279.541 286.272 279.808C285.707 280.064 285.088 280.192 284.416 280.192ZM283.024 274.592V273.344H283.536C284.357 273.344 284.981 273.205 285.408 272.928C285.835 272.651 286.048 272.261 286.048 271.76C286.048 271.472 285.973 271.216 285.824 270.992C285.685 270.757 285.483 270.571 285.216 270.432C284.949 270.293 284.635 270.224 284.272 270.224C284.037 270.224 283.808 270.261 283.584 270.336C283.36 270.411 283.152 270.528 282.96 270.688C282.768 270.848 282.608 271.056 282.48 271.312L280.864 270.72C281.024 270.272 281.28 269.893 281.632 269.584C281.984 269.264 282.395 269.024 282.864 268.864C283.333 268.693 283.824 268.608 284.336 268.608C285.019 268.608 285.627 268.736 286.16 268.992C286.704 269.248 287.131 269.605 287.44 270.064C287.76 270.512 287.92 271.029 287.92 271.616C287.92 272.107 287.797 272.539 287.552 272.912C287.317 273.285 286.992 273.6 286.576 273.856C286.16 274.101 285.685 274.288 285.152 274.416C284.629 274.533 284.069 274.592 283.472 274.592H283.024ZM289.677 280V278.576C289.677 278.245 289.762 277.904 289.933 277.552C290.103 277.189 290.343 276.827 290.653 276.464C290.973 276.101 291.346 275.76 291.773 275.44L293.725 274.032C293.97 273.861 294.194 273.664 294.397 273.44C294.61 273.216 294.781 272.981 294.909 272.736C295.037 272.48 295.101 272.229 295.101 271.984C295.101 271.675 295.021 271.392 294.861 271.136C294.711 270.88 294.493 270.677 294.205 270.528C293.927 270.379 293.586 270.304 293.181 270.304C292.818 270.304 292.493 270.379 292.205 270.528C291.927 270.667 291.698 270.853 291.517 271.088C291.335 271.323 291.207 271.579 291.133 271.856L289.229 271.504C289.335 270.992 289.559 270.517 289.901 270.08C290.253 269.632 290.701 269.275 291.245 269.008C291.799 268.741 292.429 268.608 293.133 268.608C293.922 268.608 294.605 268.752 295.181 269.04C295.767 269.328 296.215 269.728 296.525 270.24C296.845 270.741 297.005 271.317 297.005 271.968C297.005 272.629 296.823 273.227 296.461 273.76C296.109 274.283 295.613 274.784 294.973 275.264L293.181 276.592C292.829 276.848 292.541 277.125 292.317 277.424C292.093 277.712 291.938 278.021 291.853 278.352H297.149V280H289.677ZM302.849 280.192C301.985 280.192 301.244 280.064 300.625 279.808C300.006 279.541 299.532 279.179 299.201 278.72C298.87 278.251 298.705 277.707 298.705 277.088C298.705 276.427 298.87 275.851 299.201 275.36C299.532 274.859 300.006 274.469 300.625 274.192C301.244 273.904 301.985 273.765 302.849 273.776C303.713 273.765 304.454 273.904 305.073 274.192C305.692 274.469 306.166 274.859 306.497 275.36C306.838 275.851 307.009 276.427 307.009 277.088C307.009 277.707 306.838 278.251 306.497 278.72C306.166 279.179 305.692 279.541 305.073 279.808C304.454 280.064 303.713 280.192 302.849 280.192ZM302.849 278.624C303.51 278.624 304.054 278.459 304.481 278.128C304.908 277.797 305.121 277.376 305.121 276.864C305.121 276.32 304.908 275.877 304.481 275.536C304.054 275.195 303.51 275.024 302.849 275.024C302.412 275.024 302.022 275.099 301.681 275.248C301.35 275.397 301.084 275.616 300.881 275.904C300.689 276.181 300.593 276.501 300.593 276.864C300.593 277.205 300.689 277.509 300.881 277.776C301.084 278.043 301.35 278.251 301.681 278.4C302.022 278.549 302.412 278.624 302.849 278.624ZM302.849 274.608C302.081 274.608 301.414 274.485 300.849 274.24C300.284 273.984 299.846 273.637 299.537 273.2C299.238 272.752 299.089 272.235 299.089 271.648C299.089 271.051 299.238 270.523 299.537 270.064C299.846 269.605 300.284 269.248 300.849 268.992C301.414 268.736 302.081 268.608 302.849 268.608C303.617 268.608 304.284 268.736 304.849 268.992C305.414 269.248 305.852 269.605 306.161 270.064C306.47 270.523 306.625 271.051 306.625 271.648C306.625 272.235 306.47 272.752 306.161 273.2C305.852 273.637 305.414 273.984 304.849 274.24C304.284 274.485 303.617 274.608 302.849 274.608ZM302.849 273.472C303.414 273.472 303.878 273.323 304.241 273.024C304.614 272.715 304.801 272.325 304.801 271.856C304.801 271.344 304.614 270.928 304.241 270.608C303.878 270.288 303.414 270.128 302.849 270.128C302.284 270.128 301.82 270.288 301.457 270.608C301.094 270.928 300.913 271.344 300.913 271.856C300.913 272.325 301.094 272.715 301.457 273.024C301.82 273.323 302.284 273.472 302.849 273.472ZM312.662 280.192C311.798 280.192 311.056 280.064 310.438 279.808C309.819 279.541 309.344 279.179 309.014 278.72C308.683 278.251 308.518 277.707 308.518 277.088C308.518 276.427 308.683 275.851 309.014 275.36C309.344 274.859 309.819 274.469 310.438 274.192C311.056 273.904 311.798 273.765 312.662 273.776C313.526 273.765 314.267 273.904 314.886 274.192C315.504 274.469 315.979 274.859 316.31 275.36C316.651 275.851 316.822 276.427 316.822 277.088C316.822 277.707 316.651 278.251 316.31 278.72C315.979 279.179 315.504 279.541 314.886 279.808C314.267 280.064 313.526 280.192 312.662 280.192ZM312.662 278.624C313.323 278.624 313.867 278.459 314.294 278.128C314.72 277.797 314.934 277.376 314.934 276.864C314.934 276.32 314.72 275.877 314.294 275.536C313.867 275.195 313.323 275.024 312.662 275.024C312.224 275.024 311.835 275.099 311.494 275.248C311.163 275.397 310.896 275.616 310.694 275.904C310.502 276.181 310.406 276.501 310.406 276.864C310.406 277.205 310.502 277.509 310.694 277.776C310.896 278.043 311.163 278.251 311.494 278.4C311.835 278.549 312.224 278.624 312.662 278.624ZM312.662 274.608C311.894 274.608 311.227 274.485 310.662 274.24C310.096 273.984 309.659 273.637 309.35 273.2C309.051 272.752 308.902 272.235 308.902 271.648C308.902 271.051 309.051 270.523 309.35 270.064C309.659 269.605 310.096 269.248 310.662 268.992C311.227 268.736 311.894 268.608 312.662 268.608C313.43 268.608 314.096 268.736 314.662 268.992C315.227 269.248 315.664 269.605 315.974 270.064C316.283 270.523 316.438 271.051 316.438 271.648C316.438 272.235 316.283 272.752 315.974 273.2C315.664 273.637 315.227 273.984 314.662 274.24C314.096 274.485 313.43 274.608 312.662 274.608ZM312.662 273.472C313.227 273.472 313.691 273.323 314.054 273.024C314.427 272.715 314.614 272.325 314.614 271.856C314.614 271.344 314.427 270.928 314.054 270.608C313.691 270.288 313.227 270.128 312.662 270.128C312.096 270.128 311.632 270.288 311.27 270.608C310.907 270.928 310.726 271.344 310.726 271.856C310.726 272.325 310.907 272.715 311.27 273.024C311.632 273.323 312.096 273.472 312.662 273.472Z" fill="#3C3C3C"/>
<circle cx="283.256" cy="296.744" r="3.25569" fill="#E59157"/>
<g clip-path="url(#clip3_2821_551)">
<path d="M332.625 275.6V273.125H330.15" stroke="#3C3C3C" stroke-linecap="round" stroke-linejoin="round"/>
<path d="M332.625 273.125L329.714 276.036C329.663 276.087 329.602 276.128 329.536 276.156C329.469 276.183 329.397 276.197 329.325 276.197C329.253 276.197 329.181 276.183 329.114 276.156C329.048 276.128 328.987 276.087 328.936 276.036L327.789 274.889C327.738 274.838 327.677 274.798 327.611 274.77C327.544 274.742 327.472 274.728 327.4 274.728C327.328 274.728 327.256 274.742 327.189 274.77C327.123 274.798 327.062 274.838 327.011 274.889L324.375 277.525" stroke="#3C3C3C" stroke-linecap="round" stroke-linejoin="round"/>
</g>
<path d="M111.947 89.7436C103.224 104.402 98.9234 121.268 99.5621 138.314" stroke="url(#paint0_linear_2821_551)" stroke-width="5" stroke-linecap="round" stroke-linejoin="round"/>
<path d="M259.648 186.95C273.426 167.948 279.091 144.25 275.397 121.071C271.703 97.8921 258.952 77.1298 239.95 63.3518C220.948 49.5739 197.25 43.9088 174.071 47.603C150.892 51.2971 130.13 64.0478 116.352 83.0501" stroke="url(#paint1_linear_2821_551)" stroke-width="5" stroke-linecap="round"/>
<path d="M99.9825 144.228C101.78 161.369 108.542 177.611 119.44 190.963C130.338 204.314 144.898 214.193 161.331 219.386C177.764 224.58 195.356 224.862 211.948 220.198C228.539 215.535 243.408 206.128 254.729 193.134" stroke="url(#paint2_radial_2821_551)" stroke-width="5" stroke-linecap="round"/>
<defs>
<linearGradient id="paint0_linear_2821_551" x1="120.376" y1="80.1961" x2="102" y2="156.69" gradientUnits="userSpaceOnUse">
<stop stop-color="#9E0A0A"/>
<stop offset="1" stop-color="#FFC5C5"/>
</linearGradient>
<linearGradient id="paint1_linear_2821_551" x1="-7.11024" y1="49" x2="265.617" y2="105.113" gradientUnits="userSpaceOnUse">
<stop offset="0.0655167" stop-color="#ABBEA0"/>
<stop offset="0.440012" stop-color="#435539"/>
<stop offset="1" stop-color="#ABBEA0"/>
</linearGradient>
<radialGradient id="paint2_radial_2821_551" cx="0" cy="0" r="1" gradientUnits="userSpaceOnUse" gradientTransform="translate(234.405 203.713) rotate(166.168) scale(72.3085 52.7683)">
<stop stop-color="#D0A88A"/>
<stop offset="0.326667" stop-color="#E6995D"/>
<stop offset="0.576667" stop-color="#E59660"/>
<stop offset="1" stop-color="#E1630C"/>
</radialGradient>
<clipPath id="clip0_2821_551">
<rect width="19" height="19" fill="white" transform="translate(145 117.489)"/>
</clipPath>
<clipPath id="clip1_2821_551">
<rect width="9" height="9" fill="white" transform="translate(211.875 270.825)"/>
</clipPath>
<clipPath id="clip2_2821_551">
<rect width="9" height="9" fill="white" transform="translate(101 270.825)"/>
</clipPath>
<clipPath id="clip3_2821_551">
<rect width="9" height="9" fill="white" transform="translate(324 270.825)"/>
</clipPath>
</defs>
</svg>
