<svg width="1319" height="590" viewBox="0 0 1319 590" fill="none" xmlns="http://www.w3.org/2000/svg">
<line x1="1083.14" y1="278.926" x2="211.502" y2="278.926" stroke="#DCDCDC" stroke-width="2"/>
<path d="M60.5804 255.741V238.941H63.3644V253.197H70.9724V255.741H60.5804ZM78.323 256.029C77.123 256.029 76.051 255.765 75.107 255.237C74.179 254.693 73.451 253.949 72.923 253.005C72.395 252.061 72.131 250.973 72.131 249.741C72.131 248.509 72.387 247.421 72.899 246.477C73.427 245.533 74.155 244.797 75.083 244.269C76.011 243.725 77.075 243.453 78.275 243.453C79.475 243.453 80.539 243.725 81.467 244.269C82.395 244.797 83.115 245.533 83.627 246.477C84.155 247.421 84.419 248.509 84.419 249.741C84.419 250.973 84.163 252.061 83.651 253.005C83.139 253.949 82.419 254.693 81.491 255.237C80.563 255.765 79.507 256.029 78.323 256.029ZM78.323 253.557C78.979 253.557 79.563 253.397 80.075 253.077C80.587 252.741 80.987 252.293 81.275 251.733C81.563 251.157 81.707 250.493 81.707 249.741C81.707 248.989 81.555 248.333 81.251 247.773C80.963 247.197 80.563 246.749 80.051 246.429C79.539 246.093 78.947 245.925 78.275 245.925C77.603 245.925 77.011 246.085 76.499 246.405C75.987 246.725 75.587 247.173 75.299 247.749C75.011 248.325 74.867 248.989 74.867 249.741C74.867 250.493 75.011 251.157 75.299 251.733C75.603 252.293 76.011 252.741 76.523 253.077C77.051 253.397 77.651 253.557 78.323 253.557ZM97.415 255.741L101.423 243.741H104.135L100.055 255.741H97.415ZM89.375 255.741L93.287 243.741H95.663L91.799 255.741H89.375ZM89.135 255.741L85.055 243.741H87.767L91.679 255.741H89.135ZM97.391 255.741L93.551 243.741H95.927L99.839 255.741H97.391ZM110.897 256.029C109.729 256.029 108.689 255.765 107.777 255.237C106.881 254.693 106.169 253.949 105.641 253.005C105.129 252.061 104.873 250.973 104.873 249.741C104.873 248.509 105.137 247.421 105.665 246.477C106.193 245.533 106.913 244.797 107.825 244.269C108.753 243.725 109.809 243.453 110.993 243.453C112.065 243.453 113.033 243.733 113.897 244.293C114.761 244.837 115.441 245.629 115.937 246.669C116.449 247.709 116.705 248.949 116.705 250.389H107.273L107.633 250.053C107.633 250.789 107.793 251.429 108.113 251.973C108.433 252.501 108.857 252.909 109.385 253.197C109.913 253.485 110.497 253.629 111.137 253.629C111.873 253.629 112.481 253.469 112.961 253.149C113.441 252.813 113.817 252.381 114.089 251.853L116.465 252.861C116.129 253.501 115.697 254.061 115.169 254.541C114.657 255.021 114.041 255.389 113.321 255.645C112.617 255.901 111.809 256.029 110.897 256.029ZM107.801 248.661L107.417 248.325H114.185L113.825 248.661C113.825 248.005 113.681 247.469 113.393 247.053C113.105 246.621 112.737 246.301 112.289 246.093C111.857 245.869 111.401 245.757 110.921 245.757C110.441 245.757 109.961 245.869 109.481 246.093C109.001 246.301 108.601 246.621 108.281 247.053C107.961 247.469 107.801 248.005 107.801 248.661ZM120.54 249.357C120.54 248.061 120.788 246.997 121.284 246.165C121.78 245.333 122.42 244.717 123.204 244.317C124.004 243.901 124.836 243.693 125.7 243.693V246.261C124.964 246.261 124.268 246.365 123.612 246.573C122.972 246.765 122.452 247.085 122.052 247.533C121.652 247.981 121.452 248.573 121.452 249.309L120.54 249.357ZM118.764 255.741V243.741H121.452V255.741H118.764ZM29.0032 285.029C27.3072 285.029 25.7952 284.661 24.4672 283.925C23.1552 283.173 22.1232 282.149 21.3712 280.853C20.6192 279.541 20.2432 278.045 20.2432 276.365C20.2432 274.653 20.6192 273.149 21.3712 271.853C22.1232 270.541 23.1552 269.517 24.4672 268.781C25.7952 268.029 27.3072 267.653 29.0032 267.653C29.9792 267.653 30.8912 267.805 31.7392 268.109C32.6032 268.413 33.3792 268.829 34.0672 269.357C34.7552 269.869 35.3152 270.469 35.7472 271.157L33.4912 272.597C33.1872 272.133 32.7952 271.717 32.3152 271.349C31.8352 270.981 31.3072 270.701 30.7312 270.509C30.1712 270.301 29.5952 270.197 29.0032 270.197C27.8512 270.197 26.8272 270.461 25.9312 270.989C25.0512 271.517 24.3552 272.245 23.8432 273.173C23.3312 274.085 23.0752 275.149 23.0752 276.365C23.0752 277.549 23.3232 278.605 23.8192 279.533C24.3312 280.461 25.0352 281.189 25.9312 281.717C26.8432 282.245 27.8912 282.509 29.0752 282.509C30.0032 282.509 30.8352 282.317 31.5712 281.933C32.3072 281.549 32.8832 281.013 33.2992 280.325C33.7312 279.637 33.9472 278.845 33.9472 277.949L36.6112 277.613C36.6112 279.133 36.2832 280.453 35.6272 281.573C34.9872 282.677 34.0912 283.533 32.9392 284.141C31.8032 284.733 30.4912 285.029 29.0032 285.029ZM29.9152 278.165V275.909H36.6112V277.781L35.1232 278.165H29.9152ZM44.1472 285.029C42.9792 285.029 41.9392 284.765 41.0272 284.237C40.1312 283.693 39.4192 282.949 38.8912 282.005C38.3792 281.061 38.1232 279.973 38.1232 278.741C38.1232 277.509 38.3872 276.421 38.9152 275.477C39.4432 274.533 40.1632 273.797 41.0752 273.269C42.0032 272.725 43.0592 272.453 44.2432 272.453C45.3152 272.453 46.2832 272.733 47.1472 273.293C48.0112 273.837 48.6912 274.629 49.1872 275.669C49.6992 276.709 49.9552 277.949 49.9552 279.389H40.5232L40.8832 279.053C40.8832 279.789 41.0432 280.429 41.3632 280.973C41.6832 281.501 42.1072 281.909 42.6352 282.197C43.1632 282.485 43.7472 282.629 44.3872 282.629C45.1232 282.629 45.7312 282.469 46.2112 282.149C46.6912 281.813 47.0672 281.381 47.3392 280.853L49.7152 281.861C49.3792 282.501 48.9472 283.061 48.4192 283.541C47.9072 284.021 47.2912 284.389 46.5712 284.645C45.8672 284.901 45.0592 285.029 44.1472 285.029ZM41.0512 277.661L40.6672 277.325H47.4352L47.0752 277.661C47.0752 277.005 46.9312 276.469 46.6432 276.053C46.3552 275.621 45.9872 275.301 45.5392 275.093C45.1072 274.869 44.6512 274.757 44.1712 274.757C43.6912 274.757 43.2112 274.869 42.7312 275.093C42.2512 275.301 41.8512 275.621 41.5312 276.053C41.2112 276.469 41.0512 277.005 41.0512 277.661ZM57.5339 285.029C56.3339 285.029 55.2619 284.765 54.3179 284.237C53.3899 283.693 52.6619 282.949 52.1339 282.005C51.6059 281.061 51.3419 279.973 51.3419 278.741C51.3419 277.509 51.5979 276.421 52.1099 275.477C52.6379 274.533 53.3659 273.797 54.2939 273.269C55.2219 272.725 56.2859 272.453 57.4859 272.453C58.6859 272.453 59.7499 272.725 60.6779 273.269C61.6059 273.797 62.3259 274.533 62.8379 275.477C63.3659 276.421 63.6299 277.509 63.6299 278.741C63.6299 279.973 63.3739 281.061 62.8619 282.005C62.3499 282.949 61.6299 283.693 60.7019 284.237C59.7739 284.765 58.7179 285.029 57.5339 285.029ZM57.5339 282.557C58.1899 282.557 58.7739 282.397 59.2859 282.077C59.7979 281.741 60.1979 281.293 60.4859 280.733C60.7739 280.157 60.9179 279.493 60.9179 278.741C60.9179 277.989 60.7659 277.333 60.4619 276.773C60.1739 276.197 59.7739 275.749 59.2619 275.429C58.7499 275.093 58.1579 274.925 57.4859 274.925C56.8139 274.925 56.2219 275.085 55.7099 275.405C55.1979 275.725 54.7979 276.173 54.5099 276.749C54.2219 277.325 54.0779 277.989 54.0779 278.741C54.0779 279.493 54.2219 280.157 54.5099 280.733C54.8139 281.293 55.2219 281.741 55.7339 282.077C56.2619 282.397 56.8619 282.557 57.5339 282.557ZM71.1192 289.853C70.2712 289.853 69.5032 289.781 68.8152 289.637C68.1432 289.493 67.5752 289.325 67.1112 289.133C66.6472 288.941 66.2872 288.757 66.0312 288.581L67.0632 286.421C67.2872 286.533 67.5832 286.669 67.9512 286.829C68.3352 287.005 68.7832 287.157 69.2952 287.285C69.8072 287.413 70.3832 287.477 71.0232 287.477C71.7112 287.477 72.3272 287.333 72.8712 287.045C73.4152 286.773 73.8392 286.349 74.1432 285.773C74.4472 285.197 74.5992 284.461 74.5992 283.565V272.741H77.2872V283.493C77.2872 284.853 77.0312 286.005 76.5192 286.949C76.0072 287.909 75.2872 288.629 74.3592 289.109C73.4312 289.605 72.3512 289.853 71.1192 289.853ZM70.7112 284.501C69.6232 284.501 68.6712 284.253 67.8552 283.757C67.0552 283.261 66.4232 282.573 65.9592 281.693C65.5112 280.797 65.2872 279.765 65.2872 278.597C65.2872 277.349 65.5112 276.269 65.9592 275.357C66.4232 274.445 67.0552 273.733 67.8552 273.221C68.6712 272.709 69.6232 272.453 70.7112 272.453C71.6872 272.453 72.5352 272.709 73.2552 273.221C73.9912 273.733 74.5592 274.453 74.9592 275.381C75.3592 276.293 75.5592 277.373 75.5592 278.621C75.5592 279.805 75.3592 280.837 74.9592 281.717C74.5592 282.597 73.9912 283.285 73.2552 283.781C72.5352 284.261 71.6872 284.501 70.7112 284.501ZM71.4552 282.221C72.0632 282.221 72.5912 282.061 73.0392 281.741C73.5032 281.421 73.8632 280.989 74.1192 280.445C74.3752 279.885 74.5032 279.245 74.5032 278.525C74.5032 277.789 74.3752 277.149 74.1192 276.605C73.8632 276.045 73.5032 275.613 73.0392 275.309C72.5752 274.989 72.0392 274.829 71.4312 274.829C70.7912 274.829 70.2232 274.989 69.7272 275.309C69.2472 275.613 68.8632 276.045 68.5752 276.605C68.3032 277.149 68.1672 277.789 68.1672 278.525C68.1672 279.245 68.3032 279.885 68.5752 280.445C68.8632 280.989 69.2552 281.421 69.7512 281.741C70.2472 282.061 70.8152 282.221 71.4552 282.221ZM82.0321 278.357C82.0321 277.061 82.2801 275.997 82.7761 275.165C83.2721 274.333 83.9121 273.717 84.6961 273.317C85.4961 272.901 86.3281 272.693 87.1921 272.693V275.261C86.4561 275.261 85.7601 275.365 85.1041 275.573C84.4641 275.765 83.9441 276.085 83.5441 276.533C83.1441 276.981 82.9441 277.573 82.9441 278.309L82.0321 278.357ZM80.2561 284.741V272.741H82.9441V284.741H80.2561ZM96.2949 284.741L96.1749 282.485V278.573C96.1749 277.757 96.0869 277.077 95.9109 276.533C95.7509 275.973 95.4789 275.549 95.0949 275.261C94.7269 274.957 94.2309 274.805 93.6069 274.805C93.0309 274.805 92.5269 274.925 92.0949 275.165C91.6629 275.405 91.2949 275.781 90.9909 276.293L88.6389 275.429C88.8949 274.901 89.2309 274.413 89.6469 273.965C90.0789 273.501 90.6149 273.133 91.2549 272.861C91.9109 272.589 92.6949 272.453 93.6069 272.453C94.7749 272.453 95.7509 272.685 96.5349 273.149C97.3189 273.597 97.8949 274.245 98.2629 275.093C98.6469 275.941 98.8389 276.965 98.8389 278.165L98.7669 284.741H96.2949ZM92.8389 285.029C91.3989 285.029 90.2789 284.709 89.4789 284.069C88.6949 283.429 88.3029 282.525 88.3029 281.357C88.3029 280.109 88.7189 279.157 89.5509 278.501C90.3989 277.845 91.5749 277.517 93.0789 277.517H96.2949V279.581H93.9429C92.8709 279.581 92.1189 279.733 91.6869 280.037C91.2549 280.325 91.0389 280.741 91.0389 281.285C91.0389 281.749 91.2229 282.117 91.5909 282.389C91.9749 282.645 92.5029 282.773 93.1749 282.773C93.7829 282.773 94.3109 282.637 94.7589 282.365C95.2069 282.093 95.5509 281.733 95.7909 281.285C96.0469 280.837 96.1749 280.333 96.1749 279.773H96.9669C96.9669 281.405 96.6389 282.693 95.9829 283.637C95.3269 284.565 94.2789 285.029 92.8389 285.029ZM101.681 289.541V272.741H104.201L104.369 274.949V289.541H101.681ZM108.161 285.029C107.153 285.029 106.281 284.773 105.545 284.261C104.825 283.733 104.273 282.997 103.889 282.053C103.505 281.109 103.313 280.005 103.313 278.741C103.313 277.461 103.505 276.357 103.889 275.429C104.273 274.485 104.825 273.757 105.545 273.245C106.281 272.717 107.153 272.453 108.161 272.453C109.249 272.453 110.193 272.717 110.993 273.245C111.809 273.757 112.441 274.485 112.889 275.429C113.353 276.357 113.585 277.461 113.585 278.741C113.585 280.005 113.353 281.109 112.889 282.053C112.441 282.997 111.809 283.733 110.993 284.261C110.193 284.773 109.249 285.029 108.161 285.029ZM107.489 282.581C108.129 282.581 108.697 282.421 109.193 282.101C109.689 281.765 110.081 281.309 110.369 280.733C110.673 280.157 110.825 279.493 110.825 278.741C110.825 277.989 110.681 277.325 110.393 276.749C110.121 276.173 109.737 275.725 109.241 275.405C108.745 275.085 108.169 274.925 107.513 274.925C106.905 274.925 106.361 275.085 105.881 275.405C105.401 275.725 105.025 276.173 104.753 276.749C104.497 277.325 104.369 277.989 104.369 278.741C104.369 279.493 104.497 280.157 104.753 280.733C105.025 281.309 105.393 281.765 105.857 282.101C106.337 282.421 106.881 282.581 107.489 282.581ZM115.905 284.741V267.941H118.593V284.741H115.905ZM124.041 284.741V278.597H126.729V284.741H124.041ZM124.041 278.597C124.041 277.637 123.929 276.901 123.705 276.389C123.481 275.861 123.169 275.493 122.769 275.285C122.385 275.077 121.937 274.973 121.425 274.973C120.513 274.957 119.809 275.253 119.313 275.861C118.833 276.469 118.593 277.341 118.593 278.477H117.561C117.561 277.213 117.745 276.133 118.113 275.237C118.497 274.325 119.033 273.637 119.721 273.173C120.409 272.693 121.225 272.453 122.169 272.453C123.113 272.453 123.929 272.645 124.617 273.029C125.305 273.413 125.825 274.013 126.177 274.829C126.545 275.629 126.729 276.677 126.729 277.973V278.597H124.041ZM129.619 284.741V272.741H132.283V284.741H129.619ZM130.963 270.461C130.531 270.461 130.155 270.309 129.835 270.005C129.531 269.685 129.379 269.309 129.379 268.877C129.379 268.445 129.531 268.077 129.835 267.773C130.155 267.469 130.531 267.317 130.963 267.317C131.395 267.317 131.763 267.469 132.067 267.773C132.387 268.077 132.547 268.445 132.547 268.877C132.547 269.309 132.387 269.685 132.067 270.005C131.763 270.309 131.395 270.461 130.963 270.461ZM141.067 285.029C139.835 285.029 138.747 284.765 137.803 284.237C136.859 283.693 136.115 282.949 135.571 282.005C135.043 281.061 134.779 279.973 134.779 278.741C134.779 277.509 135.043 276.421 135.571 275.477C136.115 274.533 136.851 273.797 137.779 273.269C138.723 272.725 139.803 272.453 141.019 272.453C142.203 272.453 143.275 272.741 144.235 273.317C145.195 273.877 145.907 274.685 146.371 275.741L143.875 276.701C143.619 276.173 143.227 275.749 142.699 275.429C142.171 275.109 141.571 274.949 140.899 274.949C140.243 274.949 139.659 275.117 139.147 275.453C138.635 275.773 138.235 276.221 137.947 276.797C137.659 277.357 137.515 278.005 137.515 278.741C137.515 279.477 137.659 280.133 137.947 280.709C138.251 281.269 138.659 281.717 139.171 282.053C139.699 282.373 140.291 282.533 140.947 282.533C141.619 282.533 142.219 282.365 142.747 282.029C143.275 281.677 143.667 281.205 143.923 280.613L146.419 281.573C145.955 282.661 145.243 283.509 144.283 284.117C143.339 284.725 142.267 285.029 141.067 285.029ZM155.826 284.741L155.706 282.485V278.573C155.706 277.757 155.618 277.077 155.442 276.533C155.282 275.973 155.01 275.549 154.626 275.261C154.258 274.957 153.762 274.805 153.138 274.805C152.562 274.805 152.058 274.925 151.626 275.165C151.194 275.405 150.826 275.781 150.522 276.293L148.17 275.429C148.426 274.901 148.762 274.413 149.178 273.965C149.61 273.501 150.146 273.133 150.786 272.861C151.442 272.589 152.226 272.453 153.138 272.453C154.306 272.453 155.282 272.685 156.066 273.149C156.85 273.597 157.426 274.245 157.794 275.093C158.178 275.941 158.37 276.965 158.37 278.165L158.298 284.741H155.826ZM152.37 285.029C150.93 285.029 149.81 284.709 149.01 284.069C148.226 283.429 147.834 282.525 147.834 281.357C147.834 280.109 148.25 279.157 149.082 278.501C149.93 277.845 151.106 277.517 152.61 277.517H155.826V279.581H153.474C152.402 279.581 151.65 279.733 151.218 280.037C150.786 280.325 150.57 280.741 150.57 281.285C150.57 281.749 150.754 282.117 151.122 282.389C151.506 282.645 152.034 282.773 152.706 282.773C153.314 282.773 153.842 282.637 154.29 282.365C154.738 282.093 155.082 281.733 155.322 281.285C155.578 280.837 155.706 280.333 155.706 279.773H156.498C156.498 281.405 156.17 282.693 155.514 283.637C154.858 284.565 153.81 285.029 152.37 285.029ZM161.092 284.741V267.941H163.78V284.741H161.092ZM71.8539 313.741V296.941H77.7819C78.9339 296.941 79.9499 297.165 80.8299 297.613C81.7099 298.061 82.3979 298.685 82.8939 299.485C83.3899 300.269 83.6379 301.181 83.6379 302.221C83.6379 303.261 83.3739 304.181 82.8459 304.981C82.3339 305.781 81.6219 306.413 80.7099 306.877C79.7979 307.325 78.7659 307.549 77.6139 307.549H74.6379V313.741H71.8539ZM81.1659 313.741L77.2299 306.925L79.3899 305.437L84.3099 313.741H81.1659ZM74.6379 304.981H77.9019C78.4459 304.981 78.9259 304.861 79.3419 304.621C79.7739 304.381 80.1179 304.053 80.3739 303.637C80.6459 303.221 80.7819 302.749 80.7819 302.221C80.7819 301.421 80.4939 300.765 79.9179 300.253C79.3419 299.741 78.5979 299.485 77.6859 299.485H74.6379V304.981ZM86.7991 313.741V301.741H89.4631V313.741H86.7991ZM88.1431 299.461C87.7111 299.461 87.3351 299.309 87.0151 299.005C86.7111 298.685 86.5591 298.309 86.5591 297.877C86.5591 297.445 86.7111 297.077 87.0151 296.773C87.3351 296.469 87.7111 296.317 88.1431 296.317C88.5751 296.317 88.9431 296.469 89.2471 296.773C89.5671 297.077 89.7271 297.445 89.7271 297.877C89.7271 298.309 89.5671 298.685 89.2471 299.005C88.9431 299.309 88.5751 299.461 88.1431 299.461ZM96.9991 314.029C96.1991 314.029 95.4631 313.909 94.7911 313.669C94.1191 313.429 93.5431 313.093 93.0631 312.661C92.5831 312.213 92.2151 311.693 91.9591 311.101L94.2871 310.069C94.5271 310.517 94.8791 310.893 95.3431 311.197C95.8231 311.501 96.3511 311.653 96.9271 311.653C97.5511 311.653 98.0471 311.549 98.4151 311.341C98.7991 311.117 98.9911 310.813 98.9911 310.429C98.9911 310.061 98.8471 309.781 98.5591 309.589C98.2711 309.381 97.8631 309.213 97.3351 309.085L96.2071 308.773C95.0711 308.485 94.1831 308.029 93.5431 307.405C92.9031 306.765 92.5831 306.037 92.5831 305.221C92.5831 304.021 92.9671 303.093 93.7351 302.437C94.5191 301.781 95.6391 301.453 97.0951 301.453C97.8311 301.453 98.5031 301.565 99.1111 301.789C99.7351 301.997 100.271 302.301 100.719 302.701C101.167 303.085 101.479 303.541 101.655 304.069L99.4231 305.077C99.2631 304.677 98.9591 304.373 98.5111 304.165C98.0631 303.941 97.5671 303.829 97.0231 303.829C96.4791 303.829 96.0551 303.949 95.7511 304.189C95.4471 304.413 95.2951 304.733 95.2951 305.149C95.2951 305.389 95.4311 305.613 95.7031 305.821C95.9751 306.013 96.3671 306.173 96.8791 306.301L98.2951 306.637C99.0791 306.829 99.7191 307.133 100.215 307.549C100.711 307.949 101.079 308.405 101.319 308.917C101.559 309.413 101.679 309.917 101.679 310.429C101.679 311.149 101.471 311.781 101.055 312.325C100.655 312.869 100.103 313.293 99.3991 313.597C98.6951 313.885 97.8951 314.029 96.9991 314.029ZM106.379 310.381L104.747 308.533L110.987 301.741H114.227L106.379 310.381ZM103.811 313.741V296.941H106.499V313.741H103.811ZM111.443 313.741L107.219 307.525L108.971 305.653L114.635 313.741H111.443Z" fill="#394B3A"/>
<path d="M1208.16 255.741V238.941H1210.94V255.741H1208.16ZM1196.93 255.741V238.941H1199.71V255.741H1196.93ZM1199.11 248.397V245.853H1209.29V248.397H1199.11ZM1214.59 255.741V243.741H1217.25V255.741H1214.59ZM1215.93 241.461C1215.5 241.461 1215.13 241.309 1214.81 241.005C1214.5 240.685 1214.35 240.309 1214.35 239.877C1214.35 239.445 1214.5 239.077 1214.81 238.773C1215.13 238.469 1215.5 238.317 1215.93 238.317C1216.37 238.317 1216.73 238.469 1217.04 238.773C1217.36 239.077 1217.52 239.445 1217.52 239.877C1217.52 240.309 1217.36 240.685 1217.04 241.005C1216.73 241.309 1216.37 241.461 1215.93 241.461ZM1225.58 260.853C1224.73 260.853 1223.97 260.781 1223.28 260.637C1222.61 260.493 1222.04 260.325 1221.57 260.133C1221.11 259.941 1220.75 259.757 1220.49 259.581L1221.53 257.421C1221.75 257.533 1222.05 257.669 1222.41 257.829C1222.8 258.005 1223.25 258.157 1223.76 258.285C1224.27 258.413 1224.85 258.477 1225.49 258.477C1226.17 258.477 1226.79 258.333 1227.33 258.045C1227.88 257.773 1228.3 257.349 1228.61 256.773C1228.91 256.197 1229.06 255.461 1229.06 254.565V243.741H1231.75V254.493C1231.75 255.853 1231.49 257.005 1230.98 257.949C1230.47 258.909 1229.75 259.629 1228.82 260.109C1227.89 260.605 1226.81 260.853 1225.58 260.853ZM1225.17 255.501C1224.09 255.501 1223.13 255.253 1222.32 254.757C1221.52 254.261 1220.89 253.573 1220.42 252.693C1219.97 251.797 1219.75 250.765 1219.75 249.597C1219.75 248.349 1219.97 247.269 1220.42 246.357C1220.89 245.445 1221.52 244.733 1222.32 244.221C1223.13 243.709 1224.09 243.453 1225.17 243.453C1226.15 243.453 1227 243.709 1227.72 244.221C1228.45 244.733 1229.02 245.453 1229.42 246.381C1229.82 247.293 1230.02 248.373 1230.02 249.621C1230.02 250.805 1229.82 251.837 1229.42 252.717C1229.02 253.597 1228.45 254.285 1227.72 254.781C1227 255.261 1226.15 255.501 1225.17 255.501ZM1225.92 253.221C1226.53 253.221 1227.05 253.061 1227.5 252.741C1227.97 252.421 1228.33 251.989 1228.58 251.445C1228.84 250.885 1228.97 250.245 1228.97 249.525C1228.97 248.789 1228.84 248.149 1228.58 247.605C1228.33 247.045 1227.97 246.613 1227.5 246.309C1227.04 245.989 1226.5 245.829 1225.89 245.829C1225.25 245.829 1224.69 245.989 1224.19 246.309C1223.71 246.613 1223.33 247.045 1223.04 247.605C1222.77 248.149 1222.63 248.789 1222.63 249.525C1222.63 250.245 1222.77 250.885 1223.04 251.445C1223.33 251.989 1223.72 252.421 1224.21 252.741C1224.71 253.061 1225.28 253.221 1225.92 253.221ZM1234.74 255.741V238.941H1237.43V255.741H1234.74ZM1242.88 255.741V249.597H1245.57V255.741H1242.88ZM1242.88 249.597C1242.88 248.637 1242.77 247.901 1242.54 247.389C1242.32 246.861 1242.01 246.493 1241.61 246.285C1241.22 246.077 1240.77 245.973 1240.26 245.973C1239.35 245.957 1238.65 246.253 1238.15 246.861C1237.67 247.469 1237.43 248.341 1237.43 249.477H1236.4C1236.4 248.213 1236.58 247.133 1236.95 246.237C1237.33 245.325 1237.87 244.637 1238.56 244.173C1239.25 243.693 1240.06 243.453 1241.01 243.453C1241.95 243.453 1242.77 243.645 1243.45 244.029C1244.14 244.413 1244.66 245.013 1245.01 245.829C1245.38 246.629 1245.57 247.677 1245.57 248.973V249.597H1242.88ZM1253.64 256.029C1252.47 256.029 1251.43 255.765 1250.52 255.237C1249.62 254.693 1248.91 253.949 1248.38 253.005C1247.87 252.061 1247.62 250.973 1247.62 249.741C1247.62 248.509 1247.88 247.421 1248.41 246.477C1248.94 245.533 1249.66 244.797 1250.57 244.269C1251.5 243.725 1252.55 243.453 1253.74 243.453C1254.81 243.453 1255.78 243.733 1256.64 244.293C1257.5 244.837 1258.18 245.629 1258.68 246.669C1259.19 247.709 1259.45 248.949 1259.45 250.389H1250.02L1250.38 250.053C1250.38 250.789 1250.54 251.429 1250.86 251.973C1251.18 252.501 1251.6 252.909 1252.13 253.197C1252.66 253.485 1253.24 253.629 1253.88 253.629C1254.62 253.629 1255.22 253.469 1255.7 253.149C1256.18 252.813 1256.56 252.381 1256.83 251.853L1259.21 252.861C1258.87 253.501 1258.44 254.061 1257.91 254.541C1257.4 255.021 1256.78 255.389 1256.06 255.645C1255.36 255.901 1254.55 256.029 1253.64 256.029ZM1250.54 248.661L1250.16 248.325H1256.93L1256.57 248.661C1256.57 248.005 1256.42 247.469 1256.14 247.053C1255.85 246.621 1255.48 246.301 1255.03 246.093C1254.6 245.869 1254.14 245.757 1253.66 245.757C1253.18 245.757 1252.7 245.869 1252.22 246.093C1251.74 246.301 1251.34 246.621 1251.02 247.053C1250.7 247.469 1250.54 248.005 1250.54 248.661ZM1263.28 249.357C1263.28 248.061 1263.53 246.997 1264.03 246.165C1264.52 245.333 1265.16 244.717 1265.95 244.317C1266.75 243.901 1267.58 243.693 1268.44 243.693V246.261C1267.71 246.261 1267.01 246.365 1266.36 246.573C1265.72 246.765 1265.2 247.085 1264.8 247.533C1264.4 247.981 1264.2 248.573 1264.2 249.309L1263.28 249.357ZM1261.51 255.741V243.741H1264.2V255.741H1261.51ZM1168.55 285.029C1166.85 285.029 1165.34 284.661 1164.01 283.925C1162.7 283.173 1161.67 282.149 1160.92 280.853C1160.16 279.541 1159.79 278.045 1159.79 276.365C1159.79 274.653 1160.16 273.149 1160.92 271.853C1161.67 270.541 1162.7 269.517 1164.01 268.781C1165.34 268.029 1166.85 267.653 1168.55 267.653C1169.52 267.653 1170.44 267.805 1171.28 268.109C1172.15 268.413 1172.92 268.829 1173.61 269.357C1174.3 269.869 1174.86 270.469 1175.29 271.157L1173.04 272.597C1172.73 272.133 1172.34 271.717 1171.86 271.349C1171.38 270.981 1170.85 270.701 1170.28 270.509C1169.72 270.301 1169.14 270.197 1168.55 270.197C1167.4 270.197 1166.37 270.461 1165.48 270.989C1164.6 271.517 1163.9 272.245 1163.39 273.173C1162.88 274.085 1162.62 275.149 1162.62 276.365C1162.62 277.549 1162.87 278.605 1163.36 279.533C1163.88 280.461 1164.58 281.189 1165.48 281.717C1166.39 282.245 1167.44 282.509 1168.62 282.509C1169.55 282.509 1170.38 282.317 1171.12 281.933C1171.85 281.549 1172.43 281.013 1172.84 280.325C1173.28 279.637 1173.49 278.845 1173.49 277.949L1176.16 277.613C1176.16 279.133 1175.83 280.453 1175.17 281.573C1174.53 282.677 1173.64 283.533 1172.48 284.141C1171.35 284.733 1170.04 285.029 1168.55 285.029ZM1169.46 278.165V275.909H1176.16V277.781L1174.67 278.165H1169.46ZM1183.69 285.029C1182.52 285.029 1181.48 284.765 1180.57 284.237C1179.68 283.693 1178.96 282.949 1178.44 282.005C1177.92 281.061 1177.67 279.973 1177.67 278.741C1177.67 277.509 1177.93 276.421 1178.46 275.477C1178.99 274.533 1179.71 273.797 1180.62 273.269C1181.55 272.725 1182.6 272.453 1183.79 272.453C1184.86 272.453 1185.83 272.733 1186.69 273.293C1187.56 273.837 1188.24 274.629 1188.73 275.669C1189.24 276.709 1189.5 277.949 1189.5 279.389H1180.07L1180.43 279.053C1180.43 279.789 1180.59 280.429 1180.91 280.973C1181.23 281.501 1181.65 281.909 1182.18 282.197C1182.71 282.485 1183.29 282.629 1183.93 282.629C1184.67 282.629 1185.28 282.469 1185.76 282.149C1186.24 281.813 1186.61 281.381 1186.88 280.853L1189.26 281.861C1188.92 282.501 1188.49 283.061 1187.96 283.541C1187.45 284.021 1186.84 284.389 1186.12 284.645C1185.41 284.901 1184.6 285.029 1183.69 285.029ZM1180.6 277.661L1180.21 277.325H1186.98L1186.62 277.661C1186.62 277.005 1186.48 276.469 1186.19 276.053C1185.9 275.621 1185.53 275.301 1185.08 275.093C1184.65 274.869 1184.2 274.757 1183.72 274.757C1183.24 274.757 1182.76 274.869 1182.28 275.093C1181.8 275.301 1181.4 275.621 1181.08 276.053C1180.76 276.469 1180.6 277.005 1180.6 277.661ZM1197.08 285.029C1195.88 285.029 1194.81 284.765 1193.86 284.237C1192.93 283.693 1192.21 282.949 1191.68 282.005C1191.15 281.061 1190.89 279.973 1190.89 278.741C1190.89 277.509 1191.14 276.421 1191.65 275.477C1192.18 274.533 1192.91 273.797 1193.84 273.269C1194.77 272.725 1195.83 272.453 1197.03 272.453C1198.23 272.453 1199.29 272.725 1200.22 273.269C1201.15 273.797 1201.87 274.533 1202.38 275.477C1202.91 276.421 1203.17 277.509 1203.17 278.741C1203.17 279.973 1202.92 281.061 1202.41 282.005C1201.89 282.949 1201.17 283.693 1200.25 284.237C1199.32 284.765 1198.26 285.029 1197.08 285.029ZM1197.08 282.557C1197.73 282.557 1198.32 282.397 1198.83 282.077C1199.34 281.741 1199.74 281.293 1200.03 280.733C1200.32 280.157 1200.46 279.493 1200.46 278.741C1200.46 277.989 1200.31 277.333 1200.01 276.773C1199.72 276.197 1199.32 275.749 1198.81 275.429C1198.29 275.093 1197.7 274.925 1197.03 274.925C1196.36 274.925 1195.77 275.085 1195.25 275.405C1194.74 275.725 1194.34 276.173 1194.05 276.749C1193.77 277.325 1193.62 277.989 1193.62 278.741C1193.62 279.493 1193.77 280.157 1194.05 280.733C1194.36 281.293 1194.77 281.741 1195.28 282.077C1195.81 282.397 1196.41 282.557 1197.08 282.557ZM1210.66 289.853C1209.82 289.853 1209.05 289.781 1208.36 289.637C1207.69 289.493 1207.12 289.325 1206.66 289.133C1206.19 288.941 1205.83 288.757 1205.58 288.581L1206.61 286.421C1206.83 286.533 1207.13 286.669 1207.5 286.829C1207.88 287.005 1208.33 287.157 1208.84 287.285C1209.35 287.413 1209.93 287.477 1210.57 287.477C1211.26 287.477 1211.87 287.333 1212.42 287.045C1212.96 286.773 1213.38 286.349 1213.69 285.773C1213.99 285.197 1214.14 284.461 1214.14 283.565V272.741H1216.83V283.493C1216.83 284.853 1216.58 286.005 1216.06 286.949C1215.55 287.909 1214.83 288.629 1213.9 289.109C1212.98 289.605 1211.9 289.853 1210.66 289.853ZM1210.26 284.501C1209.17 284.501 1208.22 284.253 1207.4 283.757C1206.6 283.261 1205.97 282.573 1205.5 281.693C1205.06 280.797 1204.83 279.765 1204.83 278.597C1204.83 277.349 1205.06 276.269 1205.5 275.357C1205.97 274.445 1206.6 273.733 1207.4 273.221C1208.22 272.709 1209.17 272.453 1210.26 272.453C1211.23 272.453 1212.08 272.709 1212.8 273.221C1213.54 273.733 1214.1 274.453 1214.5 275.381C1214.9 276.293 1215.1 277.373 1215.1 278.621C1215.1 279.805 1214.9 280.837 1214.5 281.717C1214.1 282.597 1213.54 283.285 1212.8 283.781C1212.08 284.261 1211.23 284.501 1210.26 284.501ZM1211 282.221C1211.61 282.221 1212.14 282.061 1212.58 281.741C1213.05 281.421 1213.41 280.989 1213.66 280.445C1213.92 279.885 1214.05 279.245 1214.05 278.525C1214.05 277.789 1213.92 277.149 1213.66 276.605C1213.41 276.045 1213.05 275.613 1212.58 275.309C1212.12 274.989 1211.58 274.829 1210.98 274.829C1210.34 274.829 1209.77 274.989 1209.27 275.309C1208.79 275.613 1208.41 276.045 1208.12 276.605C1207.85 277.149 1207.71 277.789 1207.71 278.525C1207.71 279.245 1207.85 279.885 1208.12 280.445C1208.41 280.989 1208.8 281.421 1209.3 281.741C1209.79 282.061 1210.36 282.221 1211 282.221ZM1221.58 278.357C1221.58 277.061 1221.82 275.997 1222.32 275.165C1222.82 274.333 1223.46 273.717 1224.24 273.317C1225.04 272.901 1225.87 272.693 1226.74 272.693V275.261C1226 275.261 1225.3 275.365 1224.65 275.573C1224.01 275.765 1223.49 276.085 1223.09 276.533C1222.69 276.981 1222.49 277.573 1222.49 278.309L1221.58 278.357ZM1219.8 284.741V272.741H1222.49V284.741H1219.8ZM1235.84 284.741L1235.72 282.485V278.573C1235.72 277.757 1235.63 277.077 1235.46 276.533C1235.3 275.973 1235.02 275.549 1234.64 275.261C1234.27 274.957 1233.78 274.805 1233.15 274.805C1232.58 274.805 1232.07 274.925 1231.64 275.165C1231.21 275.405 1230.84 275.781 1230.54 276.293L1228.18 275.429C1228.44 274.901 1228.78 274.413 1229.19 273.965C1229.62 273.501 1230.16 273.133 1230.8 272.861C1231.46 272.589 1232.24 272.453 1233.15 272.453C1234.32 272.453 1235.3 272.685 1236.08 273.149C1236.86 273.597 1237.44 274.245 1237.81 275.093C1238.19 275.941 1238.38 276.965 1238.38 278.165L1238.31 284.741H1235.84ZM1232.38 285.029C1230.94 285.029 1229.82 284.709 1229.02 284.069C1228.24 283.429 1227.85 282.525 1227.85 281.357C1227.85 280.109 1228.26 279.157 1229.1 278.501C1229.94 277.845 1231.12 277.517 1232.62 277.517H1235.84V279.581H1233.49C1232.42 279.581 1231.66 279.733 1231.23 280.037C1230.8 280.325 1230.58 280.741 1230.58 281.285C1230.58 281.749 1230.77 282.117 1231.14 282.389C1231.52 282.645 1232.05 282.773 1232.72 282.773C1233.33 282.773 1233.86 282.637 1234.3 282.365C1234.75 282.093 1235.1 281.733 1235.34 281.285C1235.59 280.837 1235.72 280.333 1235.72 279.773H1236.51C1236.51 281.405 1236.18 282.693 1235.53 283.637C1234.87 284.565 1233.82 285.029 1232.38 285.029ZM1241.23 289.541V272.741H1243.75L1243.91 274.949V289.541H1241.23ZM1247.71 285.029C1246.7 285.029 1245.83 284.773 1245.09 284.261C1244.37 283.733 1243.82 282.997 1243.43 282.053C1243.05 281.109 1242.86 280.005 1242.86 278.741C1242.86 277.461 1243.05 276.357 1243.43 275.429C1243.82 274.485 1244.37 273.757 1245.09 273.245C1245.83 272.717 1246.7 272.453 1247.71 272.453C1248.79 272.453 1249.74 272.717 1250.54 273.245C1251.35 273.757 1251.99 274.485 1252.43 275.429C1252.9 276.357 1253.13 277.461 1253.13 278.741C1253.13 280.005 1252.9 281.109 1252.43 282.053C1251.99 282.997 1251.35 283.733 1250.54 284.261C1249.74 284.773 1248.79 285.029 1247.71 285.029ZM1247.03 282.581C1247.67 282.581 1248.24 282.421 1248.74 282.101C1249.23 281.765 1249.63 281.309 1249.91 280.733C1250.22 280.157 1250.37 279.493 1250.37 278.741C1250.37 277.989 1250.23 277.325 1249.94 276.749C1249.67 276.173 1249.28 275.725 1248.79 275.405C1248.29 275.085 1247.71 274.925 1247.06 274.925C1246.45 274.925 1245.91 275.085 1245.43 275.405C1244.95 275.725 1244.57 276.173 1244.3 276.749C1244.04 277.325 1243.91 277.989 1243.91 278.741C1243.91 279.493 1244.04 280.157 1244.3 280.733C1244.57 281.309 1244.94 281.765 1245.4 282.101C1245.88 282.421 1246.43 282.581 1247.03 282.581ZM1255.45 284.741V267.941H1258.14V284.741H1255.45ZM1263.59 284.741V278.597H1266.27V284.741H1263.59ZM1263.59 278.597C1263.59 277.637 1263.47 276.901 1263.25 276.389C1263.03 275.861 1262.71 275.493 1262.31 275.285C1261.93 275.077 1261.48 274.973 1260.97 274.973C1260.06 274.957 1259.35 275.253 1258.86 275.861C1258.38 276.469 1258.14 277.341 1258.14 278.477H1257.11C1257.11 277.213 1257.29 276.133 1257.66 275.237C1258.04 274.325 1258.58 273.637 1259.27 273.173C1259.95 272.693 1260.77 272.453 1261.71 272.453C1262.66 272.453 1263.47 272.645 1264.16 273.029C1264.85 273.413 1265.37 274.013 1265.72 274.829C1266.09 275.629 1266.27 276.677 1266.27 277.973V278.597H1263.59ZM1269.16 284.741V272.741H1271.83V284.741H1269.16ZM1270.51 270.461C1270.08 270.461 1269.7 270.309 1269.38 270.005C1269.08 269.685 1268.92 269.309 1268.92 268.877C1268.92 268.445 1269.08 268.077 1269.38 267.773C1269.7 267.469 1270.08 267.317 1270.51 267.317C1270.94 267.317 1271.31 267.469 1271.61 267.773C1271.93 268.077 1272.09 268.445 1272.09 268.877C1272.09 269.309 1271.93 269.685 1271.61 270.005C1271.31 270.309 1270.94 270.461 1270.51 270.461ZM1280.61 285.029C1279.38 285.029 1278.29 284.765 1277.35 284.237C1276.4 283.693 1275.66 282.949 1275.12 282.005C1274.59 281.061 1274.32 279.973 1274.32 278.741C1274.32 277.509 1274.59 276.421 1275.12 275.477C1275.66 274.533 1276.4 273.797 1277.32 273.269C1278.27 272.725 1279.35 272.453 1280.56 272.453C1281.75 272.453 1282.82 272.741 1283.78 273.317C1284.74 273.877 1285.45 274.685 1285.92 275.741L1283.42 276.701C1283.16 276.173 1282.77 275.749 1282.24 275.429C1281.72 275.109 1281.12 274.949 1280.44 274.949C1279.79 274.949 1279.2 275.117 1278.69 275.453C1278.18 275.773 1277.78 276.221 1277.49 276.797C1277.2 277.357 1277.06 278.005 1277.06 278.741C1277.06 279.477 1277.2 280.133 1277.49 280.709C1277.8 281.269 1278.2 281.717 1278.72 282.053C1279.24 282.373 1279.84 282.533 1280.49 282.533C1281.16 282.533 1281.76 282.365 1282.29 282.029C1282.82 281.677 1283.21 281.205 1283.47 280.613L1285.96 281.573C1285.5 282.661 1284.79 283.509 1283.83 284.117C1282.88 284.725 1281.81 285.029 1280.61 285.029ZM1295.37 284.741L1295.25 282.485V278.573C1295.25 277.757 1295.16 277.077 1294.99 276.533C1294.83 275.973 1294.55 275.549 1294.17 275.261C1293.8 274.957 1293.31 274.805 1292.68 274.805C1292.11 274.805 1291.6 274.925 1291.17 275.165C1290.74 275.405 1290.37 275.781 1290.07 276.293L1287.71 275.429C1287.97 274.901 1288.31 274.413 1288.72 273.965C1289.15 273.501 1289.69 273.133 1290.33 272.861C1290.99 272.589 1291.77 272.453 1292.68 272.453C1293.85 272.453 1294.83 272.685 1295.61 273.149C1296.39 273.597 1296.97 274.245 1297.34 275.093C1297.72 275.941 1297.91 276.965 1297.91 278.165L1297.84 284.741H1295.37ZM1291.91 285.029C1290.47 285.029 1289.35 284.709 1288.55 284.069C1287.77 283.429 1287.38 282.525 1287.38 281.357C1287.38 280.109 1287.79 279.157 1288.63 278.501C1289.47 277.845 1290.65 277.517 1292.15 277.517H1295.37V279.581H1293.02C1291.95 279.581 1291.19 279.733 1290.76 280.037C1290.33 280.325 1290.11 280.741 1290.11 281.285C1290.11 281.749 1290.3 282.117 1290.67 282.389C1291.05 282.645 1291.58 282.773 1292.25 282.773C1292.86 282.773 1293.39 282.637 1293.83 282.365C1294.28 282.093 1294.63 281.733 1294.87 281.285C1295.12 280.837 1295.25 280.333 1295.25 279.773H1296.04C1296.04 281.405 1295.71 282.693 1295.06 283.637C1294.4 284.565 1293.35 285.029 1291.91 285.029ZM1300.64 284.741V267.941H1303.32V284.741H1300.64ZM1211.4 313.741V296.941H1217.33C1218.48 296.941 1219.49 297.165 1220.37 297.613C1221.25 298.061 1221.94 298.685 1222.44 299.485C1222.93 300.269 1223.18 301.181 1223.18 302.221C1223.18 303.261 1222.92 304.181 1222.39 304.981C1221.88 305.781 1221.17 306.413 1220.25 306.877C1219.34 307.325 1218.31 307.549 1217.16 307.549H1214.18V313.741H1211.4ZM1220.71 313.741L1216.77 306.925L1218.93 305.437L1223.85 313.741H1220.71ZM1214.18 304.981H1217.45C1217.99 304.981 1218.47 304.861 1218.89 304.621C1219.32 304.381 1219.66 304.053 1219.92 303.637C1220.19 303.221 1220.33 302.749 1220.33 302.221C1220.33 301.421 1220.04 300.765 1219.46 300.253C1218.89 299.741 1218.14 299.485 1217.23 299.485H1214.18V304.981ZM1226.34 313.741V301.741H1229.01V313.741H1226.34ZM1227.69 299.461C1227.26 299.461 1226.88 299.309 1226.56 299.005C1226.26 298.685 1226.1 298.309 1226.1 297.877C1226.1 297.445 1226.26 297.077 1226.56 296.773C1226.88 296.469 1227.26 296.317 1227.69 296.317C1228.12 296.317 1228.49 296.469 1228.79 296.773C1229.11 297.077 1229.27 297.445 1229.27 297.877C1229.27 298.309 1229.11 298.685 1228.79 299.005C1228.49 299.309 1228.12 299.461 1227.69 299.461ZM1236.54 314.029C1235.74 314.029 1235.01 313.909 1234.34 313.669C1233.66 313.429 1233.09 313.093 1232.61 312.661C1232.13 312.213 1231.76 311.693 1231.5 311.101L1233.83 310.069C1234.07 310.517 1234.42 310.893 1234.89 311.197C1235.37 311.501 1235.9 311.653 1236.47 311.653C1237.1 311.653 1237.59 311.549 1237.96 311.341C1238.34 311.117 1238.54 310.813 1238.54 310.429C1238.54 310.061 1238.39 309.781 1238.1 309.589C1237.82 309.381 1237.41 309.213 1236.88 309.085L1235.75 308.773C1234.62 308.485 1233.73 308.029 1233.09 307.405C1232.45 306.765 1232.13 306.037 1232.13 305.221C1232.13 304.021 1232.51 303.093 1233.28 302.437C1234.06 301.781 1235.18 301.453 1236.64 301.453C1237.38 301.453 1238.05 301.565 1238.66 301.789C1239.28 301.997 1239.82 302.301 1240.26 302.701C1240.71 303.085 1241.02 303.541 1241.2 304.069L1238.97 305.077C1238.81 304.677 1238.5 304.373 1238.06 304.165C1237.61 303.941 1237.11 303.829 1236.57 303.829C1236.02 303.829 1235.6 303.949 1235.3 304.189C1234.99 304.413 1234.84 304.733 1234.84 305.149C1234.84 305.389 1234.98 305.613 1235.25 305.821C1235.52 306.013 1235.91 306.173 1236.42 306.301L1237.84 306.637C1238.62 306.829 1239.26 307.133 1239.76 307.549C1240.26 307.949 1240.62 308.405 1240.86 308.917C1241.1 309.413 1241.22 309.917 1241.22 310.429C1241.22 311.149 1241.02 311.781 1240.6 312.325C1240.2 312.869 1239.65 313.293 1238.94 313.597C1238.24 313.885 1237.44 314.029 1236.54 314.029ZM1245.92 310.381L1244.29 308.533L1250.53 301.741H1253.77L1245.92 310.381ZM1243.36 313.741V296.941H1246.04V313.741H1243.36ZM1250.99 313.741L1246.76 307.525L1248.52 305.653L1254.18 313.741H1250.99Z" fill="#394B3A"/>
<line x1="661" y1="58.3174" x2="661" y2="539.042" stroke="#DCDCDC" stroke-width="2"/>
<path d="M543.224 23V6.2H546.008V23H543.224ZM531.992 23V6.2H534.776V23H531.992ZM534.176 15.656V13.112H544.352V15.656H534.176ZM549.656 23V11H552.32V23H549.656ZM551 8.72C550.568 8.72 550.192 8.568 549.872 8.264C549.568 7.944 549.416 7.568 549.416 7.136C549.416 6.704 549.568 6.336 549.872 6.032C550.192 5.728 550.568 5.576 551 5.576C551.432 5.576 551.8 5.728 552.104 6.032C552.424 6.336 552.584 6.704 552.584 7.136C552.584 7.568 552.424 7.944 552.104 8.264C551.8 8.568 551.432 8.72 551 8.72ZM560.648 28.112C559.8 28.112 559.032 28.04 558.344 27.896C557.672 27.752 557.104 27.584 556.64 27.392C556.176 27.2 555.816 27.016 555.56 26.84L556.592 24.68C556.816 24.792 557.112 24.928 557.48 25.088C557.864 25.264 558.312 25.416 558.824 25.544C559.336 25.672 559.912 25.736 560.552 25.736C561.24 25.736 561.856 25.592 562.4 25.304C562.944 25.032 563.368 24.608 563.672 24.032C563.976 23.456 564.128 22.72 564.128 21.824V11H566.816V21.752C566.816 23.112 566.56 24.264 566.048 25.208C565.536 26.168 564.816 26.888 563.888 27.368C562.96 27.864 561.88 28.112 560.648 28.112ZM560.24 22.76C559.152 22.76 558.2 22.512 557.384 22.016C556.584 21.52 555.952 20.832 555.488 19.952C555.04 19.056 554.816 18.024 554.816 16.856C554.816 15.608 555.04 14.528 555.488 13.616C555.952 12.704 556.584 11.992 557.384 11.48C558.2 10.968 559.152 10.712 560.24 10.712C561.216 10.712 562.064 10.968 562.784 11.48C563.52 11.992 564.088 12.712 564.488 13.64C564.888 14.552 565.088 15.632 565.088 16.88C565.088 18.064 564.888 19.096 564.488 19.976C564.088 20.856 563.52 21.544 562.784 22.04C562.064 22.52 561.216 22.76 560.24 22.76ZM560.984 20.48C561.592 20.48 562.12 20.32 562.568 20C563.032 19.68 563.392 19.248 563.648 18.704C563.904 18.144 564.032 17.504 564.032 16.784C564.032 16.048 563.904 15.408 563.648 14.864C563.392 14.304 563.032 13.872 562.568 13.568C562.104 13.248 561.568 13.088 560.96 13.088C560.32 13.088 559.752 13.248 559.256 13.568C558.776 13.872 558.392 14.304 558.104 14.864C557.832 15.408 557.696 16.048 557.696 16.784C557.696 17.504 557.832 18.144 558.104 18.704C558.392 19.248 558.784 19.68 559.28 20C559.776 20.32 560.344 20.48 560.984 20.48ZM569.809 23V6.2H572.497V23H569.809ZM577.945 23V16.856H580.633V23H577.945ZM577.945 16.856C577.945 15.896 577.833 15.16 577.609 14.648C577.385 14.12 577.073 13.752 576.673 13.544C576.289 13.336 575.841 13.232 575.329 13.232C574.417 13.216 573.713 13.512 573.217 14.12C572.737 14.728 572.497 15.6 572.497 16.736H571.465C571.465 15.472 571.649 14.392 572.017 13.496C572.401 12.584 572.937 11.896 573.625 11.432C574.313 10.952 575.129 10.712 576.073 10.712C577.017 10.712 577.833 10.904 578.521 11.288C579.209 11.672 579.729 12.272 580.081 13.088C580.449 13.888 580.633 14.936 580.633 16.232V16.856H577.945ZM588.707 23.288C587.539 23.288 586.499 23.024 585.587 22.496C584.691 21.952 583.979 21.208 583.451 20.264C582.939 19.32 582.683 18.232 582.683 17C582.683 15.768 582.947 14.68 583.475 13.736C584.003 12.792 584.723 12.056 585.635 11.528C586.563 10.984 587.619 10.712 588.803 10.712C589.875 10.712 590.843 10.992 591.707 11.552C592.571 12.096 593.251 12.888 593.747 13.928C594.259 14.968 594.515 16.208 594.515 17.648H585.083L585.443 17.312C585.443 18.048 585.603 18.688 585.923 19.232C586.243 19.76 586.667 20.168 587.195 20.456C587.723 20.744 588.307 20.888 588.947 20.888C589.683 20.888 590.291 20.728 590.771 20.408C591.251 20.072 591.627 19.64 591.899 19.112L594.275 20.12C593.939 20.76 593.507 21.32 592.979 21.8C592.467 22.28 591.851 22.648 591.131 22.904C590.427 23.16 589.619 23.288 588.707 23.288ZM585.611 15.92L585.227 15.584H591.995L591.635 15.92C591.635 15.264 591.491 14.728 591.203 14.312C590.915 13.88 590.547 13.56 590.099 13.352C589.667 13.128 589.211 13.016 588.731 13.016C588.251 13.016 587.771 13.128 587.291 13.352C586.811 13.56 586.411 13.88 586.091 14.312C585.771 14.728 585.611 15.264 585.611 15.92ZM598.35 16.616C598.35 15.32 598.598 14.256 599.094 13.424C599.59 12.592 600.23 11.976 601.014 11.576C601.814 11.16 602.646 10.952 603.51 10.952V13.52C602.774 13.52 602.078 13.624 601.422 13.832C600.782 14.024 600.262 14.344 599.862 14.792C599.462 15.24 599.262 15.832 599.262 16.568L598.35 16.616ZM596.574 23V11H599.262V23H596.574ZM611.586 23V6.2H617.13C618.282 6.2 619.274 6.376 620.106 6.728C620.954 7.08 621.61 7.608 622.074 8.312C622.538 9 622.77 9.864 622.77 10.904C622.77 11.624 622.594 12.272 622.242 12.848C621.906 13.424 621.426 13.904 620.802 14.288C621.618 14.688 622.242 15.224 622.674 15.896C623.106 16.568 623.322 17.368 623.322 18.296C623.322 19.288 623.098 20.136 622.65 20.84C622.202 21.544 621.57 22.08 620.754 22.448C619.938 22.816 618.97 23 617.85 23H611.586ZM614.322 20.504H617.634C618.514 20.504 619.21 20.288 619.722 19.856C620.234 19.424 620.49 18.84 620.49 18.104C620.49 17.304 620.202 16.68 619.626 16.232C619.066 15.784 618.274 15.56 617.25 15.56H614.322V20.504ZM614.322 13.256H617.37C618.17 13.256 618.794 13.048 619.242 12.632C619.706 12.2 619.938 11.608 619.938 10.856C619.938 10.088 619.674 9.504 619.146 9.104C618.634 8.688 617.914 8.48 616.986 8.48H614.322V13.256ZM625.945 23V11H628.609V23H625.945ZM627.289 8.72C626.857 8.72 626.481 8.568 626.161 8.264C625.857 7.944 625.705 7.568 625.705 7.136C625.705 6.704 625.857 6.336 626.161 6.032C626.481 5.728 626.857 5.576 627.289 5.576C627.721 5.576 628.089 5.728 628.393 6.032C628.713 6.336 628.873 6.704 628.873 7.136C628.873 7.568 628.713 7.944 628.393 8.264C628.089 8.568 627.721 8.72 627.289 8.72ZM637.297 23.288C636.097 23.288 635.025 23.024 634.081 22.496C633.153 21.952 632.425 21.208 631.897 20.264C631.369 19.32 631.105 18.232 631.105 17C631.105 15.768 631.361 14.68 631.873 13.736C632.401 12.792 633.129 12.056 634.057 11.528C634.985 10.984 636.049 10.712 637.249 10.712C638.449 10.712 639.513 10.984 640.441 11.528C641.369 12.056 642.089 12.792 642.601 13.736C643.129 14.68 643.393 15.768 643.393 17C643.393 18.232 643.137 19.32 642.625 20.264C642.113 21.208 641.393 21.952 640.465 22.496C639.537 23.024 638.481 23.288 637.297 23.288ZM637.297 20.816C637.953 20.816 638.537 20.656 639.049 20.336C639.561 20 639.961 19.552 640.249 18.992C640.537 18.416 640.681 17.752 640.681 17C640.681 16.248 640.529 15.592 640.225 15.032C639.937 14.456 639.537 14.008 639.025 13.688C638.513 13.352 637.921 13.184 637.249 13.184C636.577 13.184 635.985 13.344 635.473 13.664C634.961 13.984 634.561 14.432 634.273 15.008C633.985 15.584 633.841 16.248 633.841 17C633.841 17.752 633.985 18.416 634.273 18.992C634.577 19.552 634.985 20 635.497 20.336C636.025 20.656 636.625 20.816 637.297 20.816ZM654.386 23L654.266 20.768V6.2H656.93V23H654.386ZM650.474 23.288C649.386 23.288 648.434 23.032 647.618 22.52C646.818 21.992 646.186 21.256 645.722 20.312C645.274 19.368 645.05 18.264 645.05 17C645.05 15.72 645.274 14.616 645.722 13.688C646.186 12.744 646.818 12.016 647.618 11.504C648.434 10.976 649.386 10.712 650.474 10.712C651.482 10.712 652.346 10.976 653.066 11.504C653.802 12.016 654.362 12.744 654.746 13.688C655.13 14.616 655.322 15.72 655.322 17C655.322 18.264 655.13 19.368 654.746 20.312C654.362 21.256 653.802 21.992 653.066 22.52C652.346 23.032 651.482 23.288 650.474 23.288ZM651.146 20.84C651.754 20.84 652.29 20.68 652.754 20.36C653.234 20.024 653.602 19.568 653.858 18.992C654.13 18.416 654.266 17.752 654.266 17C654.266 16.248 654.13 15.584 653.858 15.008C653.602 14.432 653.234 13.984 652.754 13.664C652.29 13.344 651.746 13.184 651.122 13.184C650.482 13.184 649.914 13.344 649.418 13.664C648.922 13.984 648.53 14.432 648.242 15.008C647.97 15.584 647.826 16.248 647.81 17C647.826 17.752 647.97 18.416 648.242 18.992C648.53 19.568 648.922 20.024 649.418 20.36C649.93 20.68 650.506 20.84 651.146 20.84ZM660.07 23V11H662.734V23H660.07ZM661.414 8.72C660.982 8.72 660.606 8.568 660.286 8.264C659.982 7.944 659.83 7.568 659.83 7.136C659.83 6.704 659.982 6.336 660.286 6.032C660.606 5.728 660.982 5.576 661.414 5.576C661.846 5.576 662.214 5.728 662.518 6.032C662.838 6.336 662.998 6.704 662.998 7.136C662.998 7.568 662.838 7.944 662.518 8.264C662.214 8.568 661.846 8.72 661.414 8.72ZM669.766 23L674.446 11H677.23L672.286 23H669.766ZM669.574 23L664.606 11H667.366L672.07 23H669.574ZM683.934 23.288C682.766 23.288 681.726 23.024 680.814 22.496C679.918 21.952 679.206 21.208 678.678 20.264C678.166 19.32 677.91 18.232 677.91 17C677.91 15.768 678.174 14.68 678.702 13.736C679.23 12.792 679.95 12.056 680.862 11.528C681.79 10.984 682.846 10.712 684.03 10.712C685.102 10.712 686.07 10.992 686.934 11.552C687.798 12.096 688.478 12.888 688.974 13.928C689.486 14.968 689.742 16.208 689.742 17.648H680.31L680.67 17.312C680.67 18.048 680.83 18.688 681.15 19.232C681.47 19.76 681.894 20.168 682.422 20.456C682.95 20.744 683.534 20.888 684.174 20.888C684.91 20.888 685.518 20.728 685.998 20.408C686.478 20.072 686.854 19.64 687.126 19.112L689.502 20.12C689.166 20.76 688.734 21.32 688.206 21.8C687.694 22.28 687.078 22.648 686.358 22.904C685.654 23.16 684.846 23.288 683.934 23.288ZM680.838 15.92L680.454 15.584H687.222L686.862 15.92C686.862 15.264 686.718 14.728 686.43 14.312C686.142 13.88 685.774 13.56 685.326 13.352C684.894 13.128 684.438 13.016 683.958 13.016C683.478 13.016 682.998 13.128 682.518 13.352C682.038 13.56 681.638 13.88 681.318 14.312C680.998 14.728 680.838 15.264 680.838 15.92ZM693.577 16.616C693.577 15.32 693.825 14.256 694.321 13.424C694.817 12.592 695.457 11.976 696.241 11.576C697.041 11.16 697.873 10.952 698.737 10.952V13.52C698.001 13.52 697.305 13.624 696.648 13.832C696.009 14.024 695.489 14.344 695.089 14.792C694.689 15.24 694.489 15.832 694.489 16.568L693.577 16.616ZM691.801 23V11H694.489V23H691.801ZM704.887 23.288C704.087 23.288 703.351 23.168 702.679 22.928C702.007 22.688 701.431 22.352 700.951 21.92C700.471 21.472 700.103 20.952 699.847 20.36L702.175 19.328C702.415 19.776 702.767 20.152 703.231 20.456C703.711 20.76 704.239 20.912 704.815 20.912C705.439 20.912 705.935 20.808 706.303 20.6C706.687 20.376 706.879 20.072 706.879 19.688C706.879 19.32 706.735 19.04 706.447 18.848C706.159 18.64 705.751 18.472 705.223 18.344L704.095 18.032C702.959 17.744 702.071 17.288 701.431 16.664C700.791 16.024 700.471 15.296 700.471 14.48C700.471 13.28 700.855 12.352 701.623 11.696C702.407 11.04 703.527 10.712 704.983 10.712C705.719 10.712 706.391 10.824 706.999 11.048C707.623 11.256 708.159 11.56 708.607 11.96C709.055 12.344 709.367 12.8 709.543 13.328L707.311 14.336C707.151 13.936 706.847 13.632 706.399 13.424C705.951 13.2 705.455 13.088 704.911 13.088C704.367 13.088 703.943 13.208 703.639 13.448C703.335 13.672 703.183 13.992 703.183 14.408C703.183 14.648 703.319 14.872 703.591 15.08C703.863 15.272 704.255 15.432 704.767 15.56L706.183 15.896C706.967 16.088 707.607 16.392 708.103 16.808C708.599 17.208 708.967 17.664 709.207 18.176C709.447 18.672 709.567 19.176 709.567 19.688C709.567 20.408 709.359 21.04 708.943 21.584C708.543 22.128 707.991 22.552 707.287 22.856C706.583 23.144 705.783 23.288 704.887 23.288ZM711.867 23V11H714.531V23H711.867ZM713.211 8.72C712.779 8.72 712.403 8.568 712.083 8.264C711.779 7.944 711.627 7.568 711.627 7.136C711.627 6.704 711.779 6.336 712.083 6.032C712.403 5.728 712.779 5.576 713.211 5.576C713.643 5.576 714.011 5.728 714.315 6.032C714.635 6.336 714.795 6.704 714.795 7.136C714.795 7.568 714.635 7.944 714.315 8.264C714.011 8.568 713.643 8.72 713.211 8.72ZM722.475 23.288C721.211 23.288 720.243 22.976 719.571 22.352C718.915 21.712 718.587 20.8 718.587 19.616V7.256H721.251V19.112C721.251 19.672 721.379 20.096 721.635 20.384C721.907 20.672 722.299 20.816 722.811 20.816C722.971 20.816 723.147 20.784 723.339 20.72C723.531 20.656 723.747 20.536 723.987 20.36L724.971 22.4C724.555 22.688 724.139 22.904 723.723 23.048C723.307 23.208 722.891 23.288 722.475 23.288ZM716.595 13.304V11H724.491V13.304H716.595ZM729.017 28.088C728.633 28.088 728.201 28.016 727.721 27.872C727.257 27.728 726.809 27.544 726.377 27.32L727.385 25.136C727.689 25.28 727.969 25.392 728.225 25.472C728.481 25.568 728.689 25.616 728.849 25.616C729.233 25.616 729.553 25.512 729.809 25.304C730.081 25.112 730.297 24.824 730.457 24.44L731.873 21.128L735.929 11H738.857L733.289 24.272C732.953 25.04 732.609 25.712 732.257 26.288C731.921 26.864 731.497 27.304 730.985 27.608C730.473 27.928 729.817 28.088 729.017 28.088ZM731.153 23L725.777 11H728.705L732.881 21.104L733.745 23H731.153ZM746.75 23V6.2H752.678C753.83 6.2 754.846 6.424 755.726 6.872C756.606 7.32 757.294 7.944 757.79 8.744C758.286 9.528 758.534 10.44 758.534 11.48C758.534 12.52 758.27 13.44 757.742 14.24C757.23 15.04 756.518 15.672 755.606 16.136C754.694 16.584 753.662 16.808 752.51 16.808H749.534V23H746.75ZM756.062 23L752.126 16.184L754.286 14.696L759.206 23H756.062ZM749.534 14.24H752.798C753.342 14.24 753.822 14.12 754.238 13.88C754.67 13.64 755.014 13.312 755.27 12.896C755.542 12.48 755.678 12.008 755.678 11.48C755.678 10.68 755.39 10.024 754.814 9.512C754.238 9 753.494 8.744 752.582 8.744H749.534V14.24ZM761.695 23V11H764.359V23H761.695ZM763.039 8.72C762.607 8.72 762.231 8.568 761.911 8.264C761.607 7.944 761.455 7.568 761.455 7.136C761.455 6.704 761.607 6.336 761.911 6.032C762.231 5.728 762.607 5.576 763.039 5.576C763.471 5.576 763.839 5.728 764.143 6.032C764.463 6.336 764.623 6.704 764.623 7.136C764.623 7.568 764.463 7.944 764.143 8.264C763.839 8.568 763.471 8.72 763.039 8.72ZM771.895 23.288C771.095 23.288 770.359 23.168 769.687 22.928C769.015 22.688 768.439 22.352 767.959 21.92C767.479 21.472 767.111 20.952 766.855 20.36L769.183 19.328C769.423 19.776 769.775 20.152 770.239 20.456C770.719 20.76 771.247 20.912 771.823 20.912C772.447 20.912 772.943 20.808 773.311 20.6C773.695 20.376 773.887 20.072 773.887 19.688C773.887 19.32 773.743 19.04 773.455 18.848C773.167 18.64 772.759 18.472 772.231 18.344L771.103 18.032C769.967 17.744 769.079 17.288 768.439 16.664C767.799 16.024 767.479 15.296 767.479 14.48C767.479 13.28 767.863 12.352 768.631 11.696C769.415 11.04 770.535 10.712 771.991 10.712C772.727 10.712 773.399 10.824 774.007 11.048C774.631 11.256 775.167 11.56 775.615 11.96C776.063 12.344 776.375 12.8 776.551 13.328L774.319 14.336C774.159 13.936 773.855 13.632 773.407 13.424C772.959 13.2 772.463 13.088 771.919 13.088C771.375 13.088 770.951 13.208 770.647 13.448C770.343 13.672 770.191 13.992 770.191 14.408C770.191 14.648 770.327 14.872 770.599 15.08C770.871 15.272 771.263 15.432 771.775 15.56L773.191 15.896C773.975 16.088 774.615 16.392 775.111 16.808C775.607 17.208 775.975 17.664 776.215 18.176C776.455 18.672 776.575 19.176 776.575 19.688C776.575 20.408 776.367 21.04 775.951 21.584C775.551 22.128 774.999 22.552 774.295 22.856C773.591 23.144 772.791 23.288 771.895 23.288ZM781.275 19.64L779.643 17.792L785.883 11H789.123L781.275 19.64ZM778.707 23V6.2H781.395V23H778.707ZM786.339 23L782.115 16.784L783.867 14.912L789.531 23H786.339Z" fill="#394B3A"/>
<path d="M534.992 583.437V566.637H537.776V580.893H545.384V583.437H534.992ZM552.735 583.725C551.535 583.725 550.463 583.461 549.519 582.933C548.591 582.389 547.863 581.645 547.335 580.701C546.807 579.757 546.543 578.669 546.543 577.437C546.543 576.205 546.799 575.117 547.311 574.173C547.839 573.229 548.567 572.493 549.495 571.965C550.423 571.421 551.487 571.149 552.687 571.149C553.887 571.149 554.951 571.421 555.879 571.965C556.807 572.493 557.527 573.229 558.039 574.173C558.567 575.117 558.831 576.205 558.831 577.437C558.831 578.669 558.575 579.757 558.063 580.701C557.551 581.645 556.831 582.389 555.903 582.933C554.975 583.461 553.919 583.725 552.735 583.725ZM552.735 581.253C553.391 581.253 553.975 581.093 554.487 580.773C554.999 580.437 555.399 579.989 555.687 579.429C555.975 578.853 556.119 578.189 556.119 577.437C556.119 576.685 555.967 576.029 555.663 575.469C555.375 574.893 554.975 574.445 554.463 574.125C553.951 573.789 553.359 573.621 552.687 573.621C552.015 573.621 551.423 573.781 550.911 574.101C550.399 574.421 549.999 574.869 549.711 575.445C549.423 576.021 549.279 576.685 549.279 577.437C549.279 578.189 549.423 578.853 549.711 579.429C550.015 579.989 550.423 580.437 550.935 580.773C551.463 581.093 552.063 581.253 552.735 581.253ZM571.827 583.437L575.835 571.437H578.547L574.467 583.437H571.827ZM563.787 583.437L567.699 571.437H570.075L566.211 583.437H563.787ZM563.547 583.437L559.467 571.437H562.179L566.091 583.437H563.547ZM571.803 583.437L567.963 571.437H570.339L574.251 583.437H571.803ZM585.309 583.725C584.141 583.725 583.101 583.461 582.189 582.933C581.293 582.389 580.581 581.645 580.053 580.701C579.541 579.757 579.285 578.669 579.285 577.437C579.285 576.205 579.549 575.117 580.077 574.173C580.605 573.229 581.325 572.493 582.237 571.965C583.165 571.421 584.221 571.149 585.405 571.149C586.477 571.149 587.445 571.429 588.309 571.989C589.173 572.533 589.853 573.325 590.349 574.365C590.861 575.405 591.117 576.645 591.117 578.085H581.685L582.045 577.749C582.045 578.485 582.205 579.125 582.525 579.669C582.845 580.197 583.269 580.605 583.797 580.893C584.325 581.181 584.909 581.325 585.549 581.325C586.285 581.325 586.893 581.165 587.373 580.845C587.853 580.509 588.229 580.077 588.501 579.549L590.877 580.557C590.541 581.197 590.109 581.757 589.581 582.237C589.069 582.717 588.453 583.085 587.733 583.341C587.029 583.597 586.221 583.725 585.309 583.725ZM582.213 576.357L581.829 576.021H588.597L588.237 576.357C588.237 575.701 588.093 575.165 587.805 574.749C587.517 574.317 587.149 573.997 586.701 573.789C586.269 573.565 585.813 573.453 585.333 573.453C584.853 573.453 584.373 573.565 583.893 573.789C583.413 573.997 583.013 574.317 582.693 574.749C582.373 575.165 582.213 575.701 582.213 576.357ZM594.952 577.053C594.952 575.757 595.2 574.693 595.696 573.861C596.192 573.029 596.832 572.413 597.616 572.013C598.416 571.597 599.248 571.389 600.112 571.389V573.957C599.376 573.957 598.68 574.061 598.023 574.269C597.384 574.461 596.864 574.781 596.464 575.229C596.064 575.677 595.864 576.269 595.864 577.005L594.952 577.053ZM593.176 583.437V571.437H595.864V583.437H593.176ZM608.187 583.437V566.637H613.731C614.883 566.637 615.875 566.813 616.707 567.165C617.555 567.517 618.211 568.045 618.675 568.749C619.139 569.437 619.371 570.301 619.371 571.341C619.371 572.061 619.195 572.709 618.843 573.285C618.507 573.861 618.027 574.341 617.403 574.725C618.219 575.125 618.843 575.661 619.275 576.333C619.707 577.005 619.923 577.805 619.923 578.733C619.923 579.725 619.699 580.573 619.251 581.277C618.803 581.981 618.171 582.517 617.355 582.885C616.539 583.253 615.571 583.437 614.451 583.437H608.187ZM610.923 580.941H614.235C615.115 580.941 615.811 580.725 616.323 580.293C616.835 579.861 617.091 579.277 617.091 578.541C617.091 577.741 616.803 577.117 616.227 576.669C615.667 576.221 614.875 575.997 613.851 575.997H610.923V580.941ZM610.923 573.693H613.971C614.771 573.693 615.395 573.485 615.843 573.069C616.307 572.637 616.539 572.045 616.539 571.293C616.539 570.525 616.275 569.941 615.747 569.541C615.235 569.125 614.515 568.917 613.587 568.917H610.923V573.693ZM622.547 583.437V571.437H625.211V583.437H622.547ZM623.891 569.157C623.459 569.157 623.083 569.005 622.763 568.701C622.459 568.381 622.307 568.005 622.307 567.573C622.307 567.141 622.459 566.773 622.763 566.469C623.083 566.165 623.459 566.013 623.891 566.013C624.323 566.013 624.691 566.165 624.995 566.469C625.315 566.773 625.475 567.141 625.475 567.573C625.475 568.005 625.315 568.381 624.995 568.701C624.691 569.005 624.323 569.157 623.891 569.157ZM633.899 583.725C632.699 583.725 631.627 583.461 630.683 582.933C629.755 582.389 629.027 581.645 628.499 580.701C627.971 579.757 627.707 578.669 627.707 577.437C627.707 576.205 627.963 575.117 628.475 574.173C629.003 573.229 629.731 572.493 630.659 571.965C631.587 571.421 632.651 571.149 633.851 571.149C635.051 571.149 636.115 571.421 637.043 571.965C637.971 572.493 638.691 573.229 639.203 574.173C639.731 575.117 639.995 576.205 639.995 577.437C639.995 578.669 639.739 579.757 639.227 580.701C638.715 581.645 637.995 582.389 637.067 582.933C636.139 583.461 635.083 583.725 633.899 583.725ZM633.899 581.253C634.555 581.253 635.139 581.093 635.651 580.773C636.163 580.437 636.563 579.989 636.851 579.429C637.139 578.853 637.283 578.189 637.283 577.437C637.283 576.685 637.131 576.029 636.827 575.469C636.539 574.893 636.139 574.445 635.627 574.125C635.115 573.789 634.523 573.621 633.851 573.621C633.179 573.621 632.587 573.781 632.075 574.101C631.563 574.421 631.163 574.869 630.875 575.445C630.587 576.021 630.443 576.685 630.443 577.437C630.443 578.189 630.587 578.853 630.875 579.429C631.179 579.989 631.587 580.437 632.099 580.773C632.627 581.093 633.227 581.253 633.899 581.253ZM650.988 583.437L650.868 581.205V566.637H653.532V583.437H650.988ZM647.076 583.725C645.988 583.725 645.036 583.469 644.22 582.957C643.42 582.429 642.788 581.693 642.324 580.749C641.876 579.805 641.652 578.701 641.652 577.437C641.652 576.157 641.876 575.053 642.324 574.125C642.788 573.181 643.42 572.453 644.22 571.941C645.036 571.413 645.988 571.149 647.076 571.149C648.084 571.149 648.948 571.413 649.668 571.941C650.404 572.453 650.964 573.181 651.348 574.125C651.732 575.053 651.924 576.157 651.924 577.437C651.924 578.701 651.732 579.805 651.348 580.749C650.964 581.693 650.404 582.429 649.668 582.957C648.948 583.469 648.084 583.725 647.076 583.725ZM647.748 581.277C648.356 581.277 648.892 581.117 649.356 580.797C649.836 580.461 650.204 580.005 650.46 579.429C650.732 578.853 650.868 578.189 650.868 577.437C650.868 576.685 650.732 576.021 650.46 575.445C650.204 574.869 649.836 574.421 649.356 574.101C648.892 573.781 648.348 573.621 647.724 573.621C647.084 573.621 646.516 573.781 646.02 574.101C645.524 574.421 645.132 574.869 644.844 575.445C644.572 576.021 644.428 576.685 644.412 577.437C644.428 578.189 644.572 578.853 644.844 579.429C645.132 580.005 645.524 580.461 646.02 580.797C646.532 581.117 647.108 581.277 647.748 581.277ZM656.672 583.437V571.437H659.336V583.437H656.672ZM658.016 569.157C657.584 569.157 657.208 569.005 656.888 568.701C656.584 568.381 656.432 568.005 656.432 567.573C656.432 567.141 656.584 566.773 656.888 566.469C657.208 566.165 657.584 566.013 658.016 566.013C658.448 566.013 658.816 566.165 659.12 566.469C659.44 566.773 659.6 567.141 659.6 567.573C659.6 568.005 659.44 568.381 659.12 568.701C658.816 569.005 658.448 569.157 658.016 569.157ZM666.368 583.437L671.048 571.437H673.832L668.888 583.437H666.368ZM666.176 583.437L661.208 571.437H663.968L668.672 583.437H666.176ZM680.535 583.725C679.367 583.725 678.327 583.461 677.415 582.933C676.519 582.389 675.807 581.645 675.279 580.701C674.767 579.757 674.511 578.669 674.511 577.437C674.511 576.205 674.775 575.117 675.303 574.173C675.831 573.229 676.551 572.493 677.463 571.965C678.391 571.421 679.447 571.149 680.631 571.149C681.703 571.149 682.671 571.429 683.535 571.989C684.399 572.533 685.079 573.325 685.575 574.365C686.087 575.405 686.343 576.645 686.343 578.085H676.911L677.271 577.749C677.271 578.485 677.431 579.125 677.751 579.669C678.071 580.197 678.495 580.605 679.023 580.893C679.551 581.181 680.135 581.325 680.775 581.325C681.511 581.325 682.119 581.165 682.599 580.845C683.079 580.509 683.455 580.077 683.727 579.549L686.103 580.557C685.767 581.197 685.335 581.757 684.807 582.237C684.295 582.717 683.679 583.085 682.959 583.341C682.255 583.597 681.447 583.725 680.535 583.725ZM677.439 576.357L677.055 576.021H683.823L683.463 576.357C683.463 575.701 683.319 575.165 683.031 574.749C682.743 574.317 682.375 573.997 681.927 573.789C681.495 573.565 681.039 573.453 680.559 573.453C680.079 573.453 679.599 573.565 679.119 573.789C678.639 573.997 678.239 574.317 677.919 574.749C677.599 575.165 677.439 575.701 677.439 576.357ZM690.178 577.053C690.178 575.757 690.426 574.693 690.922 573.861C691.418 573.029 692.058 572.413 692.842 572.013C693.642 571.597 694.474 571.389 695.338 571.389V573.957C694.602 573.957 693.906 574.061 693.25 574.269C692.61 574.461 692.09 574.781 691.69 575.229C691.29 575.677 691.09 576.269 691.09 577.005L690.178 577.053ZM688.402 583.437V571.437H691.09V583.437H688.402ZM701.489 583.725C700.689 583.725 699.953 583.605 699.281 583.365C698.609 583.125 698.033 582.789 697.553 582.357C697.073 581.909 696.705 581.389 696.449 580.797L698.777 579.765C699.017 580.213 699.369 580.589 699.833 580.893C700.313 581.197 700.841 581.349 701.417 581.349C702.041 581.349 702.537 581.245 702.905 581.037C703.289 580.813 703.481 580.509 703.481 580.125C703.481 579.757 703.337 579.477 703.049 579.285C702.761 579.077 702.353 578.909 701.825 578.781L700.697 578.469C699.561 578.181 698.673 577.725 698.033 577.101C697.393 576.461 697.073 575.733 697.073 574.917C697.073 573.717 697.457 572.789 698.225 572.133C699.009 571.477 700.129 571.149 701.585 571.149C702.321 571.149 702.993 571.261 703.601 571.485C704.225 571.693 704.761 571.997 705.209 572.397C705.657 572.781 705.969 573.237 706.145 573.765L703.913 574.773C703.753 574.373 703.449 574.069 703.001 573.861C702.553 573.637 702.057 573.525 701.513 573.525C700.969 573.525 700.545 573.645 700.241 573.885C699.937 574.109 699.785 574.429 699.785 574.845C699.785 575.085 699.921 575.309 700.193 575.517C700.465 575.709 700.857 575.869 701.369 575.997L702.785 576.333C703.569 576.525 704.209 576.829 704.705 577.245C705.201 577.645 705.569 578.101 705.809 578.613C706.049 579.109 706.169 579.613 706.169 580.125C706.169 580.845 705.961 581.477 705.545 582.021C705.145 582.565 704.593 582.989 703.889 583.293C703.185 583.581 702.385 583.725 701.489 583.725ZM708.469 583.437V571.437H711.133V583.437H708.469ZM709.812 569.157C709.381 569.157 709.005 569.005 708.685 568.701C708.381 568.381 708.229 568.005 708.229 567.573C708.229 567.141 708.381 566.773 708.685 566.469C709.005 566.165 709.381 566.013 709.812 566.013C710.245 566.013 710.613 566.165 710.917 566.469C711.237 566.773 711.397 567.141 711.397 567.573C711.397 568.005 711.237 568.381 710.917 568.701C710.613 569.005 710.245 569.157 709.812 569.157ZM719.077 583.725C717.813 583.725 716.845 583.413 716.173 582.789C715.517 582.149 715.189 581.237 715.189 580.053V567.693H717.853V579.549C717.853 580.109 717.981 580.533 718.237 580.821C718.509 581.109 718.901 581.253 719.413 581.253C719.573 581.253 719.749 581.221 719.941 581.157C720.133 581.093 720.349 580.973 720.589 580.797L721.573 582.837C721.157 583.125 720.741 583.341 720.325 583.485C719.909 583.645 719.493 583.725 719.077 583.725ZM713.197 573.741V571.437H721.093V573.741H713.197ZM725.618 588.525C725.234 588.525 724.802 588.453 724.322 588.309C723.858 588.165 723.41 587.981 722.978 587.757L723.986 585.573C724.29 585.717 724.57 585.829 724.826 585.909C725.082 586.005 725.29 586.053 725.45 586.053C725.834 586.053 726.154 585.949 726.41 585.741C726.682 585.549 726.898 585.261 727.058 584.877L728.474 581.565L732.53 571.437H735.458L729.89 584.709C729.554 585.477 729.21 586.149 728.858 586.725C728.522 587.301 728.098 587.741 727.586 588.045C727.074 588.365 726.418 588.525 725.618 588.525ZM727.754 583.437L722.378 571.437H725.306L729.482 581.541L730.346 583.437H727.754ZM743.351 583.437V566.637H749.279C750.431 566.637 751.447 566.861 752.327 567.309C753.207 567.757 753.895 568.381 754.391 569.181C754.887 569.965 755.135 570.877 755.135 571.917C755.135 572.957 754.871 573.877 754.343 574.677C753.831 575.477 753.119 576.109 752.207 576.573C751.295 577.021 750.263 577.245 749.111 577.245H746.135V583.437H743.351ZM752.663 583.437L748.727 576.621L750.887 575.133L755.807 583.437H752.663ZM746.135 574.677H749.399C749.943 574.677 750.423 574.557 750.839 574.317C751.271 574.077 751.615 573.749 751.871 573.333C752.143 572.917 752.279 572.445 752.279 571.917C752.279 571.117 751.991 570.461 751.415 569.949C750.839 569.437 750.095 569.181 749.183 569.181H746.135V574.677ZM758.297 583.437V571.437H760.961V583.437H758.297ZM759.641 569.157C759.209 569.157 758.833 569.005 758.513 568.701C758.209 568.381 758.057 568.005 758.057 567.573C758.057 567.141 758.209 566.773 758.513 566.469C758.833 566.165 759.209 566.013 759.641 566.013C760.073 566.013 760.441 566.165 760.745 566.469C761.065 566.773 761.225 567.141 761.225 567.573C761.225 568.005 761.065 568.381 760.745 568.701C760.441 569.005 760.073 569.157 759.641 569.157ZM768.497 583.725C767.697 583.725 766.961 583.605 766.289 583.365C765.617 583.125 765.041 582.789 764.561 582.357C764.081 581.909 763.713 581.389 763.457 580.797L765.785 579.765C766.025 580.213 766.377 580.589 766.841 580.893C767.321 581.197 767.849 581.349 768.425 581.349C769.049 581.349 769.545 581.245 769.913 581.037C770.297 580.813 770.489 580.509 770.489 580.125C770.489 579.757 770.345 579.477 770.057 579.285C769.769 579.077 769.361 578.909 768.833 578.781L767.705 578.469C766.569 578.181 765.681 577.725 765.041 577.101C764.401 576.461 764.081 575.733 764.081 574.917C764.081 573.717 764.465 572.789 765.233 572.133C766.017 571.477 767.137 571.149 768.593 571.149C769.329 571.149 770.001 571.261 770.609 571.485C771.233 571.693 771.769 571.997 772.217 572.397C772.665 572.781 772.977 573.237 773.153 573.765L770.921 574.773C770.761 574.373 770.457 574.069 770.009 573.861C769.561 573.637 769.065 573.525 768.521 573.525C767.977 573.525 767.553 573.645 767.249 573.885C766.945 574.109 766.793 574.429 766.793 574.845C766.793 575.085 766.929 575.309 767.201 575.517C767.473 575.709 767.865 575.869 768.377 575.997L769.793 576.333C770.577 576.525 771.217 576.829 771.713 577.245C772.209 577.645 772.577 578.101 772.817 578.613C773.057 579.109 773.177 579.613 773.177 580.125C773.177 580.845 772.969 581.477 772.553 582.021C772.153 582.565 771.601 582.989 770.897 583.293C770.193 583.581 769.393 583.725 768.497 583.725ZM777.876 580.077L776.244 578.229L782.484 571.437H785.724L777.876 580.077ZM775.308 583.437V566.637H777.996V583.437H775.308ZM782.94 583.437L778.716 577.221L780.468 575.349L786.132 583.437H782.94Z" fill="#394B3A"/>
</svg>
