<svg width="977" height="654" viewBox="0 0 977 654" fill="none" xmlns="http://www.w3.org/2000/svg">
<circle cx="45.5569" cy="283.532" r="5.81579" transform="rotate(22.0999 45.5569 283.532)" fill="#FFC000" fill-opacity="0.5"/>
<circle cx="70.4095" cy="281.07" r="5.81579" transform="rotate(22.0999 70.4095 281.07)" fill="#FFC000" fill-opacity="0.5"/>
<circle cx="72.388" cy="232.913" r="5.81579" transform="rotate(22.0999 72.388 232.913)" fill="#FFC000" fill-opacity="0.5"/>
<circle cx="47.7444" cy="278.144" r="5.81579" transform="rotate(22.0999 47.7444 278.144)" fill="#FFC000" fill-opacity="0.5"/>
<circle cx="95.0657" cy="316.189" r="5.81579" transform="rotate(22.0999 95.0657 316.189)" fill="#FFC000" fill-opacity="0.5"/>
<circle cx="104.83" cy="307.6" r="5.81579" transform="rotate(22.0999 104.83 307.6)" fill="#FFC000" fill-opacity="0.5"/>
<circle cx="118.971" cy="288.235" r="5.81579" transform="rotate(22.0999 118.971 288.235)" fill="#FFC000" fill-opacity="0.5"/>
<circle cx="110.382" cy="278.47" r="5.81579" transform="rotate(22.0999 110.382 278.47)" fill="#FFC000" fill-opacity="0.5"/>
<circle cx="112.57" cy="273.081" r="5.81579" transform="rotate(22.0999 112.57 273.081)" fill="#FFC000" fill-opacity="0.5"/>
<circle cx="116.946" cy="262.305" r="5.81579" transform="rotate(22.0999 116.946 262.305)" fill="#FFC000" fill-opacity="0.5"/>
<circle cx="124.523" cy="259.104" r="5.81579" transform="rotate(22.0999 124.523 259.104)" fill="#FFC000" fill-opacity="0.5"/>
<circle cx="144.626" cy="255.969" r="5.81579" transform="rotate(22.0999 144.626 255.969)" fill="#FFC000" fill-opacity="0.5"/>
<circle cx="136.037" cy="246.204" r="5.81579" transform="rotate(22.0999 136.037 246.204)" fill="#FFC000" fill-opacity="0.5"/>
<circle cx="132.837" cy="238.628" r="5.81579" transform="rotate(22.0999 132.837 238.628)" fill="#FFC000" fill-opacity="0.5"/>
<circle cx="129.637" cy="231.051" r="5.81579" transform="rotate(22.0999 129.637 231.051)" fill="#FFC000" fill-opacity="0.5"/>
<circle cx="154.391" cy="247.38" r="5.81579" transform="rotate(22.0999 154.391 247.38)" fill="#FFC000" fill-opacity="0.5"/>
<circle cx="151.191" cy="239.804" r="5.81579" transform="rotate(22.0999 151.191 239.804)" fill="#FFC000" fill-opacity="0.5"/>
<circle cx="153.378" cy="234.415" r="5.81579" transform="rotate(22.0999 153.378 234.415)" fill="#FFC000" fill-opacity="0.5"/>
<circle cx="160.955" cy="231.214" r="5.81579" transform="rotate(22.0999 160.955 231.214)" fill="#FFC000" fill-opacity="0.5"/>
<circle cx="163.143" cy="225.826" r="5.81579" transform="rotate(22.0999 163.143 225.826)" fill="#FFC000" fill-opacity="0.5"/>
<circle cx="165.331" cy="220.437" r="5.81579" transform="rotate(22.0999 165.331 220.437)" fill="#FFC000" fill-opacity="0.5"/>
<circle cx="179.309" cy="232.39" r="5.81579" transform="rotate(22.0999 179.309 232.39)" fill="#FFC000" fill-opacity="0.5"/>
<circle cx="167.356" cy="246.368" r="5.81579" transform="rotate(22.0999 167.356 246.368)" fill="#FFC000" fill-opacity="0.5"/>
<circle cx="185.709" cy="247.543" r="5.81579" transform="rotate(22.0999 185.709 247.543)" fill="#FFC000" fill-opacity="0.5"/>
<circle cx="184.534" cy="265.896" r="5.81579" transform="rotate(22.0999 184.534 265.896)" fill="#FFC000" fill-opacity="0.5"/>
<circle cx="168.368" cy="259.332" r="5.81579" transform="rotate(22.0999 168.368 259.332)" fill="#FFC000" fill-opacity="0.5"/>
<circle cx="158.604" cy="267.921" r="5.81579" transform="rotate(22.0999 158.604 267.921)" fill="#FFC000" fill-opacity="0.5"/>
<circle cx="134.124" cy="281.834" r="5.81579" transform="rotate(22.0999 134.124 281.834)" fill="#FFC000" fill-opacity="0.5"/>
<circle cx="141.263" cy="279.711" r="5.81579" transform="rotate(22.0999 141.263 279.711)" fill="#FFC000" fill-opacity="0.5"/>
<circle cx="144.463" cy="287.287" r="5.81579" transform="rotate(22.0999 144.463 287.287)" fill="#FFC000" fill-opacity="0.5"/>
<circle cx="140.087" cy="298.064" r="5.81579" transform="rotate(22.0999 140.087 298.064)" fill="#FFC000" fill-opacity="0.5"/>
<circle cx="135.711" cy="308.841" r="5.81579" transform="rotate(22.0999 135.711 308.841)" fill="#FFC000" fill-opacity="0.5"/>
<circle cx="131.335" cy="319.619" r="5.81579" transform="rotate(22.0999 131.335 319.619)" fill="#FFC000" fill-opacity="0.5"/>
<circle cx="146.926" cy="312.14" r="5.81579" transform="rotate(22.0999 146.926 312.14)" fill="#FFC000" fill-opacity="0.5"/>
<circle cx="146.763" cy="343.458" r="5.81579" transform="rotate(22.0999 146.763 343.458)" fill="#FFC000" fill-opacity="0.5"/>
<circle cx="169.492" cy="333.857" r="5.81579" transform="rotate(22.0999 169.492 333.857)" fill="#FFC000" fill-opacity="0.5"/>
<circle cx="198.185" cy="340.486" r="5.81579" transform="rotate(22.0999 198.185 340.486)" fill="#FFC000" fill-opacity="0.5"/>
<circle cx="214.854" cy="333.445" r="5.81579" transform="rotate(22.0999 214.854 333.445)" fill="#FFC000" fill-opacity="0.5"/>
<circle cx="201.549" cy="316.744" r="5.81579" transform="rotate(22.0999 201.549 316.744)" fill="#FFC000" fill-opacity="0.5"/>
<circle cx="191.209" cy="311.29" r="5.81579" transform="rotate(22.0999 191.209 311.29)" fill="#FFC000" fill-opacity="0.5"/>
<circle cx="175.044" cy="304.726" r="5.81579" transform="rotate(22.0999 175.044 304.726)" fill="#FFC000" fill-opacity="0.5"/>
<circle cx="177.232" cy="299.338" r="5.81579" transform="rotate(22.0999 177.232 299.338)" fill="#FFC000" fill-opacity="0.5"/>
<circle cx="171.439" cy="291.964" r="5.81579" transform="rotate(22.0999 171.439 291.964)" fill="#FFC000" fill-opacity="0.5"/>
<circle cx="175.815" cy="281.187" r="5.81579" transform="rotate(22.0999 175.815 281.187)" fill="#FFC000" fill-opacity="0.5"/>
<circle cx="165.005" cy="283.075" r="5.81579" transform="rotate(22.0999 165.005 283.075)" fill="#FFC000" fill-opacity="0.5"/>
<circle cx="160.054" cy="279.809" r="5.81579" transform="rotate(22.0999 160.054 279.809)" fill="#FFC000" fill-opacity="0.5"/>
<circle cx="157.428" cy="286.275" r="5.81579" transform="rotate(22.0999 157.428 286.275)" fill="#FFC000" fill-opacity="0.5"/>
<circle cx="159.923" cy="304.864" r="5.81579" transform="rotate(22.0999 159.923 304.864)" fill="#FFC000" fill-opacity="0.5"/>
<circle cx="7.57645" cy="318.326" r="5.81579" transform="rotate(22.0999 7.57645 318.326)" fill="#FFC000" fill-opacity="0.5"/>
<circle cx="82.1985" cy="298.411" r="5.81579" transform="rotate(22.0999 82.1985 298.411)" fill="#FFC000" fill-opacity="0.5"/>
<circle cx="95.1634" cy="297.398" r="5.81579" transform="rotate(22.0999 95.1634 297.398)" fill="#FFC000" fill-opacity="0.5"/>
<circle cx="97.012" cy="274.296" r="5.81579" transform="rotate(22.0999 97.012 274.296)" fill="#FFC000" fill-opacity="0.5"/>
<circle cx="199.575" cy="197.936" r="5.81579" transform="rotate(22.0999 199.575 197.936)" fill="#FFC000" fill-opacity="0.5"/>
<circle cx="209.099" cy="152.843" r="5.81579" transform="rotate(22.0999 209.099 152.843)" fill="#FFC000" fill-opacity="0.5"/>
<circle cx="281.344" cy="216.074" r="5.81579" transform="rotate(22.0999 281.344 216.074)" fill="#FFC000" fill-opacity="0.5"/>
<circle cx="281.481" cy="231.194" r="5.81579" transform="rotate(22.0999 281.481 231.194)" fill="#FFC000" fill-opacity="0.5"/>
<circle cx="306.301" cy="234.995" r="5.81579" transform="rotate(22.0999 306.301 234.995)" fill="#FFC000" fill-opacity="0.5"/>
<circle cx="311.689" cy="237.183" r="5.81579" transform="rotate(22.0999 311.689 237.183)" fill="#FFC000" fill-opacity="0.5"/>
<circle cx="257.001" cy="245.106" r="5.81579" transform="rotate(22.0999 257.001 245.106)" fill="#FFC000" fill-opacity="0.5"/>
<circle cx="252.462" cy="287.202" r="5.81579" transform="rotate(22.0999 252.462 287.202)" fill="#FFC000" fill-opacity="0.5"/>
<circle cx="276.203" cy="290.566" r="5.81579" transform="rotate(22.0999 276.203 290.566)" fill="#FFC000" fill-opacity="0.5"/>
<circle cx="275.029" cy="308.919" r="5.81579" transform="rotate(22.0999 275.029 308.919)" fill="#FFC000" fill-opacity="0.5"/>
<circle cx="263.239" cy="291.578" r="5.81579" transform="rotate(22.0999 263.239 291.578)" fill="#FFC000" fill-opacity="0.5"/>
<circle cx="259.3" cy="301.277" r="5.81579" transform="rotate(22.0999 259.3 301.277)" fill="#FFC000" fill-opacity="0.5"/>
<circle cx="242.698" cy="295.791" r="5.81579" transform="rotate(22.0999 242.698 295.791)" fill="#FFC000" fill-opacity="0.5"/>
<circle cx="231.182" cy="308.691" r="5.81579" transform="rotate(22.0999 231.182 308.691)" fill="#FFC000" fill-opacity="0.5"/>
<circle cx="248.66" cy="312.022" r="5.81579" transform="rotate(22.0999 248.66 312.022)" fill="#FFC000" fill-opacity="0.5"/>
<circle cx="263.075" cy="322.897" r="5.81579" transform="rotate(22.0999 263.075 322.897)" fill="#FFC000" fill-opacity="0.5"/>
<circle cx="244.69" cy="327.985" r="5.81579" transform="rotate(22.0999 244.69 327.985)" fill="#FFC000" fill-opacity="0.5"/>
<circle cx="261.9" cy="341.25" r="5.81579" transform="rotate(22.0999 261.9 341.25)" fill="#FFC000" fill-opacity="0.5"/>
<circle cx="259.039" cy="351.387" r="5.81579" transform="rotate(22.0999 259.039 351.387)" fill="#FFC000" fill-opacity="0.5"/>
<circle cx="270.391" cy="369.806" r="5.81579" transform="rotate(22.0999 270.391 369.806)" fill="#FFC000" fill-opacity="0.5"/>
<circle cx="297.869" cy="360.877" r="5.81579" transform="rotate(22.0999 297.869 360.877)" fill="#FFC000" fill-opacity="0.5"/>
<circle cx="298.509" cy="362.392" r="5.81579" transform="rotate(22.0999 298.509 362.392)" fill="#FFC000" fill-opacity="0.5"/>
<circle cx="275.303" cy="339.16" r="5.81579" transform="rotate(22.0999 275.303 339.16)" fill="#FFC000" fill-opacity="0.5"/>
<circle cx="298.098" cy="317.031" r="5.81579" transform="rotate(22.0999 298.098 317.031)" fill="#FFC000" fill-opacity="0.5"/>
<circle cx="319.312" cy="308.07" r="5.81579" transform="rotate(22.0999 319.312 308.07)" fill="#FFC000" fill-opacity="0.5"/>
<circle cx="313.388" cy="325.751" r="5.81579" transform="rotate(22.0999 313.388 325.751)" fill="#FFC000" fill-opacity="0.5"/>
<circle cx="319.586" cy="338.311" r="5.81579" transform="rotate(22.0999 319.586 338.311)" fill="#FFC000" fill-opacity="0.5"/>
<circle cx="325.242" cy="330.564" r="5.81579" transform="rotate(22.0999 325.242 330.564)" fill="#FFC000" fill-opacity="0.5"/>
<circle cx="348.749" cy="337.599" r="5.81579" transform="rotate(22.0999 348.749 337.599)" fill="#FFC000" fill-opacity="0.5"/>
<circle cx="369.866" cy="347.429" r="5.81579" transform="rotate(22.0999 369.866 347.429)" fill="#FFC000" fill-opacity="0.5"/>
<circle cx="378.957" cy="343.588" r="5.81579" transform="rotate(22.0999 378.957 343.588)" fill="#FFC000" fill-opacity="0.5"/>
<circle cx="391.485" cy="343.653" r="5.81579" transform="rotate(22.0999 391.485 343.653)" fill="#FFC000" fill-opacity="0.5"/>
<circle cx="417.755" cy="359.342" r="5.81579" transform="rotate(22.0999 417.755 359.342)" fill="#FFC000" fill-opacity="0.5"/>
<circle cx="409.727" cy="283.269" r="5.81579" transform="rotate(22.0999 409.727 283.269)" fill="#FFC000" fill-opacity="0.5"/>
<circle cx="403.124" cy="265.523" r="5.81579" transform="rotate(22.0999 403.124 265.523)" fill="#FFC000" fill-opacity="0.5"/>
<circle cx="447.375" cy="270.938" r="5.81579" transform="rotate(22.0999 447.375 270.938)" fill="#FFC000" fill-opacity="0.5"/>
<circle cx="523.82" cy="274.36" r="5.81579" transform="rotate(22.0999 523.82 274.36)" fill="#FFC000" fill-opacity="0.5"/>
<circle cx="456.69" cy="390.216" r="5.81579" transform="rotate(22.0999 456.69 390.216)" fill="#FFC000" fill-opacity="0.5"/>
<circle cx="504.774" cy="364.547" r="5.81579" transform="rotate(22.0999 504.774 364.547)" fill="#FFC000" fill-opacity="0.5"/>
<circle cx="530.783" cy="430.345" r="5.81579" transform="rotate(22.0999 530.783 430.345)" fill="#FFC000" fill-opacity="0.5"/>
<circle cx="601.871" cy="425.316" r="5.81579" transform="rotate(22.0999 601.871 425.316)" fill="#FFC000" fill-opacity="0.5"/>
<circle cx="581.284" cy="355.442" r="5.81579" transform="rotate(22.0999 581.284 355.442)" fill="#FFC000" fill-opacity="0.5"/>
<circle cx="588.861" cy="352.241" r="5.81579" transform="rotate(22.0999 588.861 352.241)" fill="#FFC000" fill-opacity="0.5"/>
<circle cx="607.952" cy="336.141" r="5.81579" transform="rotate(22.0999 607.952 336.141)" fill="#FFC000" fill-opacity="0.5"/>
<circle cx="618.592" cy="325.396" r="5.81579" transform="rotate(22.0999 618.592 325.396)" fill="#FFC000" fill-opacity="0.5"/>
<circle cx="642.96" cy="249.925" r="5.81579" transform="rotate(22.0999 642.96 249.925)" fill="#FFC000" fill-opacity="0.5"/>
<circle cx="638.056" cy="320.746" r="5.81579" transform="rotate(22.0999 638.056 320.746)" fill="#FFC000" fill-opacity="0.5"/>
<circle cx="641.256" cy="328.323" r="5.81579" transform="rotate(22.0999 641.256 328.323)" fill="#FFC000" fill-opacity="0.5"/>
<circle cx="654.221" cy="327.31" r="5.81579" transform="rotate(22.0999 654.221 327.31)" fill="#FFC000" fill-opacity="0.5"/>
<circle cx="642.269" cy="341.287" r="5.81579" transform="rotate(22.0999 642.269 341.287)" fill="#FFC000" fill-opacity="0.5"/>
<circle cx="649.983" cy="353.207" r="5.81579" transform="rotate(22.0999 649.983 353.207)" fill="#FFC000" fill-opacity="0.5"/>
<circle cx="646.044" cy="362.907" r="5.81579" transform="rotate(22.0999 646.044 362.907)" fill="#FFC000" fill-opacity="0.5"/>
<circle cx="627.691" cy="361.731" r="5.81579" transform="rotate(22.0999 627.691 361.731)" fill="#FFC000" fill-opacity="0.5"/>
<circle cx="613.616" cy="368.57" r="5.81579" transform="rotate(22.0999 613.616 368.57)" fill="#FFC000" fill-opacity="0.5"/>
<circle cx="623.014" cy="388.706" r="5.81579" transform="rotate(22.0999 623.014 388.706)" fill="#FFC000" fill-opacity="0.5"/>
<circle cx="641.603" cy="386.211" r="5.81579" transform="rotate(22.0999 641.603 386.211)" fill="#FFC000" fill-opacity="0.5"/>
<circle cx="662.144" cy="381.998" r="5.81579" transform="rotate(22.0999 662.144 381.998)" fill="#FFC000" fill-opacity="0.5"/>
<circle cx="673.659" cy="369.099" r="5.81579" transform="rotate(22.0999 673.659 369.099)" fill="#FFC000" fill-opacity="0.5"/>
<circle cx="660.119" cy="356.068" r="5.81579" transform="rotate(22.0999 660.119 356.068)" fill="#FFC000" fill-opacity="0.5"/>
<circle cx="665.574" cy="345.729" r="5.81579" transform="rotate(22.0999 665.574 345.729)" fill="#FFC000" fill-opacity="0.5"/>
<circle cx="689.086" cy="392.938" r="5.81579" transform="rotate(22.0999 689.086 392.938)" fill="#FFC000" fill-opacity="0.5"/>
<circle cx="702.052" cy="391.926" r="5.81579" transform="rotate(22.0999 702.052 391.926)" fill="#FFC000" fill-opacity="0.5"/>
<circle cx="723.54" cy="413.205" r="5.81579" transform="rotate(22.0999 723.54 413.205)" fill="#FFC000" fill-opacity="0.5"/>
<circle cx="775.035" cy="437.881" r="5.81579" transform="rotate(22.0999 775.035 437.881)" fill="#FFC000" fill-opacity="0.5"/>
<circle cx="769.947" cy="419.495" r="5.81579" transform="rotate(22.0999 769.947 419.495)" fill="#FFC000" fill-opacity="0.5"/>
<circle cx="956.572" cy="377.268" r="5.81579" transform="rotate(22.0999 956.572 377.268)" fill="#FFC000" fill-opacity="0.5"/>
<circle cx="779.072" cy="409.391" r="5.81579" transform="rotate(22.0999 779.072 409.391)" fill="#FFC000" fill-opacity="0.5"/>
<circle cx="754.52" cy="395.655" r="5.81579" transform="rotate(22.0999 754.52 395.655)" fill="#FFC000" fill-opacity="0.5"/>
<circle cx="741.619" cy="384.141" r="5.81579" transform="rotate(22.0999 741.619 384.141)" fill="#FFC000" fill-opacity="0.5"/>
<circle cx="724.206" cy="368.282" r="5.81579" transform="rotate(22.0999 724.206 368.282)" fill="#FFC000" fill-opacity="0.5"/>
<circle cx="732.894" cy="359.255" r="5.81579" transform="rotate(22.0999 732.894 359.255)" fill="#FFC000" fill-opacity="0.5"/>
<circle cx="719.993" cy="347.741" r="5.81579" transform="rotate(22.0999 719.993 347.741)" fill="#FFC000" fill-opacity="0.5"/>
<circle cx="729.758" cy="339.151" r="5.81579" transform="rotate(22.0999 729.758 339.151)" fill="#FFC000" fill-opacity="0.5"/>
<circle cx="689.851" cy="329.224" r="5.81579" transform="rotate(22.0999 689.851 329.224)" fill="#FFC000" fill-opacity="0.5"/>
<circle cx="723.357" cy="323.998" r="5.81579" transform="rotate(22.0999 723.357 323.998)" fill="#FFC000" fill-opacity="0.5"/>
<circle cx="729.484" cy="308.911" r="5.81579" transform="rotate(22.0999 729.484 308.911)" fill="#FFC000" fill-opacity="0.5"/>
<circle cx="638.252" cy="283.164" r="11.6316" transform="rotate(22.0999 638.252 283.164)" fill="#FFC000" fill-opacity="0.5"/>
<circle cx="768.339" cy="271.962" r="11.6316" transform="rotate(22.0999 768.339 271.962)" fill="#FFC000" fill-opacity="0.5"/>
<circle cx="766.458" cy="301.327" r="26.7526" transform="rotate(22.0999 766.458 301.327)" fill="#FFC000" fill-opacity="0.5"/>
<circle cx="808.097" cy="393.559" r="26.7526" transform="rotate(22.0999 808.097 393.559)" fill="#FFC000" fill-opacity="0.5"/>
<circle cx="843.249" cy="362.638" r="20.9368" transform="rotate(22.0999 843.249 362.638)" fill="#FFC000" fill-opacity="0.5"/>
<circle cx="212.652" cy="258.483" r="5.81579" transform="rotate(22.0999 212.652 258.483)" fill="#FFC000" fill-opacity="0.5"/>
<circle cx="205.075" cy="261.683" r="5.81579" transform="rotate(22.0999 205.075 261.683)" fill="#FFC000" fill-opacity="0.5"/>
<circle cx="201.339" cy="273.976" r="5.81579" transform="rotate(22.0999 201.339 273.976)" fill="#FFC000" fill-opacity="0.5"/>
<circle cx="219.491" cy="272.558" r="5.81579" transform="rotate(22.0999 219.491 272.558)" fill="#FFC000" fill-opacity="0.5"/>
<circle cx="228.315" cy="278.652" r="5.81579" transform="rotate(22.0999 228.315 278.652)" fill="#FFC000" fill-opacity="0.5"/>
<circle cx="216.767" cy="297.816" r="5.81579" transform="rotate(22.0999 216.767 297.816)" fill="#FFC000" fill-opacity="0.5"/>
<circle cx="196.526" cy="285.83" r="5.81579" transform="rotate(22.0999 196.526 285.83)" fill="#FFC000" fill-opacity="0.5"/>
<circle cx="186.121" cy="292.904" r="5.81579" transform="rotate(22.0999 186.121 292.904)" fill="#FFC000" fill-opacity="0.5"/>
<circle cx="200.974" cy="302.702" r="5.81579" transform="rotate(22.0999 200.974 302.702)" fill="#FFC000" fill-opacity="0.5"/>
<circle cx="379.206" cy="316.698" r="8.72368" transform="rotate(22.0999 379.206 316.698)" fill="#FFC000" fill-opacity="0.5"/>
<circle cx="353.269" cy="278.547" r="12.2132" transform="rotate(22.0999 353.269 278.547)" fill="#FFC000" fill-opacity="0.5"/>
<circle cx="347.548" cy="298.821" r="21.5184" transform="rotate(22.0999 347.548 298.821)" fill="#FFC000" fill-opacity="0.5"/>
<circle cx="234.761" cy="264.322" r="27.3342" transform="rotate(22.0999 234.761 264.322)" fill="#FFC000" fill-opacity="0.5"/>
<circle cx="518.458" cy="329.303" r="15.7026" transform="rotate(22.0999 518.458 329.303)" fill="#FFC000" fill-opacity="0.5"/>
</svg>
