<svg width="964" height="442" viewBox="0 0 964 442" fill="none" xmlns="http://www.w3.org/2000/svg">
<circle cx="27.9154" cy="389.658" r="5.81579" fill="#4472C4" fill-opacity="0.5"/>
<circle cx="50.016" cy="378.026" r="5.81579" fill="#4472C4" fill-opacity="0.5"/>
<circle cx="33.7318" cy="332.663" r="5.81579" fill="#4472C4" fill-opacity="0.5"/>
<circle cx="27.9154" cy="383.842" r="5.81579" fill="#4472C4" fill-opacity="0.5"/>
<circle cx="86.0736" cy="401.289" r="5.81579" fill="#4472C4" fill-opacity="0.5"/>
<circle cx="91.889" cy="389.658" r="5.81579" fill="#4472C4" fill-opacity="0.5"/>
<circle cx="97.7054" cy="366.395" r="5.81579" fill="#4472C4" fill-opacity="0.5"/>
<circle cx="86.0736" cy="360.579" r="5.81579" fill="#4472C4" fill-opacity="0.5"/>
<circle cx="86.0736" cy="354.763" r="5.81579" fill="#4472C4" fill-opacity="0.5"/>
<circle cx="86.0736" cy="343.132" r="5.81579" fill="#4472C4" fill-opacity="0.5"/>
<circle cx="91.889" cy="337.316" r="5.81579" fill="#4472C4" fill-opacity="0.5"/>
<circle cx="109.337" cy="326.848" r="5.81579" fill="#4472C4" fill-opacity="0.5"/>
<circle cx="97.7054" cy="321.032" r="5.81579" fill="#4472C4" fill-opacity="0.5"/>
<circle cx="91.889" cy="315.216" r="5.81579" fill="#4472C4" fill-opacity="0.5"/>
<circle cx="86.0736" cy="309.4" r="5.81579" fill="#4472C4" fill-opacity="0.5"/>
<circle cx="115.153" cy="315.216" r="5.81579" fill="#4472C4" fill-opacity="0.5"/>
<circle cx="109.337" cy="309.4" r="5.81579" fill="#4472C4" fill-opacity="0.5"/>
<circle cx="109.337" cy="303.584" r="5.81579" fill="#4472C4" fill-opacity="0.5"/>
<circle cx="115.153" cy="297.768" r="5.81579" fill="#4472C4" fill-opacity="0.5"/>
<circle cx="115.153" cy="291.953" r="5.81579" fill="#4472C4" fill-opacity="0.5"/>
<circle cx="115.153" cy="286.137" r="5.81579" fill="#4472C4" fill-opacity="0.5"/>
<circle cx="132.6" cy="291.953" r="5.81579" fill="#4472C4" fill-opacity="0.5"/>
<circle cx="126.785" cy="309.4" r="5.81579" fill="#4472C4" fill-opacity="0.5"/>
<circle cx="144.232" cy="303.584" r="5.81579" fill="#4472C4" fill-opacity="0.5"/>
<circle cx="150.047" cy="321.032" r="5.81579" fill="#4472C4" fill-opacity="0.5"/>
<circle cx="132.6" cy="321.032" r="5.81579" fill="#4472C4" fill-opacity="0.5"/>
<circle cx="126.785" cy="332.663" r="5.81579" fill="#4472C4" fill-opacity="0.5"/>
<circle cx="109.337" cy="354.763" r="5.81579" fill="#4472C4" fill-opacity="0.5"/>
<circle cx="115.153" cy="350.111" r="5.81579" fill="#4472C4" fill-opacity="0.5"/>
<circle cx="120.968" cy="355.926" r="5.81579" fill="#4472C4" fill-opacity="0.5"/>
<circle cx="120.968" cy="367.558" r="5.81579" fill="#4472C4" fill-opacity="0.5"/>
<circle cx="120.968" cy="379.189" r="5.81579" fill="#4472C4" fill-opacity="0.5"/>
<circle cx="120.968" cy="390.821" r="5.81579" fill="#4472C4" fill-opacity="0.5"/>
<circle cx="132.6" cy="378.026" r="5.81579" fill="#4472C4" fill-opacity="0.5"/>
<circle cx="144.232" cy="407.105" r="5.81579" fill="#4472C4" fill-opacity="0.5"/>
<circle cx="161.679" cy="389.658" r="5.81579" fill="#4472C4" fill-opacity="0.5"/>
<circle cx="190.758" cy="385.005" r="5.81579" fill="#4472C4" fill-opacity="0.5"/>
<circle cx="203.553" cy="372.21" r="5.81579" fill="#4472C4" fill-opacity="0.5"/>
<circle cx="184.942" cy="361.742" r="5.81579" fill="#4472C4" fill-opacity="0.5"/>
<circle cx="173.311" cy="360.579" r="5.81579" fill="#4472C4" fill-opacity="0.5"/>
<circle cx="155.863" cy="360.579" r="5.81579" fill="#4472C4" fill-opacity="0.5"/>
<circle cx="155.863" cy="354.763" r="5.81579" fill="#4472C4" fill-opacity="0.5"/>
<circle cx="147.721" cy="350.111" r="5.81579" fill="#4472C4" fill-opacity="0.5"/>
<circle cx="147.721" cy="338.479" r="5.81579" fill="#4472C4" fill-opacity="0.5"/>
<circle cx="138.415" cy="344.295" r="5.81579" fill="#4472C4" fill-opacity="0.5"/>
<circle cx="132.6" cy="343.132" r="5.81579" fill="#4472C4" fill-opacity="0.5"/>
<circle cx="132.6" cy="350.111" r="5.81579" fill="#4472C4" fill-opacity="0.5"/>
<circle cx="141.906" cy="366.395" r="5.81579" fill="#4472C4" fill-opacity="0.5"/>
<circle cx="5.81579" cy="436.184" r="5.81579" fill="#4472C4" fill-opacity="0.5"/>
<circle cx="67.4632" cy="389.658" r="5.81579" fill="#4472C4" fill-opacity="0.5"/>
<circle cx="79.0951" cy="383.842" r="5.81579" fill="#4472C4" fill-opacity="0.5"/>
<circle cx="72.1156" cy="361.742" r="5.81579" fill="#4472C4" fill-opacity="0.5"/>
<circle cx="138.415" cy="252.405" r="5.81579" fill="#4472C4" fill-opacity="0.5"/>
<circle cx="130.274" cy="207.042" r="5.81579" fill="#4472C4" fill-opacity="0.5"/>
<circle cx="221" cy="238.447" r="5.81579" fill="#4472C4" fill-opacity="0.5"/>
<circle cx="226.816" cy="252.405" r="5.81579" fill="#4472C4" fill-opacity="0.5"/>
<circle cx="251.243" cy="246.589" r="5.81579" fill="#4472C4" fill-opacity="0.5"/>
<circle cx="257.058" cy="246.589" r="5.81579" fill="#4472C4" fill-opacity="0.5"/>
<circle cx="209.369" cy="274.505" r="5.81579" fill="#4472C4" fill-opacity="0.5"/>
<circle cx="221" cy="315.216" r="5.81579" fill="#4472C4" fill-opacity="0.5"/>
<circle cx="244.263" cy="309.4" r="5.81579" fill="#4472C4" fill-opacity="0.5"/>
<circle cx="250.078" cy="326.848" r="5.81579" fill="#4472C4" fill-opacity="0.5"/>
<circle cx="232.631" cy="315.216" r="5.81579" fill="#4472C4" fill-opacity="0.5"/>
<circle cx="232.631" cy="325.684" r="5.81579" fill="#4472C4" fill-opacity="0.5"/>
<circle cx="215.184" cy="326.848" r="5.81579" fill="#4472C4" fill-opacity="0.5"/>
<circle cx="209.369" cy="343.132" r="5.81579" fill="#4472C4" fill-opacity="0.5"/>
<circle cx="226.816" cy="339.642" r="5.81579" fill="#4472C4" fill-opacity="0.5"/>
<circle cx="244.263" cy="344.295" r="5.81579" fill="#4472C4" fill-opacity="0.5"/>
<circle cx="229.142" cy="355.926" r="5.81579" fill="#4472C4" fill-opacity="0.5"/>
<circle cx="250.078" cy="361.742" r="5.81579" fill="#4472C4" fill-opacity="0.5"/>
<circle cx="251.243" cy="372.21" r="5.81579" fill="#4472C4" fill-opacity="0.5"/>
<circle cx="268.69" cy="385.005" r="5.81579" fill="#4472C4" fill-opacity="0.5"/>
<circle cx="290.789" cy="366.395" r="5.81579" fill="#4472C4" fill-opacity="0.5"/>
<circle cx="291.953" cy="367.558" r="5.81579" fill="#4472C4" fill-opacity="0.5"/>
<circle cx="261.71" cy="354.763" r="5.81579" fill="#4472C4" fill-opacity="0.5"/>
<circle cx="274.505" cy="325.684" r="5.81579" fill="#4472C4" fill-opacity="0.5"/>
<circle cx="290.789" cy="309.4" r="5.81579" fill="#4472C4" fill-opacity="0.5"/>
<circle cx="291.953" cy="328.011" r="5.81579" fill="#4472C4" fill-opacity="0.5"/>
<circle cx="302.421" cy="337.316" r="5.81579" fill="#4472C4" fill-opacity="0.5"/>
<circle cx="304.747" cy="328.011" r="5.81579" fill="#4472C4" fill-opacity="0.5"/>
<circle cx="329.173" cy="325.684" r="5.81579" fill="#4472C4" fill-opacity="0.5"/>
<circle cx="352.437" cy="326.848" r="5.81579" fill="#4472C4" fill-opacity="0.5"/>
<circle cx="359.415" cy="319.869" r="5.81579" fill="#4472C4" fill-opacity="0.5"/>
<circle cx="371.047" cy="315.216" r="5.81579" fill="#4472C4" fill-opacity="0.5"/>
<circle cx="401.289" cy="319.869" r="5.81579" fill="#4472C4" fill-opacity="0.5"/>
<circle cx="365.232" cy="252.405" r="5.81579" fill="#4472C4" fill-opacity="0.5"/>
<circle cx="352.437" cy="238.447" r="5.81579" fill="#4472C4" fill-opacity="0.5"/>
<circle cx="395.474" cy="226.816" r="5.81579" fill="#4472C4" fill-opacity="0.5"/>
<circle cx="467.589" cy="201.226" r="5.81579" fill="#4472C4" fill-opacity="0.5"/>
<circle cx="448.979" cy="333.827" r="5.81579" fill="#4472C4" fill-opacity="0.5"/>
<circle cx="483.873" cy="291.953" r="5.81579" fill="#4472C4" fill-opacity="0.5"/>
<circle cx="532.726" cy="343.132" r="5.81579" fill="#4472C4" fill-opacity="0.5"/>
<circle cx="596.7" cy="311.726" r="5.81579" fill="#4472C4" fill-opacity="0.5"/>
<circle cx="551.337" cy="254.732" r="5.81579" fill="#4472C4" fill-opacity="0.5"/>
<circle cx="557.153" cy="248.916" r="5.81579" fill="#4472C4" fill-opacity="0.5"/>
<circle cx="568.785" cy="226.816" r="5.81579" fill="#4472C4" fill-opacity="0.5"/>
<circle cx="574.6" cy="212.858" r="5.81579" fill="#4472C4" fill-opacity="0.5"/>
<circle cx="568.785" cy="133.763" r="5.81579" fill="#4472C4" fill-opacity="0.5"/>
<circle cx="590.884" cy="201.226" r="5.81579" fill="#4472C4" fill-opacity="0.5"/>
<circle cx="596.7" cy="207.042" r="5.81579" fill="#4472C4" fill-opacity="0.5"/>
<circle cx="608.331" cy="201.226" r="5.81579" fill="#4472C4" fill-opacity="0.5"/>
<circle cx="602.516" cy="218.674" r="5.81579" fill="#4472C4" fill-opacity="0.5"/>
<circle cx="614.148" cy="226.816" r="5.81579" fill="#4472C4" fill-opacity="0.5"/>
<circle cx="614.148" cy="237.284" r="5.81579" fill="#4472C4" fill-opacity="0.5"/>
<circle cx="596.7" cy="243.1" r="5.81579" fill="#4472C4" fill-opacity="0.5"/>
<circle cx="586.232" cy="254.732" r="5.81579" fill="#4472C4" fill-opacity="0.5"/>
<circle cx="602.516" cy="269.852" r="5.81579" fill="#4472C4" fill-opacity="0.5"/>
<circle cx="618.8" cy="260.547" r="5.81579" fill="#4472C4" fill-opacity="0.5"/>
<circle cx="636.247" cy="248.916" r="5.81579" fill="#4472C4" fill-opacity="0.5"/>
<circle cx="642.063" cy="232.632" r="5.81579" fill="#4472C4" fill-opacity="0.5"/>
<circle cx="624.616" cy="225.653" r="5.81579" fill="#4472C4" fill-opacity="0.5"/>
<circle cx="625.779" cy="214.021" r="5.81579" fill="#4472C4" fill-opacity="0.5"/>
<circle cx="665.327" cy="248.916" r="5.81579" fill="#4472C4" fill-opacity="0.5"/>
<circle cx="676.958" cy="243.1" r="5.81579" fill="#4472C4" fill-opacity="0.5"/>
<circle cx="704.873" cy="254.732" r="5.81579" fill="#4472C4" fill-opacity="0.5"/>
<circle cx="761.869" cy="258.221" r="5.81579" fill="#4472C4" fill-opacity="0.5"/>
<circle cx="750.237" cy="243.1" r="5.81579" fill="#4472C4" fill-opacity="0.5"/>
<circle cx="907.263" cy="133.763" r="5.81579" fill="#4472C4" fill-opacity="0.5"/>
<circle cx="957.279" cy="5.81579" r="5.81579" fill="#4472C4" fill-opacity="0.5"/>
<circle cx="754.889" cy="230.305" r="5.81579" fill="#4472C4" fill-opacity="0.5"/>
<circle cx="726.974" cy="226.816" r="5.81579" fill="#4472C4" fill-opacity="0.5"/>
<circle cx="710.69" cy="221" r="5.81579" fill="#4472C4" fill-opacity="0.5"/>
<circle cx="688.589" cy="212.858" r="5.81579" fill="#4472C4" fill-opacity="0.5"/>
<circle cx="693.243" cy="201.226" r="5.81579" fill="#4472C4" fill-opacity="0.5"/>
<circle cx="676.958" cy="195.411" r="5.81579" fill="#4472C4" fill-opacity="0.5"/>
<circle cx="682.774" cy="183.779" r="5.81579" fill="#4472C4" fill-opacity="0.5"/>
<circle cx="642.063" cy="189.595" r="5.81579" fill="#4472C4" fill-opacity="0.5"/>
<circle cx="671.142" cy="172.147" r="5.81579" fill="#4472C4" fill-opacity="0.5"/>
<circle cx="671.142" cy="155.863" r="5.81579" fill="#4472C4" fill-opacity="0.5"/>
<circle cx="576.927" cy="166.332" r="11.6316" fill="#4472C4" fill-opacity="0.5"/>
<circle cx="693.242" cy="107.01" r="11.6316" fill="#4472C4" fill-opacity="0.5"/>
<circle cx="702.548" cy="134.926" r="26.7526" fill="#4472C4" fill-opacity="0.5"/>
<circle cx="775.826" cy="204.716" r="26.7526" fill="#4472C4" fill-opacity="0.5"/>
<circle cx="796.763" cy="162.842" r="20.9368" fill="#4472C4" fill-opacity="0.5"/>
<circle cx="897.958" cy="107.011" r="20.9368" fill="#4472C4" fill-opacity="0.5"/>
<circle cx="173.311" cy="303.584" r="5.81579" fill="#4472C4" fill-opacity="0.5"/>
<circle cx="167.495" cy="309.4" r="5.81579" fill="#4472C4" fill-opacity="0.5"/>
<circle cx="168.658" cy="322.195" r="5.81579" fill="#4472C4" fill-opacity="0.5"/>
<circle cx="184.942" cy="314.053" r="5.81579" fill="#4472C4" fill-opacity="0.5"/>
<circle cx="195.411" cy="316.379" r="5.81579" fill="#4472C4" fill-opacity="0.5"/>
<circle cx="191.921" cy="338.479" r="5.81579" fill="#4472C4" fill-opacity="0.5"/>
<circle cx="168.658" cy="334.99" r="5.81579" fill="#4472C4" fill-opacity="0.5"/>
<circle cx="161.679" cy="345.458" r="5.81579" fill="#4472C4" fill-opacity="0.5"/>
<circle cx="179.126" cy="348.948" r="5.81579" fill="#4472C4" fill-opacity="0.5"/>
<circle cx="349.529" cy="294.86" r="8.72368" fill="#4472C4" fill-opacity="0.5"/>
<circle cx="311.145" cy="269.271" r="12.2132" fill="#4472C4" fill-opacity="0.5"/>
<circle cx="313.472" cy="290.208" r="21.5184" fill="#4472C4" fill-opacity="0.5"/>
<circle cx="195.992" cy="300.676" r="27.3342" fill="#4472C4" fill-opacity="0.5"/>
<circle cx="483.292" cy="254.15" r="15.7026" fill="#4472C4" fill-opacity="0.5"/>
</svg>
