<svg width="651" height="253" viewBox="0 0 651 253" fill="none" xmlns="http://www.w3.org/2000/svg">
<circle cx="45.5569" cy="138.266" r="5.81579" transform="rotate(22.0999 45.5569 138.266)" fill="#218E25" fill-opacity="0.5"/>
<circle cx="72.388" cy="87.6468" r="5.81579" transform="rotate(22.0999 72.388 87.6468)" fill="#218E25" fill-opacity="0.5"/>
<circle cx="95.0657" cy="170.924" r="5.81579" transform="rotate(22.0999 95.0657 170.924)" fill="#218E25" fill-opacity="0.5"/>
<circle cx="132.837" cy="93.3617" r="5.81579" transform="rotate(22.0999 132.837 93.3617)" fill="#218E25" fill-opacity="0.5"/>
<circle cx="151.191" cy="94.5375" r="5.81579" transform="rotate(22.0999 151.191 94.5375)" fill="#218E25" fill-opacity="0.5"/>
<circle cx="153.378" cy="89.1488" r="5.81579" transform="rotate(22.0999 153.378 89.1488)" fill="#218E25" fill-opacity="0.5"/>
<circle cx="160.955" cy="85.9486" r="5.81579" transform="rotate(22.0999 160.955 85.9486)" fill="#218E25" fill-opacity="0.5"/>
<circle cx="163.143" cy="80.5599" r="5.81579" transform="rotate(22.0999 163.143 80.5599)" fill="#218E25" fill-opacity="0.5"/>
<circle cx="165.331" cy="75.1713" r="5.81579" transform="rotate(22.0999 165.331 75.1713)" fill="#218E25" fill-opacity="0.5"/>
<circle cx="179.309" cy="87.1239" r="5.81579" transform="rotate(22.0999 179.309 87.1239)" fill="#218E25" fill-opacity="0.5"/>
<circle cx="185.709" cy="102.277" r="5.81579" transform="rotate(22.0999 185.709 102.277)" fill="#218E25" fill-opacity="0.5"/>
<circle cx="184.534" cy="120.631" r="5.81579" transform="rotate(22.0999 184.534 120.631)" fill="#218E25" fill-opacity="0.5"/>
<circle cx="131.335" cy="174.352" r="5.81579" transform="rotate(22.0999 131.335 174.352)" fill="#218E25" fill-opacity="0.5"/>
<circle cx="146.763" cy="198.192" r="5.81579" transform="rotate(22.0999 146.763 198.192)" fill="#218E25" fill-opacity="0.5"/>
<circle cx="198.185" cy="195.22" r="5.81579" transform="rotate(22.0999 198.185 195.22)" fill="#218E25" fill-opacity="0.5"/>
<circle cx="214.854" cy="188.179" r="5.81579" transform="rotate(22.0999 214.854 188.179)" fill="#218E25" fill-opacity="0.5"/>
<circle cx="201.549" cy="171.478" r="5.81579" transform="rotate(22.0999 201.549 171.478)" fill="#218E25" fill-opacity="0.5"/>
<circle cx="191.209" cy="166.024" r="5.81579" transform="rotate(22.0999 191.209 166.024)" fill="#218E25" fill-opacity="0.5"/>
<circle cx="7.57645" cy="173.06" r="5.81579" transform="rotate(22.0999 7.57645 173.06)" fill="#218E25" fill-opacity="0.5"/>
<circle cx="82.1985" cy="153.145" r="5.81579" transform="rotate(22.0999 82.1985 153.145)" fill="#218E25" fill-opacity="0.5"/>
<circle cx="199.575" cy="52.6703" r="5.81579" transform="rotate(22.0999 199.575 52.6703)" fill="#218E25" fill-opacity="0.5"/>
<circle cx="209.099" cy="7.57653" r="5.81579" transform="rotate(22.0999 209.099 7.57653)" fill="#218E25" fill-opacity="0.5"/>
<circle cx="281.344" cy="70.808" r="5.81579" transform="rotate(22.0999 281.344 70.808)" fill="#218E25" fill-opacity="0.5"/>
<circle cx="281.481" cy="85.9281" r="5.81579" transform="rotate(22.0999 281.481 85.9281)" fill="#218E25" fill-opacity="0.5"/>
<circle cx="306.301" cy="89.7294" r="5.81579" transform="rotate(22.0999 306.301 89.7294)" fill="#218E25" fill-opacity="0.5"/>
<circle cx="311.689" cy="91.9174" r="5.81579" transform="rotate(22.0999 311.689 91.9174)" fill="#218E25" fill-opacity="0.5"/>
<circle cx="257.001" cy="99.8407" r="5.81579" transform="rotate(22.0999 257.001 99.8407)" fill="#218E25" fill-opacity="0.5"/>
<circle cx="252.462" cy="141.936" r="5.81579" transform="rotate(22.0999 252.462 141.936)" fill="#218E25" fill-opacity="0.5"/>
<circle cx="276.203" cy="145.3" r="5.81579" transform="rotate(22.0999 276.203 145.3)" fill="#218E25" fill-opacity="0.5"/>
<circle cx="275.029" cy="163.653" r="5.81579" transform="rotate(22.0999 275.029 163.653)" fill="#218E25" fill-opacity="0.5"/>
<circle cx="263.239" cy="146.312" r="5.81579" transform="rotate(22.0999 263.239 146.312)" fill="#218E25" fill-opacity="0.5"/>
<circle cx="259.3" cy="156.012" r="5.81579" transform="rotate(22.0999 259.3 156.012)" fill="#218E25" fill-opacity="0.5"/>
<circle cx="242.698" cy="150.525" r="5.81579" transform="rotate(22.0999 242.698 150.525)" fill="#218E25" fill-opacity="0.5"/>
<circle cx="231.182" cy="163.425" r="5.81579" transform="rotate(22.0999 231.182 163.425)" fill="#218E25" fill-opacity="0.5"/>
<circle cx="248.66" cy="166.756" r="5.81579" transform="rotate(22.0999 248.66 166.756)" fill="#218E25" fill-opacity="0.5"/>
<circle cx="263.075" cy="177.631" r="5.81579" transform="rotate(22.0999 263.075 177.631)" fill="#218E25" fill-opacity="0.5"/>
<circle cx="244.69" cy="182.719" r="5.81579" transform="rotate(22.0999 244.69 182.719)" fill="#218E25" fill-opacity="0.5"/>
<circle cx="261.9" cy="195.984" r="5.81579" transform="rotate(22.0999 261.9 195.984)" fill="#218E25" fill-opacity="0.5"/>
<circle cx="259.039" cy="206.121" r="5.81579" transform="rotate(22.0999 259.039 206.121)" fill="#218E25" fill-opacity="0.5"/>
<circle cx="270.391" cy="224.54" r="5.81579" transform="rotate(22.0999 270.391 224.54)" fill="#218E25" fill-opacity="0.5"/>
<circle cx="297.869" cy="215.611" r="5.81579" transform="rotate(22.0999 297.869 215.611)" fill="#218E25" fill-opacity="0.5"/>
<circle cx="298.509" cy="217.126" r="5.81579" transform="rotate(22.0999 298.509 217.126)" fill="#218E25" fill-opacity="0.5"/>
<circle cx="275.303" cy="193.894" r="5.81579" transform="rotate(22.0999 275.303 193.894)" fill="#218E25" fill-opacity="0.5"/>
<circle cx="298.098" cy="171.765" r="5.81579" transform="rotate(22.0999 298.098 171.765)" fill="#218E25" fill-opacity="0.5"/>
<circle cx="319.312" cy="162.804" r="5.81579" transform="rotate(22.0999 319.312 162.804)" fill="#218E25" fill-opacity="0.5"/>
<circle cx="313.388" cy="180.485" r="5.81579" transform="rotate(22.0999 313.388 180.485)" fill="#218E25" fill-opacity="0.5"/>
<circle cx="319.586" cy="193.045" r="5.81579" transform="rotate(22.0999 319.586 193.045)" fill="#218E25" fill-opacity="0.5"/>
<circle cx="325.242" cy="185.298" r="5.81579" transform="rotate(22.0999 325.242 185.298)" fill="#218E25" fill-opacity="0.5"/>
<circle cx="348.749" cy="192.333" r="5.81579" transform="rotate(22.0999 348.749 192.333)" fill="#218E25" fill-opacity="0.5"/>
<circle cx="369.866" cy="202.162" r="5.81579" transform="rotate(22.0999 369.866 202.162)" fill="#218E25" fill-opacity="0.5"/>
<circle cx="378.957" cy="198.322" r="5.81579" transform="rotate(22.0999 378.957 198.322)" fill="#218E25" fill-opacity="0.5"/>
<circle cx="391.485" cy="198.387" r="5.81579" transform="rotate(22.0999 391.485 198.387)" fill="#218E25" fill-opacity="0.5"/>
<circle cx="417.755" cy="214.076" r="5.81579" transform="rotate(22.0999 417.755 214.076)" fill="#218E25" fill-opacity="0.5"/>
<circle cx="409.727" cy="138.003" r="5.81579" transform="rotate(22.0999 409.727 138.003)" fill="#218E25" fill-opacity="0.5"/>
<circle cx="403.124" cy="120.257" r="5.81579" transform="rotate(22.0999 403.124 120.257)" fill="#218E25" fill-opacity="0.5"/>
<circle cx="447.375" cy="125.672" r="5.81579" transform="rotate(22.0999 447.375 125.672)" fill="#218E25" fill-opacity="0.5"/>
<circle cx="523.82" cy="129.094" r="5.81579" transform="rotate(22.0999 523.82 129.094)" fill="#218E25" fill-opacity="0.5"/>
<circle cx="456.69" cy="244.95" r="5.81579" transform="rotate(22.0999 456.69 244.95)" fill="#218E25" fill-opacity="0.5"/>
<circle cx="504.774" cy="219.281" r="5.81579" transform="rotate(22.0999 504.774 219.281)" fill="#218E25" fill-opacity="0.5"/>
<circle cx="581.284" cy="210.176" r="5.81579" transform="rotate(22.0999 581.284 210.176)" fill="#218E25" fill-opacity="0.5"/>
<circle cx="588.861" cy="206.975" r="5.81579" transform="rotate(22.0999 588.861 206.975)" fill="#218E25" fill-opacity="0.5"/>
<circle cx="642.96" cy="104.659" r="5.81579" transform="rotate(22.0999 642.96 104.659)" fill="#218E25" fill-opacity="0.5"/>
<circle cx="212.653" cy="113.217" r="5.81579" transform="rotate(22.0999 212.653 113.217)" fill="#218E25" fill-opacity="0.5"/>
<circle cx="205.075" cy="116.418" r="5.81579" transform="rotate(22.0999 205.075 116.418)" fill="#218E25" fill-opacity="0.5"/>
<circle cx="201.34" cy="128.71" r="5.81579" transform="rotate(22.0999 201.34 128.71)" fill="#218E25" fill-opacity="0.5"/>
<circle cx="219.491" cy="127.293" r="5.81579" transform="rotate(22.0999 219.491 127.293)" fill="#218E25" fill-opacity="0.5"/>
<circle cx="228.315" cy="133.387" r="5.81579" transform="rotate(22.0999 228.315 133.387)" fill="#218E25" fill-opacity="0.5"/>
<circle cx="216.767" cy="152.55" r="5.81579" transform="rotate(22.0999 216.767 152.55)" fill="#218E25" fill-opacity="0.5"/>
<circle cx="196.526" cy="140.565" r="5.81579" transform="rotate(22.0999 196.526 140.565)" fill="#218E25" fill-opacity="0.5"/>
<circle cx="186.121" cy="147.639" r="5.81579" transform="rotate(22.0999 186.121 147.639)" fill="#218E25" fill-opacity="0.5"/>
<circle cx="200.974" cy="157.435" r="5.81579" transform="rotate(22.0999 200.974 157.435)" fill="#218E25" fill-opacity="0.5"/>
<circle cx="379.206" cy="171.432" r="8.72368" transform="rotate(22.0999 379.206 171.432)" fill="#218E25" fill-opacity="0.5"/>
<circle cx="353.269" cy="133.281" r="12.2132" transform="rotate(22.0999 353.269 133.281)" fill="#218E25" fill-opacity="0.5"/>
<circle cx="347.548" cy="153.555" r="21.5184" transform="rotate(22.0999 347.548 153.555)" fill="#218E25" fill-opacity="0.5"/>
<circle cx="234.761" cy="119.056" r="27.3342" transform="rotate(22.0999 234.761 119.056)" fill="#218E25" fill-opacity="0.5"/>
<circle cx="107.61" cy="170.715" r="27.3342" transform="rotate(22.0999 107.61 170.715)" fill="#218E25" fill-opacity="0.5"/>
<circle cx="518.458" cy="184.037" r="15.7026" transform="rotate(22.0999 518.458 184.037)" fill="#218E25" fill-opacity="0.5"/>
</svg>
